<?xml version="1.0" encoding="utf-8"?>
<!-- Generator: Adobe Illustrator 20.0.0, SVG Export Plug-In . SVG Version: 6.00 Build 0)  -->
<svg version="1.1" id="Layer_1" xmlns="http://www.w3.org/2000/svg" xmlns:xlink="http://www.w3.org/1999/xlink" x="0px" y="0px"
	 viewBox="0 0 204.4 108.7" style="enable-background:new 0 0 204.4 108.7;" xml:space="preserve">
<style type="text/css">
	.st0{fill:#FFFFFF;}
</style>
<g id="XMLID_7_">
	<path class="st0" d="M48.5,23.9c0.1,0.1,0.2,0.3,0.2,0.7c0.1,0.4,0.1,0.7,0.2,1c0,0.2,0,0.6,0,1.2c0,0.6,0,1.1,0,1.4
		c-0.1,0.9-0.5,1.7-1,2.2c-0.5,0.6-0.9,1.2-1.2,2c0,0.1-0.1,0.2-0.1,0.3c0,0.1-0.1,0.2-0.2,0.3c-0.2,0.4-0.5,0.8-0.9,1.2
		c-0.4,0.4-0.8,0.7-1.2,1.1l-0.9,1.2c-0.2,0.2-0.4,0.3-0.7,0.5c-0.2,0.1-0.4,0.3-0.7,0.5c0,0-0.1,0.1-0.1,0.2c0,0.1,0,0.1-0.1,0.2
		c-0.9,0.6-1.7,1.2-2.4,1.6c-0.7,0.4-1.3,0.8-1.8,1.2c-0.5,0.3-1,0.6-1.5,0.9c-0.4,0.2-0.9,0.5-1.3,0.8l-1.1,0.6c0,0.1,0,0.2,0,0.3
		c0,0.1,0,0.1,0,0.2c-0.1,0.1-0.3,0.3-0.5,0.4c-0.2,0.1-0.5,0.2-0.7,0.3c-0.1,0-0.3,0.1-0.4,0.2c-0.1,0.1-0.3,0.2-0.4,0.3
		c-0.1,0.1-0.3,0.2-0.4,0.2c-0.1,0-0.3,0.1-0.4,0.2c-0.1,0.1-0.2,0.2-0.3,0.3c-0.1,0.1-0.2,0.2-0.4,0.3c-0.3,0.1-0.6,0.2-0.9,0.3
		S29,46,28.9,46.3c-0.1,0-0.1,0-0.1-0.1c0-0.1,0-0.1-0.1,0c-0.1,0-0.3,0-0.4,0.1c-0.2,0-0.3,0.1-0.6,0.2c0,0-0.1,0-0.2,0.1
		c-0.1,0-0.1,0.1-0.2,0.1c-0.1,0-0.2,0.1-0.2,0c-0.1,0-0.1,0-0.2,0c-0.1,0-0.3,0.1-0.4,0.2c-0.2,0.1-0.3,0.1-0.5,0.2
		c-0.4,0.2-0.7,0.3-1.1,0.4c-0.4,0.1-0.8,0.2-1.3,0.4C23.4,48,23.2,48,23.1,48c0,0.1-0.1,0.1-0.1,0c0-0.1-0.1-0.1-0.2,0
		c-0.3,0.1-0.6,0.2-0.9,0.4c-0.3,0.2-0.6,0.2-0.9,0.2c0.2-0.1,0.4-0.2,0.6-0.2c0.2-0.1,0.4-0.2,0.6-0.3c0.1-0.1,0.3-0.2,0.5-0.3
		c0.3-0.1,0.5-0.2,0.7-0.2c0,0,0.1,0,0.2,0c0.1,0,0.1,0,0.2,0c0.1,0,0.1-0.1,0.2-0.1c0,0,0.1-0.1,0.2-0.1c0.2,0,0.4-0.1,0.6-0.1
		c0.2,0,0.4-0.1,0.6-0.2c0.1,0,0.2-0.1,0.2-0.1c0,0,0.1-0.1,0.2-0.2c0.1-0.1,0.3-0.2,0.6-0.3c0.2-0.1,0.5-0.2,0.6-0.3
		c-0.3,0-0.6,0-0.9,0.2c-0.3,0.2-0.6,0.3-1,0.4c-0.1,0-0.3,0.1-0.5,0.1c-0.2,0-0.3,0.1-0.4,0.1c-0.2,0-0.3,0.1-0.5,0.2
		c-0.1,0.1-0.2,0.2-0.3,0.2c-0.2,0-0.3,0.1-0.5,0c-0.2,0-0.3,0-0.6,0c-0.2,0.1-0.4,0.2-0.6,0.3c-0.2,0.1-0.4,0.2-0.7,0.2
		c-0.1,0-0.2,0-0.2,0.1c-0.1,0.1-0.1,0.1-0.2,0.1c-0.1,0-0.2,0-0.2-0.1c0,0-0.1-0.1-0.1-0.1c-0.4,0.2-0.6,0.3-0.8,0.3H19
		c-0.2,0.1-0.4,0.2-0.6,0.3c-0.2,0.1-0.4,0.2-0.6,0.2c-0.1,0.1-0.2,0.1-0.2,0.1c-0.1,0-0.1,0-0.2,0.1c-0.1,0-0.2,0-0.2,0.1
		c0,0-0.1,0.1-0.2,0.1c0,0-0.1,0-0.1,0c0,0-0.1,0-0.1,0c-0.1,0-0.2,0-0.2,0.1c-0.1,0-0.1,0.1-0.2,0.1c-0.1,0-0.2,0-0.2,0
		c-0.1,0-0.1,0-0.2,0c-0.6,0.1-1.2,0.2-1.8,0.4c-0.6,0.2-1.2,0.2-1.8,0.1c0-0.1,0.1-0.1,0.3-0.1s0.2,0,0.3-0.1
		c0.1,0,0.2-0.1,0.3-0.2c0.4,0,0.7,0,0.9-0.1c0.1,0,0.2-0.1,0.3,0c0.1,0,0.2,0,0.4,0c0.1,0,0.2-0.1,0.2-0.1c0.1,0,0.1-0.1,0.2-0.1
		c0.3-0.1,0.7-0.1,1.1-0.2c0.4,0,0.7-0.1,0.9-0.2c0.2-0.1,0.5-0.2,0.8-0.2c0.3-0.1,0.7-0.1,1-0.2c0.2-0.2,0.5-0.3,0.9-0.3
		c0.2-0.1,0.5-0.2,0.7-0.2c0.2,0,0.5-0.1,0.8-0.2c0.1,0,0.2,0,0.3-0.1c0.1-0.1,0.2-0.1,0.3-0.1c0.1-0.1,0.3-0.1,0.4-0.2
		c0.2,0,0.3-0.1,0.4-0.2c0.2-0.1,0.3-0.2,0.5-0.3c0.1-0.1,0.3-0.2,0.5-0.3c0.1-0.1,0.2-0.2,0.4-0.3c0-0.1,0-0.2,0-0.2
		c0-0.1,0-0.1,0.1-0.2c-0.9,0.3-1.8,0.5-2.6,0.8c-0.9,0.3-1.7,0.6-2.6,0.8c-0.2,0-0.4,0.1-0.6,0.1c-0.2,0-0.3,0.1-0.5,0.2
		c-0.2,0.1-0.4,0.2-0.7,0.3c-0.2,0.1-0.5,0.2-0.9,0.2c0-0.1,0.1-0.1,0.3-0.2c0.1,0,0.2-0.1,0.3-0.2c-0.1-0.1-0.1-0.1,0-0.1
		c0.1,0,0.1,0,0.2-0.1c0.1,0,0.2,0.1,0.1,0.1c-0.1,0-0.1,0.1-0.2,0.2c0.2,0.1,0.3,0.1,0.3-0.1c0-0.1,0.1-0.2,0.2-0.3
		c0.1,0,0.3-0.1,0.4-0.1s0.2,0,0.3-0.1c0.4-0.1,0.8-0.3,1.3-0.5c-0.5,0-1,0.1-1.7,0.3c-0.6,0.2-1.3,0.4-1.9,0.5h-1.3
		c-0.2,0-0.3,0.1-0.5,0.1c-0.1,0-0.3,0.1-0.5,0.2c-0.1,0-0.3,0.1-0.4,0c-0.1,0-0.2,0-0.4,0c-0.2,0-0.4,0-0.5,0.1
		c-0.2,0-0.3,0-0.4,0.1c-0.1-0.1-0.2-0.3-0.2-0.5c0,0.2-0.1,0.3-0.1,0.5c0,0.2,0,0.3-0.1,0.5c0,0,0,0.1,0,0.1c0,0,0,0,0,0.1
		c-0.2,0.2-0.3,0.4-0.5,0.7c-0.1,0.2-0.2,0.5-0.3,0.8c0,0.1-0.1,0.3,0,0.5c0,0.2,0,0.4,0,0.5l-0.5,1.5c0,0.2-0.1,0.5-0.2,0.7
		C10,53.6,9.9,53.8,9.9,54c0,0.2,0,0.3,0.1,0.4c0.1,0.1,0.1,0.2,0.1,0.3s0,0.3-0.1,0.4c-0.1,0.1-0.2,0.2-0.3,0.3
		c0,0.2-0.1,0.4-0.1,0.7c0,0.2,0,0.4,0,0.7c0,0.1,0,0.3,0.1,0.4c0.1,0.1,0.1,0.3,0.1,0.5c0,0.1,0,0.2-0.1,0.4
		c-0.1,0.2-0.1,0.3-0.1,0.4c0,0.9,0,1.8,0.1,2.7c0.1,0.9,0.1,1.8,0.1,2.7c0,0.4,0,0.8-0.1,1c-0.1,0.2-0.1,0.5,0,0.8
		c0.1,0.3,0.2,0.5,0.3,0.8c0.1,0.2,0.2,0.5,0.2,0.8c0.1,0.3,0.3,0.5,0.4,0.8c0.1,0.3,0.2,0.5,0.2,0.7c-0.1,0.4-0.3,0.6-0.6,0.7
		c-0.3,0.1-0.6,0.2-1,0.1c-0.5-0.1-0.9-0.3-1.3-0.7c-0.4-0.4-0.7-0.8-0.9-1.1c-0.1-0.2-0.2-0.4-0.4-0.6c-0.2-0.2-0.3-0.4-0.4-0.6
		c-0.1-0.2-0.2-0.4-0.4-0.7c-0.2-0.2-0.3-0.4-0.4-0.5v-0.7c-0.4-1.3-0.7-2.7-0.9-4.1c-0.2-1.4-0.3-3-0.3-4.6c0-0.5,0-1.1,0.1-1.7
		c0.1-0.6,0.1-1.2,0.1-1.7c0.4-4.1,0.9-8.2,1.6-12.3c0.7-4,1.5-7.8,2.4-11.4c-0.6,0-1.2-0.1-1.8-0.2c-0.6-0.2-1-0.4-1.2-0.8
		c0.4,0.1,0.8,0.1,1.2,0c0.4-0.1,0.7-0.2,1.1-0.5c0.6-0.3,1-0.5,1.2-0.7c0.2-0.2,0.3-0.7,0.6-1.3c0.4-1.4,0.7-2.7,1.1-3.9
		c0.4-1.2,0.8-2.5,1.3-3.7c0.2-0.6,0.3-1.1,0.5-1.6c0.2-0.5,0.3-1,0.6-1.4c0.1,0,0.3,0,0.5,0c0.3,0,0.6,0.1,0.9,0.2
		c0.3,0.1,0.6,0.2,0.8,0.3c0.2,0.1,0.4,0.2,0.4,0.2c0.1,0.1,0.2,0.2,0.3,0.5c0,0.2,0.1,0.4,0.3,0.5c0.2,0.3,0.6,0.6,1,1
		c0.5,0.4,0.8,0.7,1.1,1.1c0.1,0.4,0.2,0.7,0.3,1c0,0.3,0.1,0.8,0.3,1.3c0.7,0,1.3-0.1,1.8-0.2c0.5-0.1,1-0.2,1.5-0.3s1-0.3,1.5-0.4
		c0.5-0.2,1.1-0.3,1.8-0.5l2.7-0.6c0.1,0,0.4-0.1,0.8-0.3l3.5-0.5c0.5-0.1,0.9-0.1,1.3-0.2c0.4,0,0.8,0,1.2,0c1,0,2,0.1,3,0.2
		c1,0.1,2.1,0.3,3.3,0.5c1.3,0.4,2.5,0.9,3.4,1.6c1,0.7,1.9,1.5,2.8,2.4l0.3,0.7c0.1,0.1,0.3,0.2,0.4,0.2
		C48.3,23.7,48.4,23.8,48.5,23.9z M5.3,64.6C5.3,64.5,5.3,64.4,5.3,64.6c0,0.1,0.1,0.2,0.2,0.1c0,0.2-0.1,0.2-0.2,0.2
		C5.3,64.8,5.3,64.7,5.3,64.6z M15,47.1c0.5-0.1,1-0.1,1.4-0.2c0.5,0,0.9-0.2,1.2-0.5c-0.5,0-1,0.1-1.5,0.2c-0.5,0.1-1,0.2-1.5,0.2
		c-0.3,0.1-0.6,0.2-0.9,0.2c-0.3,0.1-0.6,0.1-1,0.2c-0.1,0.1-0.2,0.1-0.4,0.1c-0.2,0-0.3,0-0.5,0.1c0.4,0,0.9,0,1.4,0
		s0.9-0.1,1.3-0.2c0.1,0,0.2,0,0.2-0.1C14.8,47.1,14.9,47.1,15,47.1z M42.7,28.4c0-0.1,0.1-0.4,0.3-0.8s0.2-0.8,0.3-1.3
		c0.1-0.5,0.2-0.9,0.2-1.3c0-0.4,0-0.7-0.1-0.9c-0.1-1-0.7-1.6-1.7-1.9c-0.2-0.1-0.4-0.2-0.7-0.3c-0.2-0.1-0.4-0.2-0.7-0.2
		c-0.4-0.1-0.6-0.2-0.7-0.3c-0.1-0.1-0.2-0.1-0.2-0.2c0,0-0.1,0-0.2,0c-0.1,0-0.3,0-0.7,0.1c-0.3,0-0.6,0-1-0.1
		c-0.4-0.1-0.7-0.1-1,0c-0.6,0.1-1.2,0.1-1.8,0.1c-0.6,0-1.2,0-1.8,0l-3.3,0.9c-0.2,0.1-0.5,0.2-0.7,0.2c-0.3,0-0.5,0.1-0.7,0.1
		l-1.1,0.5c-0.5,0.1-0.9,0.1-1.2,0.2c-0.3,0-0.7,0.1-1,0.2c-0.3,0.1-0.4,0.2-0.5,0.2c-0.1,0-0.1,0.1-0.2,0.1c0,0-0.1,0.1-0.1,0.1
		c0,0-0.2,0.1-0.4,0.2c-0.2,0-0.3,0.1-0.5,0.1s-0.3,0-0.4,0.1c-0.2,0-0.5,0.1-0.8,0.3c-0.3,0.1-0.5,0.3-0.6,0.4
		c-0.4,0.2-0.6,0.4-0.8,0.7c-0.2,0.3-0.4,0.5-0.6,0.7c-0.1,0.1-0.3,0.2-0.5,0.3c-0.2,0-0.5,0.1-0.6,0.3c-0.1,0.1-0.3,0.3-0.5,0.6
		c-0.2,0.3-0.4,0.5-0.5,0.7c-0.4,0.4-0.6,0.8-0.8,1c-0.2,0.2-0.2,0.6,0,1c0.2,0.6,0.2,1.3-0.1,2c-0.1,0.2-0.1,0.3-0.1,0.4
		c0,0.1,0,0.2-0.1,0.3c0,0.1-0.1,0.2-0.1,0.5c0,0.2-0.1,0.4-0.3,0.4c-0.2,0.2-0.4,0.3-0.5,0.4c-0.2,0.1-0.3,0.2-0.4,0.5
		c-0.1,0.1-0.2,0.2-0.3,0.4c0,0.2-0.1,0.3-0.1,0.4l-0.7,1.1c-0.2,0.2-0.3,0.3-0.4,0.4c-0.1,0.1-0.2,0.3-0.3,0.5
		c-0.1,0.2-0.1,0.5-0.1,0.7c0,0.2,0,0.5-0.1,0.8c-0.1,0.4-0.3,0.7-0.4,1.1c-0.2,0.4-0.3,0.8-0.3,1.1c0,0.3-0.1,0.5-0.2,0.8
		c-0.1,0.3-0.1,0.5-0.1,0.7c0,0.3-0.1,0.7-0.2,1.2c-0.1,0.5-0.2,0.8-0.2,0.8c0.4,0,0.8,0,1.3-0.1c0.5-0.1,0.9-0.2,1.3-0.2
		c0.1,0,0.2-0.1,0.3,0c0.1,0,0.2,0,0.3,0c0.2,0,0.4-0.1,0.7-0.2c0.2-0.1,0.5-0.2,0.7-0.2c0.2,0,0.4-0.1,0.5-0.1s0.3,0,0.5-0.1
		c0.1,0,0.1-0.1,0.2-0.1c0,0,0.1-0.1,0.1-0.1c0.2-0.1,0.3-0.1,0.5-0.1c0.2,0,0.3,0,0.4-0.1c0.5-0.2,1-0.4,1.4-0.5
		c0.4-0.2,0.9-0.4,1.3-0.5c0-0.1-0.1-0.1-0.2,0c-0.1,0.1-0.2,0.1-0.2,0c0.3-0.2,0.6-0.4,1.1-0.6c0.4-0.2,0.8-0.3,1.2-0.4
		c0.8-0.4,1.4-0.7,1.9-0.9c0.5-0.2,1-0.5,1.5-0.7c0.1,0,0.5-0.3,1.3-0.7c0.8-0.4,1.7-0.9,2.8-1.5c1.1-0.6,2.1-1.2,3.2-1.9
		c1.1-0.6,2-1.2,2.6-1.8c0.8-0.6,1.6-1.2,2.3-1.8c0.7-0.6,1.3-1.2,1.8-1.9c0.4-0.4,0.7-0.8,0.9-1.1C42.3,29.2,42.5,28.8,42.7,28.4z
		 M15.7,48.8c-0.4,0-0.7,0-1.1,0.1c-0.4,0.1-0.8,0.2-1.1,0.3c0.2-0.2,0.5-0.3,0.9-0.4c0.4-0.1,0.8-0.1,1.1-0.2
		c0.3-0.1,0.6-0.2,0.8-0.3c0.2-0.1,0.5-0.1,0.7-0.2c0,0.3-0.1,0.4-0.5,0.4C16.1,48.5,15.8,48.6,15.7,48.8z M14.7,48
		c0.2-0.1,0.4-0.2,0.7-0.3c0.2-0.1,0.5-0.1,0.7-0.1c-0.3,0.2-0.6,0.3-0.9,0.4c-0.4,0.1-0.7,0.2-1,0.3c0-0.2,0-0.3,0.2-0.2
		C14.5,48,14.6,48,14.7,48z M16.5,47.4C16.6,47.4,16.6,47.5,16.5,47.4c0.1,0.1,0.1,0.1,0.1,0.1c0,0-0.1,0.1-0.1,0.1
		c0,0-0.1-0.1-0.1-0.1C16.5,47.5,16.5,47.5,16.5,47.4C16.5,47.5,16.5,47.5,16.5,47.4z M17.4,48.2c-0.1,0-0.2,0-0.1-0.1
		c0.1-0.1,0.1-0.1,0-0.1c0.6-0.1,1.3-0.3,1.9-0.6c0.6-0.2,1.3-0.5,2-0.6c-0.1,0.3-0.4,0.4-0.8,0.5c-0.4,0.1-0.8,0.2-1.2,0.3
		c-0.1,0-0.2,0-0.2,0.1c-0.1,0.1-0.1,0.1-0.2,0.1C18.4,48,18.2,48,18,48C17.8,48,17.6,48.1,17.4,48.2z M17.9,46.4
		c0.2-0.1,0.5-0.2,0.7-0.2c0.2,0,0.5-0.1,0.7-0.3c-0.2,0-0.5,0-0.7,0.1C18.3,46.2,18.1,46.3,17.9,46.4z M18.3,43.8
		c0.1,0,0.2-0.1,0.3-0.1c0.1,0,0.2,0,0.3-0.1c-0.1,0.1-0.2,0.2-0.3,0.2C18.6,43.9,18.5,43.9,18.3,43.8z M19.4,43.6
		c0-0.1,0-0.1,0.1-0.1c0.1,0,0.2,0,0.3,0C19.7,43.5,19.6,43.6,19.4,43.6z M20.2,43c0.1,0,0.2-0.1,0.4-0.2c0.2-0.1,0.3,0,0.4,0.1
		c-0.2,0-0.4,0-0.6,0.1c-0.2,0.1-0.3,0.1-0.6,0.2c0-0.1,0-0.1,0.1-0.1C20,43.1,20.1,43.1,20.2,43z M20.1,45.8
		C20,45.8,20,45.8,20.1,45.8c0.1,0,0.1,0,0.1-0.1L20.1,45.8C20.1,45.8,20.1,45.8,20.1,45.8z M21.1,43c0-0.1,0.1-0.2,0.2-0.2
		C21.3,42.9,21.2,43,21.1,43z M21.7,46.7c0,0.1-0.1,0.1-0.3,0.1C21.4,46.8,21.5,46.7,21.7,46.7z M27.1,46c0-0.1-0.1,0-0.2,0.1h0.2
		V46z M29.7,45.2c0-0.1,0-0.2,0-0.3c0-0.1-0.1-0.2-0.2-0.3c-0.1,0.1-0.3,0.2-0.4,0.3C29,45,28.9,45,28.7,45l-0.2,0.6
		c0.1,0,0.2-0.1,0.3-0.2c0.1-0.1,0.2-0.2,0.3-0.3C29.3,45.4,29.5,45.4,29.7,45.2z"/>
	<path class="st0" d="M53.9,44.2c0.2,0.4,0.6,0.7,1.1,0.7c0.5,0,0.9,0.1,1.3,0.3c0.2,0.1,0.4,0.3,0.6,0.4c0.2,0.1,0.4,0.3,0.5,0.4
		c0.3,0,0.5,0.1,0.7,0.3l0.1,0.1c0,0,0,0.1,0.1,0.1c0.3,0.1,0.4,0.3,0.5,0.4c0.1,0.2,0.2,0.4,0.4,0.7c0.1,0.1,0.2,0.2,0.3,0.2
		c0.1,0.1,0.2,0.1,0.3,0.2c-0.1,0.5,0,0.8,0.2,1c0.2,0.2,0.4,0.3,0.6,0.4c-0.2,0.3-0.4,0.6-0.6,1c-0.2,0.3-0.4,0.6-0.6,0.8
		c-0.1,0.5-0.3,1.1-0.5,1.7c-0.2,0.6-0.4,1.2-0.6,1.7c0,0-0.1,0.1-0.2,0.2C58.1,54.9,58,55,58,55c-0.2,0.4-0.3,0.8-0.4,1.3
		c-0.1,0.5-0.1,1-0.2,1.5c-0.2,0.9-0.4,1.9-0.7,3c-0.2,1.1-0.2,2.2-0.1,3.4c0.1,0.4,0.2,0.8,0.3,1.3c0.1,0.4,0.2,0.8,0.5,1.1
		l0.1,0.2c0.2,0.1,0.4,0.2,0.5,0.2c0.2,0,0.3,0,0.4,0.1c0.2,0.2,0.2,0.3,0.1,0.3c-0.1,0,0,0.2,0.1,0.4c0.5,0,0.9,0,1.4-0.1
		c0.4-0.1,0.9-0.2,1.4-0.2c-0.3,0.4-0.7,0.6-1.1,0.8c-0.4,0.2-0.8,0.3-1.2,0.4c-1.2,0.2-2.4,0.1-3.5-0.3c-1.1-0.4-1.9-1-2.4-1.8
		c-0.1-0.1-0.3-0.4-0.4-0.9c-0.1-0.4-0.2-0.8-0.3-0.9c-0.1-0.2-0.2-0.4-0.2-0.6c-0.1-0.2-0.1-0.4-0.2-0.6c-0.2-0.5-0.3-1.1-0.3-1.8
		c0-0.6-0.1-1.3-0.1-2c0-1.1,0.1-2.2,0.2-3.3c0.1-1.1,0.3-2.2,0.6-3.3c0.2-1.1,0.5-2.1,0.8-3c0.3-0.9,0.6-1.7,0.9-2.4
		c-0.1-0.4-0.3-0.6-0.6-0.7c-0.3-0.1-0.6-0.2-0.9-0.5c-0.2,0-0.3,0-0.4-0.1c-0.1-0.1-0.2-0.1-0.3-0.2c-0.1-0.1-0.2-0.2-0.2-0.2
		c-0.1,0-0.2,0-0.3,0.1c-0.3,0.4-0.4,0.6-0.5,0.7c-0.1,0.1-0.2,0.3-0.3,0.4c-0.1,0.1-0.2,0.2-0.3,0.4c-0.1,0.1-0.3,0.4-0.5,0.7
		c-0.1,0.1-0.3,0.3-0.8,0.6c-0.4,0.3-0.7,0.4-0.7,0.5c-0.2,0.5-0.4,0.8-0.7,0.9s-0.6,0.4-0.9,0.7c-0.4,0.5-0.8,0.8-1.1,1
		c-0.4,0.2-0.8,0.4-1.3,0.8c-1.8,0.1-2.7-0.1-2.7-0.7c0.6-0.5,1.1-0.9,1.7-1.3s0.9-0.8,1.1-1.1c0.5-0.6,0.8-0.9,1-1.1
		c0.2-0.2,0.4-0.4,0.8-0.8c0.3-0.3,0.5-0.5,0.6-0.6c0.2-0.2,0.5-0.5,1-1.1c0.3-0.4,0.5-0.7,0.6-0.9c0.1-0.2,0.2-0.4,0.5-0.8
		c-0.1-0.1-0.2-0.3-0.4-0.4c-0.2-0.1-0.3-0.3-0.5-0.4c-0.1-0.2-0.2-0.3-0.2-0.3c0,0,0,0,0-0.1c0,0,0-0.1,0-0.1c0-0.1,0-0.2-0.1-0.5
		c0,0-0.1-0.1-0.2-0.3s-0.2-0.2-0.2-0.3c0-0.3,0-0.7,0-1.1c0-0.4,0.1-0.8,0.2-1.3c0.1-0.4,0.2-0.8,0.3-1.2c0.1-0.4,0.2-0.7,0.3-0.9
		c0.1-0.5,0.4-1.2,0.7-1.9c0,0,0.1-0.1,0.2-0.1c0.1,0,0.2,0,0.2-0.1c0-0.1,0.1-0.2,0-0.2c0-0.1,0-0.1,0-0.2c0,0,0.1-0.1,0.2-0.1
		c0,0,0.1,0,0.2,0.1c0-0.1,0-0.2,0-0.2c0-0.1,0-0.1,0-0.1c0,0,0.1-0.1,0.2-0.1c0.1,0,0.1-0.1,0.1-0.1c0.1-0.2,0.2-0.5,0.5-0.7
		c0.2-0.3,0.5-0.6,0.8-0.9c0.2-0.2,0.6-0.6,1.1-1.2c0.5-0.6,1-0.9,1.3-1.2c0.1-0.1,0.2-0.1,0.4-0.1c0.2,0,0.3-0.1,0.4-0.3
		c0,0,0.1,0,0.1,0c0,0,0.1,0,0.2,0.2c0.4,0.4,0.8,0.7,1.3,1c0.5,0.3,0.9,0.6,1.2,1c0,0.3,0,0.4,0.1,0.4c0.1,1.6,0,2.9-0.3,3.9
		c-0.3,1.1-0.6,2.2-1,3.3c-0.2,0.7-0.5,1.4-0.9,2C54.7,42.8,54.3,43.5,53.9,44.2z M53.4,36.8c-0.1,0.4-0.3,0.9-0.5,1.2
		c-0.2,0.4-0.5,0.8-0.7,1.1c-0.2,0.4-0.4,0.8-0.6,1.2c-0.2,0.4-0.2,0.9,0,1.5c0.4-0.8,0.7-1.6,1.1-2.3c0.4-0.7,0.7-1.4,1-2
		c0.1-0.1,0.2-0.3,0.3-0.5c0.1-0.2,0.1-0.4,0-0.6c0,0.1-0.1,0.2-0.2,0.2C53.6,36.6,53.5,36.7,53.4,36.8z"/>
	<path class="st0" d="M120.9,47c0,0.3,0.1,0.5,0.2,0.7c0.1,0.2,0.1,0.4,0,0.6c0.1,0.8,0,1.6-0.4,2.5c-0.4,0.9-0.7,1.8-0.9,2.7
		c-0.2,0.4-0.3,0.8-0.4,1.2c-0.1,0.4-0.3,0.8-0.4,1.2c-0.2,0.4-0.4,0.8-0.6,1.1c-0.2,0.4-0.3,0.7-0.4,1.1c0,0.2-0.1,0.5-0.1,0.9
		c-0.1,0.3-0.2,0.7-0.3,1.2c-0.1,0.5-0.2,0.9-0.1,1.2c0.3,0.9,0.9,1.3,1.9,1.3c0,0.3-0.2,0.4-0.4,0.5c-0.2,0.1-0.3,0.3-0.2,0.6
		c-0.3-0.1-0.5,0-0.6,0.2c-0.1,0.2-0.2,0.3-0.4,0.4c-0.2,0.1-0.5,0.1-0.8-0.1c-0.4-0.1-0.7-0.2-0.8-0.3c-0.3-0.1-0.6-0.3-0.9-0.7
		c-0.3-0.4-0.6-0.7-0.8-1.1c-0.4-0.6-0.6-1.3-0.8-2.1c-0.2-0.8-0.3-1.7-0.3-2.6c0-2.1,0.3-4.1,1-5.9c-0.3,0-0.5,0.2-0.7,0.4
		c-0.2,0.2-0.4,0.4-0.7,0.6l-2.9,2.7c-0.2,0.2-0.4,0.3-0.5,0.5s-0.2,0.3-0.3,0.6c-0.1,0.1-0.2,0.2-0.2,0.2c-0.1,0-0.1,0.1-0.1,0.1
		c0,0.1-0.1,0.2,0,0.3c0,0.1,0,0.2-0.1,0.3c-0.2,0.4-0.5,0.8-0.8,1.1c-0.4,0.4-0.8,0.6-1.3,0.8c-0.2,0-0.5,0.1-0.7,0.2
		c-0.2,0.1-0.4,0.1-0.5,0.1c-0.2-0.1-0.3-0.2-0.4-0.3c-0.1-0.1-0.2-0.2-0.3-0.3c-0.1-0.1-0.2-0.3-0.3-0.4c-0.1-0.1-0.2-0.2-0.3-0.3
		c-0.5-0.5-0.9-1-1-1.3c-0.2-0.3-0.3-0.9-0.3-1.9c0-0.6-0.1-1.2-0.1-1.8c0-0.6,0.1-1.2,0.2-1.9c0.1-1.2,0.4-2.3,0.7-3.3
		c0.4-1,0.6-2,0.7-3c-0.6,0.4-1.2,0.8-1.7,1.3c-0.5,0.5-1,1.1-1.5,1.6c-0.2,0.1-0.4,0.3-0.5,0.4c-0.1,0.1-0.2,0.3-0.3,0.5
		c-0.2,0.3-0.4,0.5-0.8,0.8c-0.3,0.3-0.6,0.5-0.8,0.8c-0.2,0.2-0.4,0.4-0.5,0.6c-0.1,0.2-0.2,0.3-0.5,0.4c-0.7,0.7-1.4,1.3-2.1,1.9
		c-0.7,0.6-1.4,1.2-2.2,1.9c-0.2,0.2-0.5,0.5-0.8,0.8c-0.3,0.3-0.6,0.5-0.8,0.5c-0.1,0-0.3-0.1-0.4-0.2c-0.1-0.1-0.3-0.1-0.4-0.1
		c-0.1,0-0.3-0.1-0.6-0.1c-0.1,0-0.2-0.1-0.2-0.1c-0.1,0-0.1-0.1-0.2-0.1C90.1,56,89.9,56,89.8,56c-0.1-0.1-0.3-0.2-0.4-0.4
		c-0.1-0.2-0.2-0.3-0.4-0.4c-0.1-0.1-0.2-0.2-0.4-0.4c-0.2-0.2-0.2-0.3-0.2-0.4c-0.1-0.1-0.2-0.3-0.2-0.5c0-0.2-0.1-0.3-0.2-0.4
		c0.4-0.1,0.6-0.2,0.7-0.4c0.1-0.2,0.1-0.5,0.2-1c0.1-1.1,0.2-2,0.3-2.9c0.1-0.9,0.3-1.7,0.4-2.5c0.2-0.8,0.4-1.6,0.6-2.4
		c0.2-0.8,0.5-1.7,0.7-2.7c0.2-0.8,0.4-1.5,0.6-2.2c0.2-0.7,0.3-1.5,0.3-2.2c-0.6,0-1.2,0.1-1.7,0.3c-0.5,0.2-1,0.4-1.5,0.7
		c-0.1,0-0.2,0.1-0.3,0.1c-0.1,0-0.2,0.1-0.3,0.1c-0.6,0.2-1.1,0.4-1.6,0.6c-0.5,0.2-1,0.4-1.5,0.7c-0.3,0.2-0.8,0.5-1.5,0.8
		c-0.7,0.3-1.3,0.6-2,1c-0.7,0.4-1.3,0.7-1.9,1c-0.6,0.3-1,0.6-1.1,0.7c0.4,0.3,0.7,0.5,1.1,0.6c0.4,0.1,0.7,0.3,1.1,0.7
		c0.1,0.1,0.3,0.3,0.4,0.4c0.1,0.1,0.2,0.2,0.3,0.3c0.1,0.2,0.2,0.5,0.3,0.7c0.1,0.2,0.1,0.5,0.1,0.9c-0.1,0.2-0.2,0.5-0.2,0.9
		c-0.1,0.4-0.2,0.7-0.3,1.1c-0.9,2.4-2.2,4.4-4.1,6c-0.3,0.3-0.6,0.6-1,0.9c-0.4,0.3-0.7,0.7-1.1,1c-0.4,0.4-0.9,0.7-1.4,1
		c-0.5,0.3-0.9,0.6-1.3,0.7h-0.5c-0.1,0-0.3,0.1-0.6,0.2c-0.3,0.1-0.5,0.2-0.7,0.2c-0.6,0.1-1.2,0.1-1.8-0.1
		c-0.6-0.2-1.1-0.3-1.7-0.4c-0.8-0.3-1.4-0.6-1.8-0.9c-0.4-0.4-0.8-0.9-1.2-1.6c-0.4-0.7-0.6-1.4-0.6-2.1c0-1.2,0.1-2.2,0.4-3.1
		c0.3-0.9,0.7-1.8,1.2-2.6c0.5-0.8,1-1.5,1.5-2.2c0.5-0.7,1-1.4,1.5-2.1c0.3-0.4,0.6-0.6,1-0.8c0.3-0.2,0.6-0.3,0.9-0.3
		c0.3,0,0.6,0,0.9,0.1c0.1,0.2,0.2,0.4,0.2,0.7c0.1,0.3,0.2,0.5,0.3,0.6c0.3,0.4,0.3,0.8,0,1.2c0,0.1-0.1,0.2-0.2,0.3
		c-0.1,0.1-0.2,0.2-0.3,0.3l-0.7,1.3l-1.7,3.1c-0.2,0.3-0.4,0.7-0.6,1.2c-0.2,0.5-0.4,0.9-0.5,1.3c-0.2,0.9-0.2,1.7,0,2.3
		c0.2,0.6,0.8,0.9,1.9,0.8c0.7,0,1.3-0.2,1.9-0.7c0.6-0.5,1.2-1,1.8-1.5c0.2-0.2,0.5-0.4,0.8-0.7c0.3-0.2,0.5-0.4,0.7-0.7
		c0.4-0.4,0.7-0.9,1.2-1.6c0.4-0.6,0.6-1.3,0.5-2c0-0.2,0-0.5-0.1-0.7c-0.1-0.3-0.2-0.5-0.3-0.7c-0.1-0.2-0.3-0.5-0.5-0.7
		c-0.2-0.3-0.3-0.5-0.3-0.8c0-0.1,0-0.2,0.1-0.2c0,0,0-0.1,0-0.2c-0.4-0.8-1.4-1.2-3.2-1.3c0-0.2,0.1-0.4,0.3-0.6
		c0.2-0.2,0.3-0.4,0.5-0.6l0.6-1.1c0.2-0.2,0.5-0.4,0.8-0.4c0.3-0.1,0.6-0.2,0.8-0.4c0.3-0.3,0.7-0.6,1.2-0.9
		c0.6-0.3,1.2-0.6,1.8-0.9c0.6-0.3,1.3-0.6,1.9-0.9c0.6-0.3,1.1-0.6,1.5-0.8c0.2-0.1,0.7-0.3,1.3-0.5c0.6-0.2,1.1-0.5,1.3-0.6
		c0.3-0.1,0.6-0.3,1-0.4c0.4-0.2,0.8-0.3,1.3-0.5V35c0,0,0.2-0.1,0.5-0.2c0.1,0,0.2,0,0.2-0.1c0.2-0.1,0.4-0.2,0.6-0.2
		c0.2-0.1,0.4-0.1,0.7-0.2c0.5-0.2,1-0.4,1.7-0.5c0.6-0.1,1.3-0.2,1.9-0.2c0.9,0,1.7,0.2,2.5,0.6c0.8,0.4,1.5,1,1.9,1.7
		c0.1,0.2,0.2,0.4,0.3,0.6c0.1,0.2,0.2,0.5,0.2,0.8c0.3,0.7,0.4,1.5,0.4,2.4c0,0.6,0,1.1-0.1,1.3c-0.1,0.2-0.2,0.7-0.4,1.3L96.1,44
		c-0.2,0.4-0.4,0.8-0.5,1.2c-0.2,0.4-0.3,0.8-0.3,1.1c0.4-0.2,0.8-0.5,1.1-0.9c0.3-0.4,0.7-0.7,1.1-1l2.3-1.8
		c0.6-0.4,1.2-0.9,1.8-1.3c0.6-0.4,1.2-0.8,2-1.1c0.4-0.2,0.7-0.3,0.9-0.4c0.3-0.1,0.6-0.2,1.1-0.3c0.1,0,0.2-0.1,0.3-0.2
		c0.1-0.1,0.2-0.1,0.3-0.1c0.3,0.1,0.6,0.2,0.9,0.3c0.3,0.1,0.6,0.2,0.9,0.3c0.4,0.1,0.6,0.1,0.7,0.1c0.1,0,0.3,0.1,0.5,0.3
		c0.4,0.2,0.6,0.4,0.8,0.6c0.2,0.2,0.3,0.4,0.6,0.8c0.1,0.4,0.3,0.7,0.5,1.1c0.2,0.4,0.3,0.8,0.4,1.2c0.1,0.2,0.1,0.5,0.1,0.8
		c0,0.3-0.1,0.6-0.1,0.8c0,0.1-0.1,0.3-0.2,0.4c-0.1,0.1-0.2,0.3-0.2,0.4l-0.1,1.1c-0.2,0.6-0.4,1.1-0.7,1.6
		c-0.3,0.5-0.5,1.1-0.7,1.7c0.2,0,0.4-0.2,0.7-0.4c0.2-0.2,0.4-0.4,0.7-0.6c0.2-0.2,0.4-0.4,0.6-0.6c0.2-0.2,0.4-0.4,0.6-0.6
		c0.4-0.4,0.9-0.8,1.3-1.2c0.4-0.4,0.8-0.8,1.2-1.2c0.2-0.3,0.3-0.6,0.4-0.8c0.1-0.2,0.2-0.5,0.5-0.6c0.5-0.4,1-0.6,1.6-0.6
		c0.6,0,1.2,0,1.8,0.1c0.5,0.2,0.9,0.4,1.3,0.8c0.3,0.2,0.4,0.5,0.5,0.7C120.7,46,120.8,46.4,120.9,47z"/>
	<path class="st0" d="M134.3,45.6c0,0.4,0,0.7-0.3,0.9c-0.2,0.3-0.4,0.6-0.7,0.9c-0.2,0.5-0.3,1-0.3,1.6c0,0.6-0.2,1.2-0.5,1.8
		c-0.1,0.2-0.1,0.3-0.2,0.4c0,0.1-0.1,0.2-0.1,0.4c0,0.1,0,0.2-0.1,0.4c0,0.2-0.1,0.3-0.2,0.4c-0.1,0.4-0.2,0.6-0.4,0.8
		c-0.2,0.2-0.3,0.4-0.4,0.6c0,0.5,0,0.8-0.1,0.9c-0.1,0.6-0.4,1.2-0.8,1.9c-0.4,0.7-0.6,1.4-0.4,2.1c0.9-0.2,1.7-0.4,2.5-0.5
		c0.8-0.2,1.5-0.5,2.3-1c0.6-0.4,1.5-0.9,2.5-1.5c1-0.5,2-1,2.8-1.5c0.4-0.2,0.7-0.3,0.9-0.5s0.5-0.3,0.8-0.6
		c0.2-0.1,0.4-0.2,0.6-0.3c0.2-0.1,0.4-0.2,0.6-0.4c0.2-0.1,0.5-0.2,0.8-0.4c0.3-0.2,0.7-0.4,1-0.6c0.1,0,0.1-0.1,0.1-0.2
		c0-0.1,0-0.2,0-0.2c0.2-0.1,0.4-0.2,0.7-0.2c0.3-0.1,0.5-0.2,0.8-0.5c0.2-0.1,0.5-0.2,0.8-0.4c0.4-0.2,0.8-0.4,1.2-0.6
		c0.3-0.1,0.5-0.3,0.7-0.4c0.2-0.2,0.4-0.2,0.6-0.2c0.2,0.4,0.2,0.8,0.1,1.3c-0.1,0.5-0.2,1-0.3,1.5c-0.1,0.3-0.2,0.5-0.5,0.7
		c-0.2,0.2-0.5,0.5-0.7,0.8c-0.6,0.5-1.2,1-2,1.6c-0.7,0.6-1.5,1.2-2.2,1.7c-0.4,0.3-0.8,0.6-1.1,0.8c-0.4,0.2-0.8,0.5-1.3,0.8
		c-0.6,0.5-1.4,1-2.5,1.6c-0.1,0-0.2,0.1-0.3,0.1c-0.1,0-0.3,0.1-0.4,0.2c-0.3,0.4-0.5,0.6-0.6,0.7c-0.2,0-0.4,0.1-0.6,0.1
		c-0.2,0-0.5,0.1-0.8,0.2c-0.1,0-0.2,0-0.2,0.1c-0.1,0.1-0.3,0.2-0.6,0.4c-0.6,0.2-1.1,0.3-1.6,0.4c-0.4,0.1-0.9,0.1-1.3,0.1
		c-0.9,0-2-0.2-3.1-0.7c-0.6-0.2-1.2-0.5-1.7-0.7c-0.5-0.3-1-0.6-1.3-0.9c-0.4-0.4-0.7-0.9-0.9-1.6c-0.2-0.7-0.3-1.5-0.3-2.3
		c0-0.5,0.1-1,0.2-1.6c0.1-0.6,0.3-1.2,0.4-1.8c0.1-0.4,0.2-0.9,0.3-1.4c0.1-0.5,0.2-1,0.5-1.4c0-0.1,0-0.2,0.1-0.3
		c0.1-0.1,0.2-0.3,0.2-0.5c0.2-0.6,0.5-1.4,0.9-2.2c0.4-0.9,0.8-1.6,1.3-2.2c0.8-0.4,1.7-0.5,2.7-0.1
		C133,44.7,133.8,45.2,134.3,45.6z M136.6,37.4c0,0.5-0.1,1-0.4,1.5c-0.3,0.5-0.5,0.9-0.7,1.3c-0.2,0-0.4,0-0.5,0
		c-0.1-0.1-0.2-0.1-0.4-0.1c-0.4,0-0.8-0.2-1-0.4c-0.2-0.2-0.5-0.5-0.9-1c-0.7-0.4-1-0.8-1-0.9c0-0.6,0.2-1,0.5-1.1
		c0.3-0.2,0.7-0.2,1.2-0.2c0.5,0.1,1,0.2,1.6,0.4C135.6,37.1,136.1,37.2,136.6,37.4z"/>
	<path class="st0" d="M174.4,50.2c0.4-0.1,0.6-0.1,0.7,0c0.1,0.1,0.2,0.2,0.2,0.3c0,0.2-0.1,0.4-0.3,0.6c-0.2,0.3-0.4,0.6-0.7,1
		c-0.2,0.4-0.5,0.7-0.7,0.9c-0.2,0.2-0.4,0.3-0.5,0.4c-0.1,0.1-0.2,0.1-0.3,0.2c-0.1,0.1-0.2,0.1-0.3,0.2c-0.1,0.1-0.3,0.2-0.6,0.4
		c-0.1,0.1-0.2,0.1-0.3,0.2c-0.1,0-0.1,0-0.2,0.1c-0.1,0-0.2,0.1-0.3,0.1c-0.1,0.1-0.3,0.2-0.6,0.3c-0.4,0.3-1,0.5-1.8,0.8
		c-0.7,0.3-1.5,0.5-2.2,0.6c-0.6,0.3-1,0.5-1.4,0.6c-0.4,0.2-0.7,0.3-1,0.5c-0.3,0.2-0.5,0.3-0.5,0.3c0.1,0.5,0.1,0.8,0,1
		c-0.1,0.2-0.2,0.5-0.3,1c0,0.2-0.1,0.4-0.1,0.5c0,0.2-0.1,0.4-0.3,0.5c0,0-0.1,0.1-0.1,0.2c0,0.1-0.1,0.1-0.2,0.2l-1.3,1.3
		c-0.3,0.4-0.6,0.7-0.9,0.9c-0.3,0.2-0.6,0.5-0.8,0.8c-0.6,0.2-1.1,0.5-1.7,0.8c-0.5,0.3-1.2,0.6-1.9,0.9c-0.5,0.1-1.1,0.3-1.7,0.4
		c-0.6,0.1-1.4,0.2-2.2,0.1c-0.4-0.1-0.6-0.2-0.8-0.3c-0.2-0.1-0.5-0.3-0.9-0.5c-0.4-0.3-0.8-0.6-1.3-0.9c-0.5-0.3-0.8-0.6-1-1.1
		c0-0.2,0-0.3,0.1-0.4c0-0.1,0.1-0.2,0.2-0.4c0.1-0.1,0.2-0.3,0.3-0.6c0.1-0.3,0.3-0.4,0.5-0.5c0-0.1,0.1-0.1,0,0c0,0.1,0,0.1,0,0
		c0.1,0,0.2-0.1,0.3-0.2c0.2-0.5,0.5-0.9,0.9-1.2c0.4-0.3,0.8-0.7,1.1-1.1c0.8-0.8,1.9-1.5,3-2.3c1.2-0.8,2.2-1.4,3.1-1.9
		c-0.4-0.7-0.8-1.1-1.2-1.4c-0.4-0.2-0.7-0.7-0.9-1.3c-0.3-0.3-0.5-0.6-0.6-0.8c-0.1-0.2-0.3-0.5-0.6-0.8c-0.2-0.3-0.4-0.6-0.5-0.8
		c-0.1-0.2-0.2-0.4-0.3-0.6c-0.1-0.2-0.1-0.4-0.1-0.5c-0.1,0.2-0.3,0.3-0.4,0.4c-0.1,0.1-0.3,0.2-0.4,0.3c-0.1,0.1-0.3,0.2-0.5,0.4
		c-0.2,0.2-0.4,0.4-0.7,0.7c-0.2,0.2-0.4,0.3-0.6,0.5c-0.2,0.2-0.5,0.4-1,0.7c-0.3,0.2-0.6,0.4-0.9,0.7s-0.6,0.4-1,0.5
		c-0.7,0.2-1.2,0.1-1.6-0.2c-0.4-0.3-0.7-0.6-0.8-0.8c0.3-0.2,0.6-0.4,0.8-0.6c0.2-0.2,0.4-0.3,0.6-0.4c0.2-0.1,0.3-0.3,0.5-0.4
		c0.2-0.1,0.3-0.3,0.6-0.4c0.8-0.6,1.4-1.1,1.9-1.7c0.5-0.6,1-1.1,1.6-1.5l1.1-0.9l0.6-0.8c0.1-0.1,0.2-0.2,0.3-0.4
		c0.1-0.2,0.2-0.3,0.2-0.5c0.2,0,0.2,0,0.2,0.1c0,0.1,0,0.1,0.2,0c0-0.1,0.1-0.3,0.2-0.5c0.1-0.2,0.2-0.4,0.4-0.6l0.4,0.3
		c0.1-0.2,0.2-0.4,0.2-0.6c0-0.2,0.1-0.4,0.3-0.6c0-0.3,0.2-0.5,0.5-0.7c0.3-0.1,0.5-0.3,0.7-0.5c0.2-0.4,0.5-0.6,0.8-0.7
		c0.3-0.1,0.5-0.3,0.6-0.7c0.1,0,0.1-0.1,0-0.2c-0.1-0.1-0.1-0.2,0-0.2c0.5,0,1,0,1.4,0.1l0.1,0.3c0,0,0.1-0.1,0.3-0.2
		c0.1-0.1,0.3,0,0.5,0.1c0.4,0.4,1,0.8,1.7,1.1c0.7,0.3,1.3,0.7,1.9,1.1c0,0.3-0.1,0.5-0.2,0.6c-0.1,0.1-0.1,0.3,0.1,0.4
		c0,0.3,0,0.5-0.2,0.5c-0.2,0-0.4,0.1-0.6,0.2c-0.4,0.6-1.2,1.2-2.2,1.7c-1,0.5-1.9,1.1-2.7,1.6c-0.3,0.2-0.6,0.4-0.7,0.6
		c-0.2,0.2-0.3,0.4-0.4,0.7c-0.2,0.4-0.2,0.8-0.1,1.2c0.1,0.4,0.3,0.7,0.6,1c0.3,0.3,0.6,0.6,1,0.9c0.4,0.3,0.7,0.6,1,0.9h0.1
		c0.3,0.3,0.6,0.7,1,1c0.3,0.4,0.6,0.7,0.8,1c1-0.1,2.1-0.4,3.3-0.7c0.6-0.1,1.2-0.2,1.8-0.4c0.6-0.2,1.1-0.3,1.6-0.6l1.7-0.3
		c0.5-0.3,1.1-0.6,1.8-0.9c0.6-0.3,0.9-0.4,0.9-0.4c0,0,0.1-0.1,0.3-0.1c0.1,0,0.2-0.1,0.3-0.1c0.1,0,0.2-0.1,0.4-0.2L174.4,50.2z
		 M153.8,62.6c1-0.3,2-0.7,2.9-1.1s1.5-1.1,1.9-2c-0.6,0.1-1.2,0.4-1.6,0.8c-0.5,0.4-0.9,0.7-1.3,1c-0.4,0.2-0.8,0.4-1.1,0.6
		C154.2,62,154,62.2,153.8,62.6z"/>
	<path class="st0" d="M198.4,49.1c0.4,0.1,0.6,0.4,0.7,0.9c0.1,0.5,0,1-0.5,1.5c-0.1,0.2-0.2,0.5-0.4,0.8c-0.2,0.3-0.4,0.5-0.6,0.8
		c-0.1,0.1-0.3,0.2-0.5,0.4c-0.2,0.2-0.4,0.3-0.4,0.4c-0.1,0-0.3,0.2-0.6,0.5c-0.2,0.3-0.4,0.4-0.5,0.5c-0.1,0-0.3,0.2-0.6,0.4
		c-0.3,0.2-0.6,0.4-0.7,0.5c-0.5,0.2-0.8,0.4-0.9,0.6c-0.1,0.2-0.4,0.5-0.8,0.8c-0.3,0.1-0.7,0.2-1.1,0.4c-0.4,0.2-0.7,0.3-0.9,0.6
		c-0.3,0.2-0.6,0.3-0.9,0.3s-0.5,0.2-0.7,0.5c-0.3,0-0.6,0-0.9,0.2c-0.3,0.2-0.7,0.3-1.1,0.4c-0.2,0.1-0.5,0.2-0.8,0.2
		c-0.3,0-0.6,0.1-0.8,0.1c-1,0.4-2,0.7-3.1,0.7c-0.6,0.1-1.3,0.1-2.1,0c-0.1,0-0.3-0.1-0.4-0.1c-0.1,0-0.2,0-0.4,0
		c-0.4-0.2-0.8-0.3-1.2-0.3c-0.4,0-0.8-0.1-1.2-0.2c0,0-0.2-0.1-0.4-0.2c-0.2-0.1-0.5-0.2-0.8-0.3c-0.3-0.1-0.5-0.2-0.8-0.3
		c-0.2-0.1-0.4-0.2-0.4-0.2c-0.2-0.1-0.4-0.3-0.6-0.5c-0.2-0.2-0.3-0.5-0.5-0.8c-0.2-0.3-0.3-0.6-0.5-0.8c-0.2-0.2-0.4-0.4-0.5-0.6
		c-0.1,0-0.2-0.1-0.3,0c-0.1,0-0.2,0-0.3,0c-0.1-0.1-0.2-0.2-0.3-0.4c-0.1-0.2-0.1-0.3-0.2-0.4c-0.1-0.4,0-0.8,0.1-1.1
		c0.2-0.3,0.2-0.6,0.1-0.8c0.1,0,0.2-0.1,0.3-0.1c0.1,0,0.2-0.1,0.3-0.2c-0.3-0.2-0.4-0.5-0.4-1c0-0.4,0.1-0.9,0.3-1.3
		c0.2-0.4,0.3-0.9,0.5-1.3c0.2-0.4,0.3-0.7,0.4-0.9c0-0.3,0.1-0.5,0.1-0.7c0-0.2,0-0.3,0.1-0.5c0.1-0.1,0.2-0.3,0.4-0.4
		c0.2-0.1,0.3-0.2,0.4-0.3c0.1-0.4,0.2-0.7,0.5-1c0.2-0.4,0.6-0.9,1-1.4c0.4-0.5,0.9-1,1.4-1.5c0.2-0.3,0.4-0.5,0.7-0.7
		c0.3-0.2,0.6-0.5,0.9-0.8c0.4-0.1,0.6-0.3,0.9-0.4c0.2-0.2,0.5-0.3,0.8-0.6c0.7-0.5,1.4-0.8,2.1-0.7c0.8,0,1.4,0.1,2.1,0.3
		c0.2,0,0.4,0.2,0.4,0.3c0.1,0.2,0.2,0.3,0.3,0.3c0.1,0.1,0.2,0.1,0.2,0c0.1-0.1,0.2-0.1,0.3-0.1c0.3,0.1,0.6,0.2,0.9,0.4
		c0.4,0.2,0.7,0.4,1,0.6c0.3,0.2,0.6,0.4,0.9,0.7c0.2,0.2,0.4,0.4,0.4,0.6c0,0.1,0.1,0.2,0.2,0.3c0.1,0.1,0.2,0.2,0.2,0.3
		c0.2,0.6,0.2,1.1,0,1.4c-0.2,0.3-0.3,0.6-0.4,0.9c-0.4,0.4-0.7,0.7-1,0.9c-0.3,0.2-0.5,0.5-0.8,0.8c0,0.1-0.1,0.2-0.4,0.4
		c-0.2,0.2-0.4,0.3-0.4,0.5c-0.4,0.3-0.8,0.6-1.2,0.8c-0.5,0.2-0.9,0.5-1.3,0.9c0,0.1-0.2,0.2-0.3,0.3c-0.2,0.1-0.4,0.2-0.6,0.4
		c-0.3,0.2-0.6,0.4-0.9,0.5c-0.1,0.1-0.2,0.2-0.4,0.2c-0.2,0-0.3,0.1-0.4,0.2c-0.1,0.1-0.3,0.3-0.5,0.5c-0.2,0.2-0.5,0.4-0.9,0.6
		c-0.1,0.1-0.2,0.1-0.3,0.1c-0.1,0-0.2,0-0.3,0.1c-0.2,0.1-0.4,0.2-0.7,0.5c-0.2,0.2-0.5,0.3-0.8,0.3c-0.1,0.2-0.2,0.4-0.2,0.8
		c-0.1,0.4-0.1,0.7,0,1.1c0.1,0.4,0.2,0.8,0.5,1.1c0.2,0.3,0.7,0.5,1.2,0.6c0.1,0,0.3,0,0.7,0.1c0.4,0.1,0.6,0.2,0.7,0.3
		c0.7,0,1.5,0,2.4-0.2c0.9-0.2,1.7-0.3,2.4-0.4c1.7-0.4,3.3-1,4.9-1.7c1.6-0.8,3-1.5,4.2-2.3c0.2-0.2,0.4-0.3,0.4-0.3
		c0.1,0,0.2-0.1,0.4-0.2c0.2-0.1,0.4-0.3,0.8-0.5c0.4-0.2,0.7-0.5,1-0.8c0.3-0.3,0.6-0.6,0.9-0.9C198.3,49.7,198.4,49.4,198.4,49.1z
		 M179.3,49.8c0.8-0.4,1.5-0.9,2.1-1.5c0.7-0.6,1.4-1.2,2.1-1.7c0.3-0.2,0.5-0.5,0.8-0.7c0.3-0.3,0.5-0.5,0.6-0.7
		c0.1-0.2,0.1-0.4,0.1-0.5c0-0.2-0.1-0.3-0.1-0.3c-0.1,0-0.3-0.1-0.4-0.1c0,0-0.1,0-0.1,0.1c-1.1,0.6-2.1,1.4-3,2.4s-1.8,2-2.5,3
		c0,0.1,0,0.2,0.1,0.2C179.1,49.8,179.2,49.8,179.3,49.8z"/>
</g>
<g id="XMLID_8_">
	<g id="XMLID_9_">
		<path class="st0" d="M84.4,72.2c6.5-0.2,13-0.4,19.6-0.5c6.5-0.2,13.3-0.2,20.2-0.2c1,0,2.2,0,3.6,0c1.4,0,2.7,0.1,4,0.1
			c1.3,0,2.6,0,3.8,0c1.2,0,2.2-0.1,2.9-0.2c0-0.1,0.7-0.1,2.1,0c1.4,0.1,2.1,0.1,2.3,0c0.4,0.1,1,0.1,1.7,0.2
			c0.7,0,1.3,0.1,1.7,0.1c0-0.1-0.2-0.1-0.6-0.1c-0.4,0-0.5,0-0.2-0.2c1,0.1,2,0.2,3,0.1c0.3,0.2,1,0.3,2.3,0.2c1.2,0,2.2,0,2.9,0
			c-0.3,0-0.6-0.1-1.1,0c-0.4,0-0.5-0.1-0.2-0.2c2,0.1,4,0.1,5.8,0.2c1.9,0.1,3.8,0.2,5.8,0.2c1.6,0.1,3.1,0.1,4.4,0.2
			c1.4,0.1,2.8,0.1,4.2,0.2l10.1,0.4c0.7,0,1.6,0,2.6-0.1c1-0.1,1.8-0.1,2.4-0.1c0.1,0.2,0,0.5-0.3,0.8c-0.3,0.3-0.8,0.6-1.3,0.9
			c-0.5,0.3-1.1,0.6-1.8,0.8c-0.7,0.3-1.4,0.4-2.1,0.5c-0.7,0.2-1.6,0.3-2.5,0.3c-0.9,0-1.9,0.1-2.9,0c-1,0-2-0.1-2.9-0.1
			c-0.9,0-1.8,0-2.5,0c-0.9,0.1-1.8,0.1-2.8,0.1c-1,0-2.1,0-3.1-0.1c-1.1,0-2.1-0.1-3-0.1c-0.9,0-1.8,0-2.7,0
			c-0.4,0-1.1,0.1-2.1,0.1c-0.9,0-1.9,0-2.8,0c-0.9,0-1.8,0-2.5,0c-0.7,0-1.1,0.1-1.1,0.3c-1-0.1-1.5-0.1-1.6-0.1
			c-0.1,0-0.4,0.1-1,0.1c-0.4,0-0.8,0-1.1-0.1c-0.1,0-0.5,0.1-1.1,0.1c-0.6,0-1.1,0.1-1.5,0c-1.2,0.2-2.3,0.3-3.5,0.1
			c-1.1-0.1-2.3-0.2-3.5-0.1c0.3,0.1,0.6,0.1,0.9,0c0.3-0.1,0.3,0,0,0.1c-0.1,0-0.5-0.1-1.1,0c-0.6,0-1.2,0-2,0
			c-0.7,0-1.3,0.1-1.9,0.1c-0.5,0.1-0.8,0.1-0.8,0.2c-2.4-0.1-4.6-0.2-6.6-0.1c-2,0.1-4.2,0.1-6.6-0.1c-0.1,0.1-0.4,0.1-0.7,0.1
			c-0.3,0-0.6,0.1-0.9,0.1c-1.3-0.1-2.5-0.1-3.7,0c-1.2,0.1-2.3,0-3.5-0.2c0.6,0.1,1.2,0.1,1.9,0.1c0.7,0,0.9,0,0.4-0.1
			c-1.2,0-2.2-0.1-3.1-0.2c-0.9-0.1-2-0.1-3.1-0.1c-1,0-2,0-3,0c-1,0-2.1,0-3.2-0.1c-1.4-0.1-2.6-0.2-3.5-0.1c-0.9,0-2,0-3.2-0.1
			c-1.6-0.1-3.3-0.1-5.1,0c-1.8,0.1-3.5,0.2-5.1,0.1c-1.2,0-2.7-0.1-4.5-0.1c-1.9-0.1-3.2,0-3.9,0.3c-2-0.1-3.9-0.1-5.5,0
			c-1.7,0.1-3.3,0.1-4.9,0.2c-1,0-2.3-0.1-3.8-0.1c-1.5-0.1-2.5,0-2.9,0.1c-0.4,0-1.4,0.1-2.8,0.1c-1.4,0-2.5,0-3.2-0.1
			c-1.4,0-2.9,0.1-4.4,0.2c-1.5,0.1-2.8,0.1-3.9-0.1c1.6,0,3.1-0.1,4.6-0.2c1.5-0.1,3-0.2,4.6-0.3c1.6,0,3.1-0.1,4.6-0.1
			c1.4,0,2.8-0.1,4.1-0.2c0.4,0.1,1.1,0.1,2.1,0.2c1,0,2,0.1,3,0.1c1,0,1.8,0,2.4-0.1c0.6,0,0.7-0.1,0.2-0.2
			c-0.9,0.1-1.6,0.1-2.2-0.1c0,0.2-0.2,0.3-0.7,0.3c-0.4,0-0.9,0-1.5,0c-0.6,0-1.1-0.1-1.6-0.1c-0.5-0.1-0.7-0.1-0.5-0.2
			c-2.9,0.1-6,0.1-9.2,0.1c-3.2-0.1-6.5,0-9.7,0.2c-1.2,0.1-2.3,0.1-3.5,0.2c-1.2,0.1-2.3,0.2-3.3,0.2c-3.5,0.2-7.1,0.3-10.8,0.3
			c-3.7,0.1-7.5,0.1-11.4,0.1c0-0.1,0.4-0.1,1.1-0.1c0.7,0,0.9,0,0.7-0.1c-0.9,0-1.8,0.1-2.8,0.1c-1,0-2,0.1-3,0.1c-1,0-2,0-2.9-0.1
			c-0.9-0.1-1.8-0.2-2.7-0.4c2.8-0.5,5.9-0.8,9.4-1.1c3.5-0.3,6.9-0.5,10.1-0.8c1.7-0.1,3.4-0.2,5-0.2c1.6,0,3.1-0.1,4.6-0.3
			c1.3-0.1,2.8-0.2,4.4-0.4c1.6-0.1,3.2-0.2,4.8-0.1c0.3-0.1,1-0.2,2-0.2c1-0.1,1.7-0.1,2,0c0.7-0.1,1.5-0.1,2.2-0.1
			c0.7,0,1.4,0,2.2,0c0.7,0,1.3-0.1,1.8-0.2c0.4-0.1,1-0.1,1.5-0.1c1.5-0.1,3.1-0.1,4.9,0c1.8,0.1,3.6,0.1,5.3,0.1
			c0.3-0.1,0.4-0.1,0.2-0.1c-0.1,0-0.1,0,0.2-0.1c0.8,0.2,1.6,0.2,2.2,0.1c0.6-0.1,1.3-0.2,2.2-0.1c0.7,0,1.3,0,1.7,0
			c0.4,0.1,1,0.1,1.7,0c0.6,0,1.4-0.1,2.5-0.1c1.1,0,2.2,0,3.3,0c1.1,0,2.1-0.1,3-0.1c0.9,0,1.5-0.1,1.6-0.2c0,0,0,0-0.1,0
			C84.4,72.3,84.4,72.3,84.4,72.2z M62.5,76.1c0-0.1-0.3-0.2-1.1-0.1c-0.7,0.1-1.2,0.1-1.5,0.2c0.4,0.1,0.8,0,1.2,0
			C61.5,76.1,62,76.1,62.5,76.1z M97.9,76.1c0.3,0,0.8,0,1.6,0.1c0.8,0.1,1.3,0.1,1.4,0.1c-0.6,0-1.2,0-1.7,0
			C98.6,76.3,98.2,76.2,97.9,76.1z M105,76.1c0.3,0.1,0.7,0.2,1.4,0.2c0.7,0,1.2,0,1.6,0c-0.3-0.2-0.6-0.2-1.1-0.2
			C106.6,76.1,105.9,76.1,105,76.1z M111.7,76.2c-1.3,0-2.3,0-3-0.1c-0.2,0.1,0.1,0.2,0.7,0.2c0.6,0,1.3,0.1,2.1,0.1
			c0.7,0,1.8,0,3.3,0C114.1,76.3,113.1,76.2,111.7,76.2z M116.1,76.4c1.3,0.1,2.3,0.1,3.1,0.2c0.8,0,1.7,0,2.7,0
			c-0.7-0.2-1.8-0.3-3.3-0.3C117,76.3,116.2,76.4,116.1,76.4z M152.1,71.7c-0.3,0-0.6,0-1.1,0c-0.4,0-0.6,0-0.6-0.1
			c0.1,0.1,0.4,0.1,0.8,0C151.5,71.5,151.8,71.6,152.1,71.7z"/>
	</g>
</g>
<g id="XMLID_6_">
	<path class="st0" d="M29,92.6h6.1v1.8h-2.1v10.7h-2V94.4H29V92.6z"/>
	<path class="st0" d="M37.9,105.2h-2V92.6h2V98h2.2v-5.4h2v12.5h-2v-5.4h-2.2V105.2z"/>
	<path class="st0" d="M45.6,97.9h2.7v1.8h-2.7v3.7H49v1.8h-5.4V92.6H49v1.8h-3.4V97.9z"/>
	<path class="st0" d="M55.6,92.5c1.9,0,2.9,1.1,2.9,3.2V96h-1.9v-0.5c0-0.9-0.4-1.2-1-1.2s-1,0.3-1,1.2c0,2.6,3.9,3.1,3.9,6.6
		c0,2-1,3.2-2.9,3.2s-2.9-1.1-2.9-3.2v-0.8h1.9v0.9c0,0.9,0.4,1.2,1,1.2s1-0.3,1-1.2c0-2.6-3.9-3.1-3.9-6.6
		C52.7,93.6,53.7,92.5,55.6,92.5z"/>
	<path class="st0" d="M59.1,92.6h6.1v1.8h-2.1v10.7h-2V94.4h-2.1V92.6z"/>
	<path class="st0" d="M65.9,95.6c0-2,1.1-3.2,3-3.2s3,1.1,3,3.2v6.5c0,2-1.1,3.2-3,3.2s-3-1.1-3-3.2V95.6z M67.9,102.3
		c0,0.9,0.4,1.2,1,1.2s1-0.3,1-1.2v-6.8c0-0.9-0.4-1.2-1-1.2s-1,0.3-1,1.2V102.3z"/>
	<path class="st0" d="M77.3,105.2c-0.1-0.3-0.2-0.5-0.2-1.5v-2c0-1.2-0.4-1.6-1.3-1.6h-0.7v5.1h-2V92.6h3c2,0,2.9,0.9,2.9,2.9v1
		c0,1.3-0.4,2.1-1.3,2.5c1,0.4,1.3,1.4,1.3,2.7v1.9c0,0.6,0,1.1,0.2,1.5H77.3z M75.1,94.4v3.9h0.8c0.7,0,1.2-0.3,1.2-1.3v-1.2
		c0-0.9-0.3-1.3-1-1.3H75.1z"/>
	<path class="st0" d="M82,101l-2.5-8.4h2.1l1.5,5.7l1.5-5.7h1.9L84,101v4.2h-2V101z"/>
	<path class="st0" d="M89.9,95.6c0-2,1.1-3.2,3-3.2s3,1.1,3,3.2v6.5c0,2-1.1,3.2-3,3.2s-3-1.1-3-3.2V95.6z M91.9,102.3
		c0,0.9,0.4,1.2,1,1.2s1-0.3,1-1.2v-6.8c0-0.9-0.4-1.2-1-1.2s-1,0.3-1,1.2V102.3z"/>
	<path class="st0" d="M99.1,98.2h2.5v1.8h-2.5v5.2h-2V92.6h5.2v1.8h-3.2V98.2z"/>
	<path class="st0" d="M112.5,105.2h-2l-0.3-2.3h-2.4l-0.3,2.3h-1.8l2-12.5h2.9L112.5,105.2z M108,101.2h1.9l-0.9-6.3L108,101.2z"/>
	<path class="st0" d="M119.3,95.5V96c0,1.3-0.4,2.1-1.3,2.5c1.1,0.4,1.5,1.4,1.5,2.7v1c0,1.9-1,3-3,3h-3.1V92.6h3
		C118.4,92.6,119.3,93.6,119.3,95.5z M115.4,94.4v3.3h0.8c0.7,0,1.2-0.3,1.2-1.3v-0.7c0-0.9-0.3-1.3-1-1.3H115.4z M115.4,99.5v3.9
		h1.1c0.7,0,1-0.3,1-1.2V101c0-1.2-0.4-1.5-1.3-1.5H115.4z"/>
	<path class="st0" d="M124.8,105.2c-0.1-0.3-0.2-0.5-0.2-1.5v-2c0-1.2-0.4-1.6-1.3-1.6h-0.7v5.1h-2V92.6h3c2,0,2.9,0.9,2.9,2.9v1
		c0,1.3-0.4,2.1-1.3,2.5c1,0.4,1.3,1.4,1.3,2.7v1.9c0,0.6,0,1.1,0.2,1.5H124.8z M122.6,94.4v3.9h0.8c0.7,0,1.2-0.3,1.2-1.3v-1.2
		c0-0.9-0.3-1.3-1-1.3H122.6z"/>
	<path class="st0" d="M134.2,105.2h-2l-0.3-2.3h-2.4l-0.3,2.3h-1.8l2-12.5h2.9L134.2,105.2z M129.7,101.2h1.9l-0.9-6.3L129.7,101.2z
		"/>
	<path class="st0" d="M137.1,105.2h-2V92.6h2V98h2.2v-5.4h2v12.5h-2v-5.4h-2.2V105.2z"/>
	<path class="st0" d="M149.2,105.2h-2l-0.3-2.3h-2.4l-0.3,2.3h-1.8l2-12.5h2.9L149.2,105.2z M144.7,101.2h1.9l-0.9-6.3L144.7,101.2z
		"/>
	<path class="st0" d="M154.3,101.5l1.3-8.9h2.7v12.5h-1.9v-9l-1.4,9h-1.9l-1.5-8.9v8.9h-1.7V92.6h2.7L154.3,101.5z"/>
</g>
<g id="XMLID_5_">
	<path class="st0" d="M80.6,6c0.5,0.1,1,0.3,1.4,0.5c0.5,0.2,1,0.4,1.4,0.6c0,0.1-0.1,0.2-0.4,0.3s-0.7,0.1-1,0
		c-0.4,0-0.8,0-1.1-0.1c-0.4,0-0.6-0.1-0.7-0.1c-0.5,0.1-1.1,0.2-1.5,0.3c-0.5,0.2-1,0.3-1.5,0.4c-0.2,0.1-0.4,0.1-0.6,0.2
		c-0.2,0.1-0.4,0.1-0.6,0.1c-0.3,0.1-0.6,0.1-0.8,0.1c-0.3,0-0.6,0.1-0.8,0.1l-0.1,0C74,8.8,73.9,9,73.9,9.2
		c-0.1,0.3-0.2,0.6-0.2,0.8c-0.1,0.3-0.1,0.5-0.1,0.8c0.1,0,0.1-0.1,0.2-0.2c0-0.1,0.1-0.2,0.1-0.2c0.1,0,0.1,0,0.1,0
		c0,0,0,0.1,0.1,0.2c0,0.1,0,0.2,0,0.3c0,0.1,0,0.1-0.1,0.2c0,0.1,0,0.3,0,0.5c0,0.2-0.1,0.4-0.1,0.6c0,0.2-0.1,0.4-0.2,0.5
		c-0.1,0.2-0.2,0.3-0.3,0.3c0,0.4-0.1,0.7-0.1,1c-0.1,0.3-0.2,0.6-0.3,1c-0.1,0.4-0.2,0.8-0.2,1.2c0,0.4-0.1,0.8-0.2,1.2
		c-0.1,0.4-0.1,0.8-0.2,1.2c0,0.4-0.1,0.8-0.1,1.2c0,0.4-0.1,0.8-0.2,1.1c-0.1,0.4-0.2,0.7-0.3,1.1c-0.1,0-0.1-0.1-0.1-0.2
		c0-0.1,0-0.2,0-0.2c-0.2,0.2-0.2,0.5-0.2,0.8c0,0.3,0,0.6,0,0.9c0.1-0.1,0.1-0.2,0.1-0.4c0-0.2,0-0.3,0.1-0.4c0,0,0.1,0,0.1-0.1
		c0-0.1,0-0.1,0-0.1c0,0,0,0,0,0.1c0,0.1,0,0.2,0,0.3s0,0.2,0,0.4c0,0.1,0,0.2,0,0.3c0,0.2-0.1,0.4-0.1,0.7
		c-0.1,0.2-0.1,0.4-0.2,0.6c-0.1,0.2-0.1,0.5-0.1,0.7c0,0.2-0.1,0.4-0.1,0.6c0,0.2-0.1,0.5-0.2,0.7c-0.1,0.2-0.2,0.4-0.2,0.6
		c0,0.2-0.1,0.3-0.1,0.4c0,0-0.1,0.1-0.2,0.3c-0.1,0.1-0.2,0.1-0.3,0.2c-0.1,0.1-0.2,0.1-0.3,0c-0.2-0.1-0.4-0.3-0.5-0.6
		c-0.2-0.3-0.3-0.6-0.3-0.8c0-0.2-0.1-0.3,0-0.5c0-0.2,0-0.3-0.1-0.4c-0.1-0.2-0.1-0.3,0-0.5c0-0.2,0-0.3,0-0.4
		c-0.1-0.1-0.1-0.3-0.1-0.5c0-0.2-0.1-0.4-0.1-0.5c0-0.2-0.1-0.4,0-0.6c0-0.2,0-0.4,0-0.6c0-0.1-0.1-0.3-0.1-0.6c0-0.3,0-0.7,0-1
		c0-0.4,0-0.7,0.1-1s0-0.5,0.1-0.7c0.1-0.3,0.1-0.5,0.2-0.7c0-0.2,0.1-0.4,0.1-0.7c0-0.4,0-0.9,0-1.4c0-0.5,0.1-0.9,0.2-1.4l0-1.4
		c0-0.1,0-0.4,0.1-0.7c0-0.3,0.1-0.7,0.1-1c0-0.4,0.1-0.7,0.1-1c0.1-0.3,0.1-0.5,0.1-0.6c0.1-0.2,0.1-0.4,0.2-0.5
		c0-0.1,0-0.2-0.1-0.3c-0.2,0.1-0.4,0.1-0.6,0.2c-0.2,0.1-0.4,0.1-0.6,0.2l-0.1,0c-0.4,0-0.7,0-1.1,0.1c-0.3,0.1-0.7,0.1-1,0.1
		c-0.5,0-1-0.1-1.5-0.2c-0.7-0.2-1.3-0.5-1.8-1c-0.5-0.5-1-1-1.4-1.6l-0.4-0.9c-0.1-0.1-0.2-0.3-0.2-0.4c0-0.2,0-0.3,0.2-0.4
		c0.1-0.1,0.2-0.2,0.4-0.2c0.1,0,0.3,0.1,0.3,0.2c0.2,0.2,0.4,0.4,0.8,0.3c0.4-0.1,0.8-0.1,1.1-0.2c0.4-0.1,0.7-0.1,1.1-0.2
		c0.4-0.1,0.8-0.1,1.2-0.1c0.4,0,0.8-0.1,1.3-0.1c0.2,0,0.4,0,0.6,0c0.2,0.1,0.4,0.1,0.6,0.2c0.2,0,0.4,0,0.6-0.1
		c0.2,0,0.4,0,0.6-0.1c0.2,0.1,0.3,0,0.5,0l0.6,0c0-0.2,0-0.3,0.1-0.3c0,0,0.1-0.1,0.1-0.3c0.1-0.1,0.1-0.3,0.1-0.4s0-0.3,0.1-0.4
		c0-0.1,0.1-0.2,0.2-0.3c0.1-0.1,0.2,0,0.4,0c0.2,0.1,0.4,0.1,0.6,0.1S73,3.8,73.2,4c0.3,0.1,0.5,0.1,0.6,0.2
		C73.9,4.4,74,4.6,74,4.9c0.1,0,0.3,0.1,0.5,0.1c0.2,0.1,0.4,0.1,0.5,0c0.5,0,1,0.1,1.4,0.2c0.4,0.1,0.9,0.1,1.4,0.2
		c0.5,0,1,0.1,1.5,0.2C79.7,5.7,80.1,5.8,80.6,6z M72.7,17.7c0-0.3,0.1-0.6,0.1-0.9c0-0.3,0.1-0.6,0.2-0.9c0,0.1,0.1,0.2,0.1,0.3
		c0,0.1,0,0.3,0,0.4c0,0.1-0.1,0.3-0.1,0.4s0,0.2-0.1,0.3c0,0.3,0,0.7-0.1,0.9c0,0.3-0.1,0.6-0.2,0.9c-0.1-0.2-0.1-0.4,0-0.7
		C72.7,18.2,72.7,18,72.7,17.7z"/>
	<path class="st0" d="M99.9,21.4c0.1,0,0.1,0,0.1,0.1s0,0.2,0,0.3c0,0.1,0,0.2,0,0.3s0,0.2,0,0.2l-1.1,0.9L98,24.2
		c-0.2,0.1-0.4,0.2-0.5,0.3c-0.1,0.2-0.4,0.4-0.7,0.7c-0.1,0.1-0.2,0.2-0.4,0.3c-0.2,0.2-0.3,0.3-0.5,0.5c-0.2,0.2-0.4,0.3-0.5,0.5
		c-0.2,0.1-0.3,0.2-0.4,0.3c0,0-0.1,0.1-0.2,0.2c-0.1,0.1-0.2,0.2-0.3,0.3s-0.2,0.2-0.3,0.3c-0.1,0.1-0.2,0.1-0.2,0.2
		c-0.2,0.1-0.5,0.2-0.9,0.3c-0.2,0.1-0.4,0.2-0.7,0.3c-0.2,0.1-0.5,0.1-0.8,0.1c-0.4,0-0.8-0.1-1.2-0.3c-0.2-0.2-0.5-0.4-0.9-0.7
		c-0.3-0.3-0.6-0.5-0.7-0.9c-0.1-0.1-0.1-0.3-0.2-0.5c-0.1-0.2-0.1-0.4-0.1-0.6c0-0.1,0-0.2,0-0.2s-0.1-0.1-0.1-0.2c0,0-0.1,0,0-0.1
		c0,0,0-0.1,0-0.1c0-0.1,0-0.1,0-0.1c0,0,0-0.1,0-0.1v0c0,0,0-0.1,0-0.1c0,0,0-0.1,0-0.1c0-0.4,0-0.8,0.1-1.2
		c0.1-0.4,0.2-0.8,0.3-1.2c0.1-0.4,0.3-0.8,0.4-1.2s0.2-0.8,0.2-1.2c-0.2,0.1-0.4,0.2-0.5,0.3c-0.1,0.1-0.2,0.1-0.3,0.2
		c-0.1,0.1-0.2,0.1-0.2,0.2c-0.1,0.1-0.2,0.2-0.4,0.4c-0.2,0.1-0.4,0.2-0.6,0.4c-0.2,0.1-0.4,0.3-0.5,0.5c-0.1,0-0.1,0.1-0.2,0.2
		s-0.2,0.2-0.2,0.3l-0.2,0.2c-0.1,0.1-0.1,0.2-0.2,0.2c0,0.1-0.1,0.1-0.2,0.1c-0.1,0.1-0.2,0.2-0.3,0.3s-0.2,0.2-0.3,0.3
		c0,0.1-0.1,0.1-0.2,0.1c-0.1,0-0.1,0.1-0.2,0.2c-0.2,0.2-0.5,0.4-0.7,0.7c-0.3,0.3-0.5,0.6-0.7,0.8l-0.6,0.7
		c-0.1,0.1-0.2,0.2-0.3,0.3c-0.1,0.1-0.2,0.3-0.4,0.5c-0.1,0-0.2,0-0.3-0.1c-0.1-0.1-0.2-0.2-0.2-0.3c-0.4,0-0.9-0.2-1.3-0.6
		l-0.2-0.1l0.1-0.1c-0.3-0.2-0.5-0.5-0.4-0.8c-0.1-0.2-0.2-0.4-0.3-0.5c-0.1-0.1-0.1-0.3-0.1-0.5c0-0.1,0-0.1,0-0.2c0,0,0-0.1,0-0.2
		v-0.1c0,0-0.1,0-0.2,0.1c-0.1,0.1-0.2,0.2-0.3,0.3c-0.2,0.1-0.3,0.1-0.4,0.2c-0.1,0.1-0.3,0.1-0.5,0.1c-0.1,0-0.2,0-0.3,0
		c-0.1,0-0.2-0.1-0.3-0.1c-0.1-0.1-0.1-0.1-0.2-0.2c0-0.1,0-0.1,0-0.1c0.1,0,0.2-0.1,0.4-0.2c0.2-0.1,0.3-0.3,0.5-0.4
		c0.2-0.1,0.3-0.3,0.5-0.4c0.1-0.1,0.3-0.2,0.3-0.3l0.7-0.9l0.3-0.8l0.1-0.2c0-0.1,0-0.1,0.1-0.1c0,0,0,0,0.1,0c0,0,0,0,0.1,0
		c0,0,0,0,0.1-0.1c0,0,0,0.1,0,0.3l0.2-0.4c0.1-0.2,0.2-0.5,0.3-0.7c0.1-0.3,0.1-0.5,0.2-0.8c-0.2,0.1-0.3,0.3-0.4,0.5
		c-0.1,0.2-0.2,0.5-0.3,0.6c0,0,0-0.1,0-0.1c0,0,0-0.1,0-0.1c0.1-0.2,0.1-0.4,0.3-0.7c0.1-0.3,0.2-0.5,0.3-0.8l0.2-0.7
		c0,0,0.1-0.1,0.1-0.1c0-0.1,0.1-0.2,0.2-0.4c0.1-0.2,0.1-0.4,0.2-0.5c0-0.1,0.1-0.2,0.2-0.3c0.1-0.1,0.1-0.2,0.2-0.3
		c0.1-0.4,0.3-0.7,0.4-1c0.2-0.3,0.3-0.5,0.4-0.8c0.1-0.3,0.3-0.5,0.4-0.8c0.1-0.3,0.3-0.6,0.4-1c0-0.1,0-0.1,0-0.2
		c0-0.1,0-0.1,0.1-0.2c0-0.1,0.1-0.1,0.1-0.2c0.1-0.1,0.1-0.1,0.2-0.2l0.2-0.3c0.1-0.2,0.2-0.4,0.3-0.5c0.1-0.2,0.2-0.3,0.4-0.5
		c0,0,0-0.1,0-0.1c0,0,0-0.1,0-0.2c0,0,0.1-0.1,0.1-0.1c0.1,0,0.1-0.1,0.1-0.1c0,0,0.1-0.1,0-0.1c0,0,0-0.1,0-0.1
		c0.1-0.2,0.2-0.3,0.3-0.5c0.1-0.1,0.2-0.3,0.3-0.5c0.1-0.1,0.1-0.1,0.1-0.2l0.2-0.2c0-0.1,0.1-0.1,0.2-0.2c0.1-0.1,0.1-0.1,0.2-0.2
		c0.1-0.2,0.2-0.3,0.4-0.5c0.2-0.1,0.2-0.3,0.3-0.5C86.9,6,87,6,87,6s0.1-0.1,0.1-0.1c-0.1-0.1-0.1-0.2,0-0.3
		c0.1-0.1,0.3-0.1,0.4-0.2c0.1-0.1,0.2-0.3,0.3-0.3C87.9,5,88,4.9,88,4.9c0.1,0,0.1,0,0,0c-0.1,0-0.1,0,0-0.1c0.1,0,0.1,0,0.2,0
		c0,0,0.1-0.1,0.1-0.1c0.2-0.1,0.3-0.2,0.5-0.3s0.3-0.2,0.4-0.2C89.3,4,89.4,4,89.5,3.9c0.1-0.1,0.3-0.1,0.4-0.2c0,0,0,0,0.1,0
		c0.1,0,0.2-0.1,0.3-0.1c0.1,0,0.3-0.1,0.5-0.2c0.2-0.1,0.4-0.1,0.5,0c0.1,0.1,0.2,0.2,0.3,0.3C91.8,3.8,91.9,3.9,92,4
		c0.1,0.1,0.3,0.2,0.5,0.2c0.1,0.2,0.3,0.4,0.5,0.5s0.5,0.2,0.7,0.3c0,0,0.1,0,0.1,0c0,0,0.1,0,0.1,0.1c0.1,0,0.1,0.1,0.2,0.2
		c0.1,0.1,0.2,0.2,0.2,0.3c0.1,0.3,0.1,0.6,0.1,1s-0.1,0.7-0.2,0.9c0,0.1-0.1,0.3-0.2,0.5C94.1,8.3,94,8.4,94,8.6
		c0,0.1-0.1,0.1-0.1,0.2c0,0,0,0.1,0,0.2c-0.1,0-0.2,0.1-0.2,0.1v0c0,0,0,0,0,0.1c0,0.1-0.1,0.2-0.2,0.3c-0.1,0.1-0.1,0.2-0.2,0.4
		c0,0.1-0.1,0.2-0.2,0.3c-0.1,0.1-0.2,0.2-0.2,0.3c-0.1,0.1-0.2,0.2-0.2,0.4c-0.1,0.2-0.2,0.4-0.4,0.6c0,0-0.1,0.1-0.1,0.2
		c0,0.1-0.1,0.2-0.2,0.2c0,0,0,0.1-0.1,0.1c0,0-0.1,0.1-0.1,0.1c-0.2,0.3-0.4,0.6-0.7,0.8c-0.3,0.3-0.6,0.5-0.8,0.8
		c-0.1,0.1-0.2,0.2-0.2,0.3c-0.1,0.1-0.1,0.2-0.2,0.3c0,0.1-0.1,0.1-0.2,0.1c-0.1,0-0.1,0.1-0.2,0.1l-0.8,0.8
		c-0.1,0.1-0.1,0.2-0.2,0.2c0,0-0.1,0.1-0.3,0.1c-0.1,0.1-0.2,0.2-0.2,0.2c-0.1,0.1-0.1,0.2-0.2,0.3c0,0-0.1,0-0.1,0
		c-0.1,0-0.1,0-0.2,0.1c-0.1,0.1-0.1,0.1-0.2,0.2c-0.1,0.1-0.1,0.2-0.2,0.2c-0.1,0.1-0.3,0.3-0.4,0.3c-0.1,0.1-0.3,0.2-0.4,0.4
		l-0.3,0.4c-0.1,0-0.2,0.1-0.2,0.1c-0.1,0-0.1,0.1-0.2,0.2l-0.4,0.5l-0.9,0.8c-0.1,0-0.1,0.1-0.2,0.1c0,0.1-0.1,0.1-0.1,0.1
		c-0.2,0.1-0.3,0.2-0.4,0.4c-0.1,0.2-0.2,0.3-0.3,0.3l-0.4,0.9c0,0.1-0.1,0.1-0.1,0.2c0,0.1,0,0.1,0,0.2c0,0.1,0,0.1,0,0.2
		c0,0,0,0.1,0,0.2c0,0.1-0.1,0.2-0.1,0.3c0.2,0,0.4-0.1,0.5-0.2c0.1-0.1,0.3-0.2,0.4-0.4c0.4-0.4,0.8-0.7,1.2-1
		c0.4-0.3,0.8-0.6,1.3-1c0.3-0.2,0.7-0.4,1.1-0.6s0.8-0.5,1.2-0.6c0.2-0.1,0.4-0.1,0.5-0.1c0.1,0,0.2,0,0.3,0c0.1,0,0.2,0,0.3,0
		c0.1,0,0.3,0,0.6,0c0.2,0,0.5,0,0.9,0c0.4,0.1,0.7,0.1,0.8,0.3c0.1,0.1,0.1,0.2,0.1,0.4s0.1,0.3,0.1,0.5c0,0.3,0.1,0.5,0.1,0.5
		c0,0.1,0,0.2-0.1,0.4c0,0.4-0.1,0.7-0.2,1c0,0.1,0,0.2,0,0.2c0,0.1,0,0.2-0.1,0.3v0c0,0,0,0,0,0c0,0,0,0,0,0c0,0,0,0.1,0,0.1
		c0,0,0,0,0,0.1c0,0,0,0.1,0,0.2v0c0,0,0,0,0,0s0,0,0,0c0,0,0,0,0,0.1c0,0.1,0,0.2-0.1,0.2v0.2c0,0,0,0.1-0.1,0.1l-0.3,1.2v0.1
		c0,0.3-0.1,0.5-0.2,0.8c-0.1,0.3-0.2,0.6-0.2,0.8L90.9,26c-0.1,0.2-0.1,0.5-0.2,0.7s0,0.5,0,0.7c0.3,0.1,0.5,0.1,0.7,0
		c0.2-0.1,0.4-0.2,0.7-0.3c0.2-0.1,0.4-0.2,0.6-0.3c0.2-0.1,0.3-0.2,0.5-0.3c0.2-0.1,0.4-0.3,0.7-0.5c0.3-0.3,0.6-0.5,1-0.8
		c0.3-0.3,0.7-0.6,1-0.8c0.3-0.3,0.6-0.5,0.7-0.7c0.5-0.4,0.9-0.8,1.3-1.1c0.3-0.3,0.7-0.5,1.1-0.8c0.1-0.1,0.2-0.1,0.4-0.2
		C99.6,21.4,99.7,21.4,99.9,21.4z M80,23.5c0-0.3,0.1-0.6,0.2-1c0.2-0.4,0.2-0.7,0.1-1c0,0.1-0.1,0.2-0.1,0.3
		C80.1,21.9,80,22,80,22.1c-0.1,0.1-0.1,0.2-0.1,0.3c0,0.1,0,0.1,0.1,0c0,0.1-0.1,0.2,0,0.3s0,0.2,0,0.3L79.7,23c0,0.1,0,0.2,0,0.3
		S79.8,23.4,80,23.5z M80.3,18.4C80.2,18.5,80.2,18.5,80.3,18.4C80.4,18.4,80.4,18.4,80.3,18.4C80.3,18.4,80.3,18.4,80.3,18.4
		C80.3,18.4,80.3,18.4,80.3,18.4z M80.4,17.9c0,0,0.1,0,0.2-0.1c0.1-0.1,0.1-0.1,0.2-0.2c0,0,0-0.1,0-0.2c0,0,0.1-0.1,0.1-0.1
		c0.1,0,0.1,0,0.1-0.1c0,0,0-0.1,0-0.1c0,0,0-0.1,0-0.1c-0.1,0.2-0.2,0.3-0.3,0.2c0,0.1-0.1,0.2-0.1,0.2
		C80.5,17.7,80.5,17.8,80.4,17.9z M81.9,17c0.2-0.3,0.3-0.7,0.4-0.9c0.1-0.3,0.2-0.6,0.4-0.8c-0.1,0-0.1-0.1-0.2-0.1
		c0.2-0.3,0.4-0.6,0.5-1c0.1-0.4,0.2-0.7,0.3-0.9c-0.1,0-0.2,0.1-0.2,0.2c0,0.1-0.1,0.2-0.1,0.3l-0.1,0c0,0,0,0.1,0,0.1
		c0,0,0,0.1,0,0.1c0,0-0.1,0.1-0.1,0.1c0,0.1-0.1,0.1-0.2,0.2l-0.2,0.4c0,0.2-0.1,0.3-0.2,0.5c-0.1,0.2-0.1,0.3-0.2,0.3L82,15.8
		c0,0,0,0.1,0,0.1c0,0.1,0,0.1-0.1,0.2c0,0.1-0.1,0.2-0.1,0.2c0,0.1,0,0.1,0,0.2c0,0,0,0.1,0,0.1c0,0.1-0.1,0.1-0.1,0.2
		c-0.1,0.1-0.1,0.1-0.2,0.2c0,0-0.1,0.1,0,0.2c0,0.1,0,0.1,0,0.2c0,0.1-0.1,0.2-0.2,0.3c0,0,0,0.1,0.1,0.1c0,0,0.1,0.1,0,0.1
		c0,0,0,0.1-0.1,0.1s-0.1,0.1-0.1,0.1c-0.1,0.1-0.1,0.3-0.1,0.4c0,0.1,0,0.2-0.1,0.3l-0.3,0.5l-0.1,0.2v0.1c0.1,0,0.2-0.1,0.4-0.3
		c0.2-0.2,0.3-0.3,0.3-0.4c0.1-0.3,0.2-0.5,0.3-0.8c0.1-0.3,0.2-0.5,0.3-0.8c0,0,0-0.1,0.1-0.1C81.9,17,81.9,17,81.9,17z M80.8,17.9
		c-0.1,0-0.1,0.1-0.1,0.3L80.8,17.9z M81.1,16.8c0,0-0.1,0.1-0.1,0.2c0,0.1-0.1,0.1-0.1,0.2c0-0.1,0.1-0.1,0.2-0.2
		C81.2,16.9,81.2,16.9,81.1,16.8z M84.5,17.5c0.3-0.3,0.6-0.5,0.9-0.8c0.3-0.3,0.5-0.5,0.8-0.8c0.3-0.3,0.5-0.5,0.8-0.8
		s0.6-0.6,1-0.9c0.1-0.1,0.2-0.2,0.3-0.3c0.1-0.1,0.3-0.3,0.4-0.4c0.1-0.1,0.3-0.3,0.4-0.4s0.2-0.3,0.3-0.3c0.1-0.1,0.2-0.2,0.3-0.3
		c0.1-0.1,0.2-0.2,0.3-0.3c0,0,0.1-0.1,0.2-0.2c0.1-0.1,0.1-0.2,0.2-0.3c0,0,0.1-0.1,0.1-0.1c0,0,0.1-0.1,0.1-0.1
		c0.2-0.3,0.4-0.6,0.6-0.9c0.2-0.3,0.4-0.6,0.6-0.9c0.1-0.1,0.2-0.3,0.3-0.5c0.1-0.2,0.2-0.3,0.3-0.4c0,0,0.1-0.1,0.2-0.3
		c0.1-0.2,0.1-0.2,0.1-0.3c0.4-1.1,0.5-1.8,0.2-2c-0.1-0.1-0.2-0.2-0.3-0.3c-0.1-0.1-0.2-0.1-0.3-0.1c-0.1,0-0.1,0-0.2,0
		c-0.1,0-0.2,0.1-0.3,0.1c-0.3,0.1-0.5,0.1-0.6,0.2c-0.1,0.1-0.3,0.2-0.5,0.3c-0.2,0.1-0.3,0.3-0.5,0.5c-0.1,0.2-0.3,0.4-0.4,0.6
		c0,0-0.1,0.1-0.2,0.2C89.5,7.9,89.4,8,89.4,8c0,0.1-0.1,0.1-0.1,0.2c0,0.1-0.1,0.2-0.1,0.2c-0.1,0.2-0.2,0.3-0.3,0.5
		c-0.1,0.1-0.2,0.3-0.3,0.4c0,0.1-0.1,0.2-0.1,0.3s-0.1,0.2-0.1,0.3c-0.1,0.2-0.3,0.5-0.5,0.9c-0.2,0.4-0.4,0.8-0.7,1.2
		c-0.2,0.4-0.4,0.8-0.6,1.2c-0.2,0.4-0.3,0.6-0.4,0.8c0,0,0,0.2-0.1,0.5c-0.1,0.3-0.2,0.5-0.3,0.7l-0.2,0.4L84.5,17.5z"/>
	<path class="st0" d="M110,21.5c0.2,0,0.3,0.2,0.3,0.4c0.1,0.2,0,0.5-0.2,0.7c0,0.1-0.1,0.2-0.2,0.3c-0.1,0.1-0.2,0.2-0.3,0.3
		c0,0-0.1,0.1-0.2,0.2c-0.1,0.1-0.2,0.1-0.2,0.2c-0.1,0-0.1,0.1-0.3,0.2c-0.1,0.1-0.2,0.2-0.2,0.2c0,0-0.1,0.1-0.3,0.2
		c-0.2,0.1-0.3,0.2-0.3,0.2c-0.2,0.1-0.4,0.2-0.4,0.3c-0.1,0.1-0.2,0.2-0.4,0.3c-0.1,0-0.3,0.1-0.5,0.2c-0.2,0.1-0.3,0.2-0.4,0.3
		c-0.1,0.1-0.3,0.2-0.4,0.2c-0.1,0-0.2,0.1-0.3,0.2c-0.1,0-0.3,0-0.4,0.1c-0.1,0.1-0.3,0.1-0.5,0.2c-0.1,0-0.2,0.1-0.3,0.1
		c-0.1,0-0.3,0-0.4,0c-0.4,0.2-0.9,0.3-1.4,0.3c-0.3,0.1-0.6,0.1-0.9,0c-0.1,0-0.1,0-0.2,0c-0.1,0-0.1,0-0.2,0
		c-0.2-0.1-0.4-0.1-0.6-0.1c-0.2,0-0.4,0-0.5-0.1c0,0-0.1,0-0.2-0.1c-0.1-0.1-0.2-0.1-0.3-0.2c-0.1-0.1-0.2-0.1-0.3-0.2
		c-0.1-0.1-0.2-0.1-0.2-0.1c-0.1,0-0.2-0.1-0.3-0.2c-0.1-0.1-0.2-0.2-0.2-0.4c-0.1-0.1-0.1-0.3-0.2-0.4s-0.2-0.2-0.2-0.3
		c0,0-0.1,0-0.1,0c-0.1,0-0.1,0-0.1,0c-0.1,0-0.1-0.1-0.1-0.2c0-0.1-0.1-0.1-0.1-0.2c0-0.2,0-0.3,0.1-0.5s0.1-0.3,0-0.4
		c0,0,0.1,0,0.1,0c0,0,0.1,0,0.1-0.1C98,23.1,98,23,98,22.8c0-0.2,0.1-0.4,0.1-0.6c0.1-0.2,0.1-0.4,0.2-0.6c0.1-0.2,0.1-0.3,0.2-0.4
		c0-0.1,0-0.2,0-0.3c0-0.1,0-0.2,0-0.2c0-0.1,0.1-0.1,0.2-0.2c0.1-0.1,0.1-0.1,0.2-0.1c0-0.2,0.1-0.3,0.2-0.5
		c0.1-0.2,0.3-0.4,0.5-0.6c0.2-0.2,0.4-0.4,0.6-0.7c0.1-0.1,0.2-0.2,0.3-0.3c0.1-0.1,0.3-0.2,0.4-0.3c0.2-0.1,0.3-0.1,0.4-0.2
		c0.1-0.1,0.2-0.2,0.4-0.3c0.3-0.2,0.6-0.4,1-0.3c0.3,0,0.7,0.1,0.9,0.1c0.1,0,0.2,0.1,0.2,0.2c0,0.1,0.1,0.1,0.1,0.2
		c0,0,0.1,0,0.1,0c0,0,0.1,0,0.1,0c0.1,0,0.3,0.1,0.4,0.2c0.2,0.1,0.3,0.2,0.5,0.3c0.2,0.1,0.3,0.2,0.4,0.3c0.1,0.1,0.2,0.2,0.2,0.3
		c0,0,0,0.1,0.1,0.1c0,0,0.1,0.1,0.1,0.1c0.1,0.3,0.1,0.5,0,0.6s-0.2,0.3-0.2,0.4c-0.2,0.2-0.3,0.3-0.4,0.4
		c-0.1,0.1-0.2,0.2-0.3,0.4c0,0-0.1,0.1-0.2,0.2c-0.1,0.1-0.2,0.2-0.2,0.2c-0.2,0.1-0.3,0.3-0.6,0.4c-0.2,0.1-0.4,0.2-0.6,0.4
		c0,0-0.1,0.1-0.2,0.1c-0.1,0.1-0.2,0.1-0.3,0.2c-0.1,0.1-0.3,0.2-0.4,0.2c0,0-0.1,0.1-0.2,0.1c-0.1,0-0.1,0.1-0.2,0.1
		c-0.1,0-0.1,0.1-0.2,0.2c-0.1,0.1-0.2,0.2-0.4,0.3c0,0-0.1,0.1-0.2,0c-0.1,0-0.1,0-0.1,0c-0.1,0-0.2,0.1-0.3,0.2
		c-0.1,0.1-0.2,0.1-0.4,0.1c0,0.1-0.1,0.2-0.1,0.4c0,0.2,0,0.3,0,0.5c0,0.2,0.1,0.3,0.2,0.5s0.3,0.2,0.6,0.3c0,0,0.1,0,0.3,0.1
		c0.2,0,0.3,0.1,0.3,0.1c0.3,0,0.7,0,1.1-0.1c0.4-0.1,0.8-0.1,1.1-0.2c0.8-0.2,1.5-0.4,2.2-0.8c0.7-0.3,1.4-0.7,1.9-1.1
		c0.1-0.1,0.2-0.1,0.2-0.1c0,0,0.1,0,0.2-0.1s0.2-0.1,0.4-0.2s0.3-0.2,0.5-0.4c0.2-0.1,0.3-0.3,0.4-0.4
		C109.9,21.8,110,21.6,110,21.5z M101.3,21.8c0.3-0.2,0.7-0.4,1-0.7s0.6-0.5,1-0.8c0.1-0.1,0.2-0.2,0.4-0.3s0.2-0.2,0.3-0.3
		c0-0.1,0-0.2,0-0.2c0-0.1,0-0.1,0-0.2c-0.1,0-0.1,0-0.2,0c0,0,0,0,0,0c-0.5,0.3-0.9,0.6-1.4,1.1s-0.8,0.9-1.2,1.4
		C101.1,21.8,101.1,21.8,101.3,21.8C101.2,21.8,101.2,21.8,101.3,21.8z"/>
</g>
</svg>
