<?xml version="1.0" encoding="utf-8"?>
<!-- Generator: Adobe Illustrator 20.0.0, SVG Export Plug-In . SVG Version: 6.00 Build 0)  -->
<svg version="1.1" id="Layer_1" xmlns="http://www.w3.org/2000/svg" xmlns:xlink="http://www.w3.org/1999/xlink" x="0px" y="0px"
	 viewBox="0 0 238 316" style="enable-background:new 0 0 238 316;" xml:space="preserve">
<style type="text/css">
	.st0{fill:#FFFFFF;}
</style>
<g>
	<g>
		<path class="st0" d="M29,57.9c-0.1,0.7-0.3,1.3-0.5,1.7c-0.2,0.5-0.2,1.1-0.1,1.8c0.4-1,0.7-2,0.9-3.1c0.3-1.1,0.4-2,0.2-2.7
			c0-0.1-0.1-0.2-0.2-0.3c-0.1,0-0.2-0.1-0.2-0.2c0-0.1,0.1-0.2,0.2-0.2c0.1,0,0.2-0.1,0.2-0.2c0.1-0.6,0.2-1.3,0.1-2.1
			c-0.1-0.8,0.1-1.6,0.5-2.4c-0.1-0.1-0.3-0.1-0.5,0.1c-0.2,0.2-0.3,0.3-0.5,0.2c0.3-1.2,0.5-2.4,0.8-3.6c0.2-1.2,0.4-2.4,0.6-3.6
			c-0.5,0.8-0.8,1.8-1.1,2.9c-0.2,1.1-0.5,2.1-0.8,3.1c-0.4-0.5-0.4-0.9-0.1-1.3c0.3-0.4,0.5-0.8,0.5-1.1c0.1-0.6,0.2-1.1,0.2-1.7
			c0-0.6,0.2-1,0.7-1.4c-0.2-0.9-0.1-1.9,0.3-3c0.4-1.1,0.6-2.2,0.7-3.2c-0.4,0.1-0.5,0.4-0.5,0.7c0,0.4-0.1,0.7-0.2,0.9
			c0.1-0.9,0.4-1.8,0.6-2.7c0.3-0.9,0.5-1.9,0.6-2.8c0.4-1.8,0.9-3.6,1.5-5.4c0.6-1.8,1.1-3.6,1.7-5.4c0.4-1.3,0.8-2.4,1.3-3.4
			c0.5-1,0.8-2.2,0.7-3.6c0.3,0.3,0.5,0.3,0.7,0.2c0.2-0.2,0.4-0.3,0.6-0.3c0.1-0.1,0.1-0.1,0.2,0.1c0,0.1,0.2,0.2,0.5,0.2
			c0.1,0,0.2-0.1,0.2-0.2c0-0.1,0.1-0.1,0.4,0c0.5,0.1,1.1,0.5,1.8,1.1c0.7,0.6,1.4,1,1.9,1.4c0.4,0.4,0.8,0.8,1.5,1.2
			c0.6,0.5,1,1,1.2,1.5c0,0.3-0.1,0.7-0.2,1.2c-0.1,0.5-0.3,1-0.4,1.5c-0.1,1.2-0.1,2.2-0.2,3.1c-0.1,0.8-0.1,1.7-0.2,2.6
			c-0.1,1.8-0.2,3.5-0.3,5.3c0,1.8-0.2,3.2-0.5,4.2c-0.1,0.2-0.2,0.4-0.3,0.6c-0.1,0.2-0.2,0.3-0.2,0.5c-0.1,0.5-0.1,1,0.1,1.4
			c0.2,0.5,0.1,0.9-0.2,1.2c0.1,0.1,0.2,0.2,0.3,0.4c0.1,0.2,0.2,0.2,0.2,0.1c0.1,0.1,0.1,0.2-0.1,0.5c-0.2,0.2-0.3,0.4-0.4,0.6
			c0.1,0.1,0.1,0.4,0.2,0.6c0.1,0.3,0.1,0.6,0.1,0.9c0,0.1-0.1,0.3-0.2,0.4c-0.1,0.1-0.2,0.2-0.2,0.3c0,0.1,0,0.3,0.1,0.4
			c0,0.1,0.1,0.3,0.1,0.4c0.1,1,0,2-0.5,2.9c-0.5,1-0.7,2-0.7,2.9c0.1,0.1,0.2,0.2,0.3,0.2c0.1,0,0.3,0,0.4-0.1c0.1,0,0.2,0,0.3,0
			c0.1,0,0.1,0.2,0.1,0.5c0.4-0.4,0.9-0.6,1.6-0.7c0.6,0,1-0.4,1.2-1.1c-0.1-0.1-0.3-0.1-0.5,0.1c-0.2,0.2-0.5,0.2-0.7,0.1
			c0.2-0.3,0.5-0.5,0.9-0.5c0.4-0.1,0.6,0.1,0.8,0.4c0.2-0.1,0.4-0.2,0.6-0.3c0.2-0.1,0.4-0.2,0.6-0.4c-0.1-0.3-0.2-0.3-0.4-0.1
			c-0.2,0.2-0.5,0.2-0.7,0.1c0.3-0.3,0.6-0.5,0.9-0.5c0.4-0.1,0.7-0.1,1.1-0.2c0.4-0.1,0.7-0.2,1-0.3c0.3-0.1,0.6-0.3,0.8-0.7
			c-0.1-0.4-0.2-0.4-0.3-0.2c-0.1,0.2-0.2,0.3-0.3,0.2c0.9-1,2-1.8,3.2-2.5c1.2-0.7,2.4-1.4,3.6-2.1c0.4-0.3,0.8-0.6,1.2-0.8
			c0.5-0.3,0.8-0.6,0.9-0.8v-0.4c0.1-0.1,0.2-0.2,0.5-0.3c0.2-0.1,0.4-0.2,0.6-0.3c0.1-0.1,0.1-0.3,0.1-0.4c0-0.1,0-0.3,0.2-0.4
			c0.1-0.1,0.5-0.3,1-0.5c0.5-0.2,0.9-0.5,1.2-0.7c0.2-0.1,0.4-0.4,0.6-0.6c0.2-0.3,0.5-0.5,0.7-0.7c0.3-0.3,0.6-0.5,0.8-0.6
			c0.3-0.1,0.6-0.2,0.9-0.4c0.1-0.2,0.2-0.4,0.3-0.7c0.1-0.2,0.2-0.4,0.3-0.6c0.2-0.3,0.5-0.5,0.9-0.6c0.4-0.1,0.7-0.3,1-0.6
			c0.1-0.2,0.2-0.5,0.3-0.8c0.1-0.3,0.2-0.6,0.4-0.8c0.3-0.2,0.6-0.4,0.9-0.4c0.4-0.1,0.6-0.3,0.6-0.6c0.5,0.1,0.9,0.2,1.3,0.4
			c0.4,0.2,0.7,0.4,1.1,0.5c0.2,0.1,0.4,0.1,0.6,0.1c0.2,0,0.4,0,0.6,0.1c0.5,0.3,1.1,0.7,1.9,1.2c0.8,0.5,1.5,0.9,2.1,1.2
			c0.1,0.1,0.4,0.3,0.8,0.5c0.4,0.2,0.8,0.4,1.2,0.7c0.4,0.2,0.7,0.5,1.1,0.7c0.3,0.2,0.5,0.5,0.5,0.7c0.1,0.4,0.1,0.6-0.3,0.9
			c-0.3,0.2-0.6,0.6-1,1c-0.4,0.6-0.6,1-0.9,1.3c-0.2,0.3-0.6,0.5-1.2,0.7c-0.4,0.2-0.7,0.4-1,0.6c-0.3,0.2-0.6,0.4-1,0.6
			c-0.4,0.2-0.7,0.4-1,0.6c-0.3,0.2-0.7,0.3-1.1,0.5c-0.3,0.3-0.6,0.5-0.8,0.6c-0.3,0.1-0.6,0.3-0.9,0.5c-0.1,0.1-0.3,0.3-0.4,0.4
			c-0.1,0.1-0.2,0.2-0.3,0.3c-0.3,0.2-0.5,0.4-0.8,0.5c-0.2,0.1-0.5,0.2-0.7,0.4c-0.2,0.1-0.4,0.3-0.5,0.5c-0.1,0.2-0.3,0.4-0.5,0.6
			c-0.7,0.6-1.4,0.9-1.9,1.2c-0.6,0.2-1.3,0.6-2.1,1.2c-0.5,0.4-0.9,0.7-1.1,0.8c-0.2,0.1-0.6,0.4-1.2,0.7c-0.8,0.4-1.5,0.8-2.3,1.3
			c-0.8,0.5-1.4,0.9-2,1.4c-0.4,0.2-0.6,0.4-0.9,0.5c-0.2,0.1-0.5,0.3-0.7,0.6c-0.6,0.4-1.1,0.7-1.7,1.1c-0.6,0.4-1.1,0.7-1.7,1.1
			c-0.6,0.6-1.1,1.1-1.6,1.5c-0.5,0.5-1.1,0.8-1.7,1c-0.4,0.3-0.7,0.5-1.1,0.6c-0.4,0.1-0.7,0.3-0.9,0.5c-0.3,0.2-0.5,0.5-0.6,0.7
			c-0.1,0.3-0.3,0.5-0.5,0.6c-0.1,0-0.3,0-0.5-0.1c-0.2,0-0.3,0-0.4,0.1c-0.6,0.3-1,0.5-1.3,0.8c-0.3,0.2-0.6,0.4-1,0.6
			c1.5,2.1,3.1,4.4,4.7,7c1.6,2.6,3.3,5,5.2,7.3c0.1,0.1,0.1,0.2,0.1,0.3c0,0.1,0,0.2,0.1,0.3c0.1,0.1,0.3,0.2,0.4,0.2
			c0.1,0,0.3,0.1,0.4,0.2c0.2,0.4,0.4,0.7,0.6,1.1c0.2,0.4,0.4,0.7,0.8,1c0.9,1.3,1.9,2.5,3.1,3.8c1.2,1.3,2.2,2.6,3.2,3.8
			c0.4,0.6,0.6,1.1,0.8,1.5c0.2,0.4,0.5,0.9,1,1.6c0.4,0.6,1,1.2,1.6,1.9c0.7,0.7,1,1.3,0.9,1.7c-0.1,0.6-0.5,1-1.2,1
			c-0.6,0-1.4-0.1-2.2-0.4c-0.8-0.3-1.6-0.6-2.3-1.1c-0.7-0.5-1.3-0.8-1.6-1.1c-0.7-0.4-1.2-0.6-1.5-0.8c-0.3-0.2-0.7-0.6-1.4-1.3
			c-0.3-0.2-0.5-0.5-0.7-0.7c-0.2-0.3-0.3-0.5-0.5-0.6l-1.1-1.1c-0.3-0.4-0.6-0.7-0.9-1c-0.3-0.3-0.6-0.6-1-1
			c-0.4-0.5-0.8-1-1.2-1.5c-0.4-0.5-0.9-0.7-1.5-0.5c-1.3-1.8-2.8-3.5-4.4-5.2c-1.6-1.6-3.1-3.3-4.5-4.9c-0.2,0.6-0.4,1.4-0.5,2.4
			c-0.1,1-0.3,2.1-0.5,3.1c-0.2,0.6-0.4,1.3-0.5,2c-0.1,0.7-0.2,1.3-0.2,1.7c-0.3,0-0.4,0.1-0.4,0.3c-0.1,0.2-0.1,0.3-0.1,0.4
			c0,0-0.2,0-0.6-0.1c-0.2,0.7-0.3,1.4-0.4,2.2c0,0.7-0.2,1.5-0.4,2.4c0,0.4-0.1,0.8-0.3,1.2c-0.2,0.4-0.3,0.7-0.3,0.9
			c0,0.1,0.1,0.3,0.2,0.5c0.1,0.2,0.2,0.3,0.2,0.5c0.1,1.8-0.2,3.6-0.7,5.3c-0.5,1.7-0.8,3.5-0.8,5.3c-0.6,0.1-0.9,0.5-0.9,1.4
			c-1,0.3-1.9,0.4-2.9,0.5c-0.9,0-1.7-0.2-2.3-0.8c-0.1-0.2-0.3-0.5-0.6-0.8c-0.2-0.3-0.4-0.6-0.6-1c-0.1-0.1-0.3-0.2-0.5-0.3
			c-0.2-0.1-0.3-0.2-0.5-0.3c-0.4-0.7-0.7-1.6-1-2.7c-0.3-1.1-0.5-2.1-0.7-2.9c0.3,0,0.5,0.2,0.4,0.6c-0.1,0.4,0,0.6,0.4,0.6
			c0.1-0.3,0.1-0.7-0.2-1.3c-0.2-0.6-0.3-1.1-0.2-1.7c0-0.1,0-0.3,0.1-0.4c0.1-0.1,0.1-0.3,0.1-0.4c0-0.1-0.1-0.3-0.2-0.5
			c-0.1-0.2-0.2-0.3-0.2-0.5c0-0.1,0.1-0.2,0.2-0.3c0.1-0.1,0.2-0.2,0.2-0.4c-0.3-0.4-0.4-0.9-0.2-1.5c-0.1-0.4-0.1-0.7-0.1-0.9
			c0-0.3,0-0.6-0.2-0.9c0.4,1,0.5,2,0.6,2.9c0,1,0.2,1.9,0.6,2.6c0.1-0.3,0.1-0.7,0.1-1.3c0-0.6-0.2-0.9-0.5-1.2
			c0.5-0.9,0.6-1.9,0.3-2.9c-0.3-1.1-0.4-2.1-0.3-3.3c0-0.1,0.1-0.2,0.2-0.3c0.1,0,0.2-0.1,0.2-0.3c0.1-1,0.1-1.9,0.1-2.7
			s0-1.7,0-2.6c0-1.3,0.1-2.7,0.3-4.4c0.2-1.6,0.2-3.2,0.1-4.8c0-0.1,0-0.2-0.1-0.3c-0.1-0.1-0.1-0.3-0.1-0.4c0-0.1,0-0.2,0.1-0.3
			c0.1-0.1,0.1-0.3,0.1-0.4c0.4-0.9,0.5-2,0.4-3.4c-0.1-1.3,0-2.4,0.1-3.2c0-0.1,0.1-0.2,0.2-0.2h0.2c0-0.1-0.1-0.2-0.2-0.4
			c-0.1-0.2,0.1-0.3,0.7-0.3c0-0.3-0.1-0.4-0.3-0.4c-0.2,0-0.4-0.1-0.5-0.3c0.1-0.3,0.2-0.5,0.3-0.8c0-0.2,0.2-0.4,0.6-0.5
			c-0.4-0.4-0.4-0.7-0.2-0.9c0.2-0.3,0.4-0.6,0.5-0.9c0.1-0.3,0.1-0.6-0.1-0.9C28.5,57.9,28.7,57.8,29,57.9z M25.4,89.2
			c0.1-0.3,0.1-0.3,0.1,0.1c0,0.3,0,0.5-0.1,0.5c0,0.1,0,0.2-0.1,0.1C25.3,89.8,25.3,89.6,25.4,89.2z M25.9,69.6
			c0.4,0.1,0.5,0.3,0.2,0.4c-0.1,0-0.2-0.1-0.2-0.2C25.9,69.7,25.9,69.6,25.9,69.6z M25.9,71.6c0.4,0,0.5,0.2,0.5,0.6
			c0,0.4-0.2,0.6-0.5,0.7c0-0.4,0-0.6,0.1-0.6C25.9,72.1,25.9,71.9,25.9,71.6z M26.9,57.9c-0.1,0.1-0.1,0.2-0.2,0.3
			c0,0.1,0,0.2,0.2,0.2c-0.1,0.4-0.3,0.4-0.4,0C26.4,58.1,26.6,57.9,26.9,57.9z M27.1,63.7c0.1,0.1,0.2,0.3,0.1,0.5
			c-0.1,0.2-0.2,0.3-0.3,0.5c-0.2-0.1-0.2-0.2,0-0.4C27.1,64.1,27.2,63.9,27.1,63.7z M27.2,60.3l0.2,0.1h0.1c0.1,0.6,0.1,0.7,0,0.5
			c-0.1-0.2-0.2-0.1-0.3,0.2c-0.3-0.1-0.3-0.2-0.2-0.3C27.2,60.7,27.3,60.5,27.2,60.3z M27.8,66.5c0.1-0.1,0.2-0.2,0.2-0.3
			c0-0.1-0.1-0.1-0.2,0c-0.1,0.1-0.2,0.3-0.1,0.4C27.7,66.7,27.8,66.7,27.8,66.5z M28.1,65.3c0-0.1,0-0.2,0-0.5
			c0-0.2-0.1-0.3-0.2-0.1c-0.1,0.4-0.1,0.6,0,0.6C27.9,65.4,28,65.4,28.1,65.3z M29.1,52c0.1,0.3,0.2,0.5,0.1,0.7
			c-0.1,0.2-0.2,0.5-0.4,0.8c-0.1,0.3-0.1,0.6,0,1.1c0.1,0.4-0.1,0.7-0.6,0.8c0.2-0.6,0.4-1.1,0.5-1.7C28.8,53.1,29,52.6,29.1,52z
			 M28.6,49.8c0.1,0.1,0.2,0.2,0.1,0.3c-0.1,0.1-0.1,0.1-0.1,0.2C28.5,50.3,28.5,50.1,28.6,49.8z M31.2,43.1c-0.1,0.5-0.3,1-0.4,1.4
			c-0.1,0.5-0.2,0.9-0.2,1.4c-0.1,0.4-0.2,0.7-0.3,1.1c0,0.4,0,0.7,0.2,0.9c0.5-1.4,0.9-2.9,1.2-4.6c0.3-1.7,0.5-3.3,0.7-4.8
			c-0.3,0.8-0.5,1.5-0.7,2.3C31.5,41.5,31.4,42.3,31.2,43.1z M31,42.4c-0.1-0.1-0.1-0.2-0.1-0.3c0-0.1,0-0.1-0.1-0.2
			c0,0.1-0.1,0.2-0.2,0.1c-0.1-0.1-0.2,0-0.3,0.1c0.2,0,0.3,0.1,0.3,0.2C30.7,42.5,30.8,42.5,31,42.4z M43.9,48.9
			c0.2,0,0.3,0.2,0.3,0.5c0,0.4,0,0.7-0.1,1.1c-0.1,0.5-0.3,0.9-0.4,1.3c-0.1,0.4-0.4,0.6-0.7,0.6c0.3-0.4,0.5-1,0.5-1.7
			C43.6,49.9,43.7,49.3,43.9,48.9z"/>
		<path class="st0" d="M106.8,61.2c0.2,1.7,0.3,3.4,0.3,5c0,1.7-0.1,3.2-0.4,4.6c-0.1,0.4-0.3,0.8-0.6,1.3c-0.2,0.5-0.4,1-0.6,1.4
			c-0.2,1.1-0.4,2.1-0.6,3.2c-0.2,1.1-0.4,2.2-0.8,3.3c-0.2,0.6-0.4,1.1-0.6,1.6c-0.2,0.5-0.3,1-0.5,1.5c-0.4,1.1-0.7,2.2-1,3.2
			c-0.3,1-0.6,2-0.9,3.1v1.9c-0.2,0.6-0.4,1.3-0.4,2.1c-0.1,0.8,0.1,1.5,0.4,2.2c0.1,0.2,0.4,0.5,0.6,0.8c0.3,0.3,0.6,0.7,1,0.9
			c0.4,0.3,0.8,0.5,1.4,0.6c0.5,0.1,1.1,0.1,1.6,0c-0.1,0.4-0.1,0.7-0.2,1.2c0,0.4-0.2,0.8-0.6,1.1c-0.1,0.1-0.2,0.1-0.5,0.1
			c-0.2,0-0.4,0-0.5,0c-0.1,0.1-0.2,0.3-0.3,0.4c-0.1,0.1-0.2,0.3-0.3,0.4c-0.8,0.1-1.8,0-2.9-0.4c-1.1-0.4-2-0.8-2.8-1.2
			c-0.9-0.5-1.7-1.1-2.3-1.7c-0.6-0.7-1.1-1.2-1.5-1.6c0.1-0.6,0-1.3-0.5-1.9c-0.5-0.6-0.8-1.4-1.1-2.2c-0.1-0.4-0.1-0.8-0.2-1.2
			c0-0.5-0.1-0.9-0.1-1.4c-0.4-4,0-7.9,0.9-11.6c0.2-1.1,0.5-2.2,1-3.2c0.5-1,0.6-2,0.5-2.9c-0.1,0.5-0.4,0.9-0.7,1.1
			c-0.3,0.2-0.6,0.5-0.9,0.9c-0.1,0.1-0.2,0.4-0.3,0.6c0,0.3-0.2,0.6-0.4,0.9c-0.1,0.1-0.2,0.1-0.4,0.2c-0.2,0.1-0.3,0.2-0.3,0.4
			c-0.6,0.7-1.1,1.4-1.5,2c-0.4,0.6-0.9,1.3-1.4,2c-0.4,0.5-0.8,1-1.2,1.5c-0.4,0.5-0.8,0.9-1.3,1.4c-0.1,0.4-0.3,0.7-0.5,1
			c-0.2,0.3-0.3,0.6-0.5,0.9c-0.1,0.1-0.3,0.3-0.5,0.5c-0.2,0.2-0.4,0.4-0.5,0.8c-0.2,0.4-0.4,0.7-0.7,1c-0.2,0.3-0.4,0.6-0.6,0.9
			c-0.3,0.2-0.6,0.4-1.1,0.6c-0.4,0.2-0.7,0.4-0.8,0.8c-0.1,0.2-0.2,0.3-0.4,0.4c-0.2,0-0.4,0.1-0.7,0.2c-0.2,0.1-0.4,0.2-0.5,0.3
			c-0.1,0.1-0.1,0.4,0.1,0.8c-0.4-0.4-1-0.7-1.7-0.7c-0.7-0.1-1.4-0.2-2.1-0.3c-0.9-1.1-1.4-2.8-1.4-4.9c0-2.1,0.3-4.4,0.8-6.8
			c0.5-2.4,1-4.5,1.3-6.2c0.6-1.5,1-3,1.3-4.6c0.3-1.6,0.7-3.2,1.3-4.9c0.1-0.1,0.3-0.2,0.4-0.3C80,62,80.1,62,80.3,62
			c-0.1-0.6-0.2-1.1-0.3-1.6c-0.1-0.5,0-0.8,0.5-0.9c0.3-0.1,0.8-0.2,1.5-0.1c0.7,0.1,1.4,0.2,2.1,0.4c0.7,0.2,1.3,0.4,1.9,0.6
			c0.6,0.2,1,0.4,1.1,0.6c0,0.1,0,0.3,0.1,0.4c0,0.1,0,0.2,0.1,0.3c0,0.1,0.1,0.1,0.1,0c0.1,0.4,0.1,0.8,0,1.2
			c-0.1,0.5-0.3,1-0.6,1.6c-0.2,1.4-0.4,2.8-0.5,4.3c-0.1,1.5-0.4,2.9-0.7,4.3c0.2,0.2,0.4,0.2,0.4-0.1c0.1-0.2,0.2-0.4,0.3-0.6
			c0.2-0.1,0.4-0.2,0.6-0.3c0.2-0.1,0.4-0.2,0.6-0.4c-0.1-0.1-0.1-0.1-0.1-0.2v-0.3c0-0.1,0.1-0.1,0.3-0.1c0.2,0,0.3,0,0.3-0.1
			c0.1-0.1,0.1-0.1,0.1-0.2c0-0.1,0-0.2,0.1-0.3c0.8-0.8,1.8-1.8,2.8-2.9c1.1-1.1,2.2-2.2,3.5-3.4c0.1-0.1,0.3-0.1,0.5-0.2
			c0.2,0,0.4-0.1,0.7-0.3c0.1-0.3,0.4-0.6,0.6-0.7c0.3-0.1,0.6-0.3,0.8-0.4c0-0.1,0-0.2,0-0.3c0-0.1,0-0.2,0.1-0.3
			c0.2-0.1,0.4-0.2,0.6-0.3c0.2,0,0.4-0.1,0.6-0.3c0.4-0.3,0.7-0.7,0.9-1c0.2-0.3,0.5-0.5,0.8-0.7c0.3-0.1,0.7-0.1,1,0.1
			c0.3,0.2,0.6,0.2,1,0.2c0.6,0.1,1.2,0.1,1.8,0c0.6-0.1,1.1-0.1,1.7,0c0.3,0.1,0.5,0.4,0.6,0.6C106.3,61,106.5,61.2,106.8,61.2z"/>
		<path class="st0" d="M190.6,71c0.1,0.2,0.3,0.5,0.5,0.8c0.2,0.4,0.3,0.7,0.5,1.1c0.1,0.4,0.2,0.7,0.3,1c0.1,0.3,0.1,0.4,0,0.4
			c-0.1,0.1-0.2,0.4-0.2,0.7c0,0.3,0,0.6-0.1,1c1.4,1.3,2.6,1.9,3.6,1.9c1,0.3,2.2,0.4,3.7,0.2c0.8,0,1.6-0.1,2.5-0.2
			c0.7-0.3,1.3-0.5,1.7-0.5c0.5-0.1,0.9-0.2,1.2-0.4c0.3-0.2,0.8-0.4,1.2-0.7c0.5-0.3,1.1-0.9,1.9-1.7c0.1,0.6,0.2,1,0.3,1.1
			c0,0.1,0.1,0.4,0.1,1c-0.1,0.7-0.3,1.1-0.4,1.3l-0.8,0.8c-0.1,0.1-0.3,0.2-0.4,0.3c-0.1,0.1-0.2,0.2-0.3,0.3
			c-0.1,0.1-0.2,0.2-0.2,0.3c-0.4,0.1-0.9,0.4-1.6,0.8c-0.7,0.4-1.6,0.8-2.7,1.1c-1.1,0.1-2.2,0.2-3.1,0.2c-0.9,0-2.1,0-3.4-0.1
			c-0.8-0.1-1.6-0.2-2.4-0.5c-0.8-0.2-1.7-0.5-2.6-0.8c0,0.2,0,0.4-0.1,0.5c0,0.1-0.1,0.2-0.1,0.4l-1.3,3.7l-0.8,2.5
			c-0.1,0.1-0.2,0.2-0.4,0.3c-0.2,0.1-0.3,0.3-0.4,0.4c-0.1,0.2-0.2,0.4-0.2,0.6c0,0.2,0,0.4-0.1,0.5c-0.3,0-0.5,0-0.5,0.1
			c0,0.1-0.1,0.4-0.2,0.6c-0.1,0.3-0.3,0.4-0.4,0.4c-0.1,0.1-0.2,0.3-0.4,0.7c-0.2,0.4-0.4,0.6-0.5,0.6c-0.4,0.6-0.7,1-0.9,1.3
			c-0.3,0.3-0.6,0.6-0.8,0.9c-0.3,0.3-0.6,0.6-0.9,0.8c-0.4,0.3-0.8,0.6-1.3,1.1c-0.6,0.6-1.4,1.1-2.4,1.5c-1.1,0.4-1.9,0.6-2.4,0.7
			c-0.4,0.4-1.3,0.4-2.7,0h-1.9c-0.8-0.4-1.5-1.1-2-2.2c-0.5-1-0.9-2.2-1.2-3.4c-0.3-1.3-0.5-2.6-0.5-4c-0.1-1.4-0.1-2.8,0-4.2
			c-0.8,0.6-1.5,1.2-2.2,1.9c-0.7,0.7-1.3,1.5-1.8,2.2c-0.6,0.2-1,0.6-1.4,1.2c-0.5,0.1-0.8,0.2-0.8,0.5c-0.1,0.3-0.2,0.5-0.3,0.7
			c-0.5,0.1-1,0.2-1.4,0.3c-0.5,0-1,0.2-1.5,0.6c-1,0.2-1.7,0.4-2.3,0.7c-0.5,0.2-1.2,0.1-2.2-0.5c-0.1-0.1-0.1-0.3-0.2-0.5
			c-0.1-0.2-0.4-0.3-0.9-0.3c-0.1-0.1-0.3-0.4-0.5-0.8c-0.2-0.4-0.4-0.6-0.5-0.7c-0.1-0.3-0.3-0.5-0.6-0.5c-0.2-0.1-0.5-0.2-0.9-0.4
			c-0.8-0.8-1.3-1.9-1.6-3.5c-0.3-1.5-0.6-3-1-4.4c-0.1-2.3,0.2-4.5,0.9-6.6c0.7-2.1,1.4-4.2,2.3-6.2c0.9-2,1.7-3.9,2.5-5.8
			c0.8-1.9,1.4-3.8,1.7-5.7c0-0.4-0.4-0.9-1.1-1.6l-1.3,0.2c-1.1,0-2.2-0.1-3.2-0.3c-1-0.2-2.1-0.2-3.2-0.1c-0.5,0-1,0.1-1.5,0.2
			c-0.5,0.1-0.9,0.3-1.4,0.4c-0.6,0.1-1.1,0.3-1.6,0.4c-0.5,0.1-1,0.2-1.5,0.2c-1.1,0.3-2.2,0.6-3.2,0.8c-1,0.3-1.9,0.6-2.8,1.1
			c-1,0.4-2,0.7-3.1,1.1c-1.1,0.4-1.9,0.9-2.5,1.8c1,0.4,2,0.6,3,0.8c1,0.2,2,0.4,3,0.8c0.4,0,0.9,0.1,1.4,0.3
			c0.5,0.2,1,0.5,1.5,0.7c0.3,0.2,0.5,0.5,0.7,0.8c0.2,0.4,0.4,0.7,0.6,0.9c0.8,1,1.2,1.8,1.4,2.5c0.2,0.7,0.1,1.6-0.3,2.8
			c-0.1,0.6-0.4,1.4-0.7,2.4c-0.3,1-0.7,1.9-1.2,2.6h-0.1c-0.1,0-0.1,0.1-0.1,0.3c-0.1,0.2-0.2,0.4-0.2,0.5c0,0.1-0.2,0.3-0.5,0.4
			c-0.3,0.3-0.5,0.7-0.8,1.2c-0.2,0.5-0.5,0.9-0.8,1.3l-1.8,2.9c-0.1,0.2-0.4,0.4-0.7,0.4c-0.3,0.1-0.6,0.4-0.8,0.8
			c-0.2,0.7-0.7,1.2-1.4,1.6c-0.7,0.4-1.2,0.9-1.5,1.5c-0.1,0.2-0.4,0.4-0.7,0.5c-0.4,0.1-0.6,0.3-0.7,0.4c-0.3,0.3-0.6,0.6-1,0.9
			c-0.4,0.3-0.8,0.6-1.1,0.8c-0.4,0.3-0.7,0.4-1.1,0.4c-0.4,0-0.8,0.1-1.1,0.2c-0.3,0-0.5,0.1-0.7,0.4c-0.2,0.2-0.5,0.3-0.7,0.2
			c-1-0.2-1.8-0.1-2.3,0.2c-0.6,0.1-1.1,0.1-1.4-0.1c-0.3-0.1-0.6-0.3-1.1-0.5c-1.6-0.9-2.8-2.1-3.7-3.7c-0.8-1.5-1.4-3.2-1.6-5
			c-0.1-1-0.1-1.8-0.2-2.5c0-0.7,0.2-1.5,0.7-2.3c0.3-0.4,0.5-0.8,0.5-1.3c0.1-0.4,0.3-0.8,0.6-1.2c0.3-0.4,0.4-0.8,0.4-1.2
			c0.1-0.3,0.2-0.5,0.3-0.7c0.1-0.2,0.2-0.4,0.3-0.7c0.4-0.7,0.8-1.3,1.3-1.9c0.5-0.6,0.9-1.2,1.3-1.9v-1.1l0.9-1.4
			c0.3-0.3,0.6-0.5,1-0.7c0.4-0.2,0.7-0.4,1-0.8c-0.2-0.4-0.5-0.8-0.9-1.2c-0.4-0.4-0.8-0.7-1.1-1c-0.3-0.3-0.5-0.6-0.5-1
			c0-0.4,0.4-0.7,1.1-1.1c0-0.1-0.1-0.2-0.3-0.3c-0.2,0-0.2-0.1-0.1-0.3c0.8,0.1,1.6-0.2,2.4-0.7c0.8-0.6,1.5-1,2.2-1.3
			c1-0.6,1.9-1.1,2.8-1.5c0.9-0.4,1.9-0.9,3.1-1.4c1-0.4,2-0.8,3-1.2c1-0.4,2.1-0.7,3.1-1.1c0.9-0.2,1.9-0.4,3.1-0.6
			c1.2-0.2,2.2-0.6,3.1-1.2c0.9-0.6,2.1-0.9,3.5-1.1c1.4-0.2,2.9-0.3,4.4-0.3c0.7,0,1.4,0,2.1,0.1c0.7,0,1.3,0.1,1.8,0.2
			c1,0,1.8,0.1,2.4,0.2c0.6,0.1,1.3,0.4,2.3,0.8v0.1l2.2,0.6l1.4,0.9c0.1,0.2,0.4,0.4,0.9,0.5c0.5,0.1,0.8,0.3,1,0.4v0.5
			c0,0.3,0.1,0.5,0.3,0.7c0,0.4,0.2,0.7,0.5,1.1c0.4,0.4,0.5,0.6,0.5,0.8c0.2,0.4,0.3,0.9,0.2,1.3c-0.1,0.5,0,0.9,0.2,1.4
			c0,0.6,0,1.1-0.1,1.6c0,0.5-0.2,1.1-0.4,1.9c0,0.2-0.1,0.4-0.4,0.6c-0.2,0.2-0.4,0.5-0.4,0.7v1.4c-0.1,0.5-0.3,0.9-0.6,1.3
			c-0.2,0.4-0.5,0.7-0.6,1c-0.2,0.3-0.3,0.7-0.3,1.1c0,0.4,0.1,0.8,0.5,1.3c-0.1,0.3-0.4,0.4-0.7,0.5c-0.4,0-0.6,0.1-0.7,0.1
			c-0.2,1-0.5,2.1-0.8,3.2c-0.3,1.2-0.6,2.3-1,3.5c-0.2,0.1-0.3,0.4-0.4,0.7c0,0.3-0.1,0.8-0.3,1.3c0,0.6-0.1,1.4-0.3,2.2
			c-0.2,0.8-0.4,1.6-0.5,2.3c0.8-0.4,1.7-0.9,2.6-1.7c0.9-0.8,1.7-1.5,2.6-2.1c0.7-0.6,1.3-1.1,1.9-1.7c0.6-0.6,1.3-1.1,2.1-1.6
			c0.1-0.1,0.3-0.3,0.5-0.5c0.2-0.2,0.4-0.4,0.6-0.8c0.4-0.5,0.8-1,1.1-1.5c0.3-0.5,1-0.7,2.2-0.5h0.7c0.3,0.4,0.6,0.5,1.1,0.3
			c0.4-0.1,0.9,0,1.5,0.3c0.7,0.1,1.5,0.4,2.3,0.9c0.8,0.5,1.3,1.2,1.4,2.4c0,0.1-0.1,0.4-0.4,0.9c-0.3,0.5-0.6,1-0.8,1.5
			c-0.2,1.1-0.5,2.1-0.7,3.1c-0.3,1-0.5,2-0.7,2.9c-0.6,1.1-1,2.4-1.2,3.9c-0.1,1.5-0.3,3-0.5,4.4c2.5-1.1,4.5-2.7,6.2-4.9
			c1.6-2.2,3.1-4.7,4.4-7.3c0.3-0.8,0.8-1.5,1.2-2.3c0.5-0.7,0.7-1.4,0.7-1.9c0-0.1-0.1-0.4-0.4-0.9c-0.2-0.5-0.5-1-0.9-1.6
			c0-0.4,0.1-0.6,0.3-0.9c0.2-0.2,0.1-0.6-0.3-1.1c-0.2-0.3-0.4-0.7-0.7-1.1c-0.2-0.4-0.4-0.8-0.6-1.1c-0.3-0.4-0.7-0.7-1.2-0.9
			c-0.5-0.2-0.9-0.5-1.1-0.9h2.5c0.2,0,0.5,0.1,0.7,0.4c0.3,0.3,0.6,0.4,0.9,0.4c0.6,0,1.3-0.1,2-0.2c0.7-0.1,1.4,0.1,2.2,0.7
			L190.6,71z M130.7,67.8c0-0.1,0.1-0.2,0.2-0.3c0.1,0,0.1-0.1-0.2-0.3c-0.4-0.6-1-1.1-1.8-1.5c-0.8-0.4-1.4-0.4-2,0.2
			c0.2,0.4,0.4,0.5,0.7,0.6c0.2,0,0.4,0.2,0.6,0.6c0.1,0.4,0,0.8-0.3,1c-0.2,0.2-0.5,0.5-0.9,0.6c-0.4,0.2-0.7,0.3-1.2,0.4
			c-0.4,0.1-0.7,0.2-0.9,0.4c-0.8,0.6-1.5,1.3-2.1,2c-0.6,0.7-1.2,1.4-1.7,2.2c-0.4,0.4-0.9,1.2-1.5,2.4c-0.7,1.2-1.2,2.4-1.7,3.7
			c-0.5,1.3-0.7,2.5-0.7,3.6c0,1.1,0.5,1.7,1.5,1.9c0.8,0.1,1.6-0.1,2.6-0.6c1-0.6,1.8-1,2.3-1.4c1.3-0.8,2.4-1.6,3.4-2.5
			c1-0.9,2-1.9,3-2.8c0.6-0.8,1.2-1.6,1.8-2.5c0.6-0.9,1-1.8,1.3-2.8c0.1-0.5,0.1-0.9-0.1-1.3c-0.1-0.4-0.2-0.7-0.4-0.9
			c-0.2-0.3-0.3-0.6-0.5-0.9c-0.1-0.4-0.2-0.8-0.2-1.3c-0.4,0-0.6-0.1-0.8-0.2C131,68.1,130.9,67.9,130.7,67.8z M129.2,65.4
			c0-0.3-0.2-0.5-0.6-0.7c-0.4-0.2-0.8-0.3-1.3-0.3c-0.5,0-0.9,0-1.3,0.1c-0.4,0.1-0.5,0.3-0.5,0.5c0.6-0.2,1.2-0.2,1.8-0.1
			C128.1,65.1,128.7,65.2,129.2,65.4z"/>
	</g>
	<g>
		<path class="st0" d="M140.9,150.3c0.2,0,0.3,0.1,0.3,0.4c0.1,0.2,0.1,0.5,0,0.8c0,0.3-0.1,0.6-0.1,0.8c0,0.3,0,0.5,0,0.5l-2.5,2.8
			l-2.1,2.5c-0.3,0.1-0.6,0.3-0.7,0.6c-0.1,0.3-0.3,0.6-0.4,0.9c-0.1,0.3-0.3,0.7-0.5,1.1c-0.2,0.4-0.6,0.8-1,1.2
			c-0.3,0.2-0.6,0.6-1,1c-0.4,0.5-0.8,1-1.3,1.5c-0.5,0.5-1,1-1.4,1.5c-0.5,0.5-0.8,0.8-1.2,0.9c-0.1,0.1-0.2,0.2-0.5,0.4
			c-0.3,0.2-0.6,0.4-1,0.6c-0.3,0.2-0.7,0.4-1,0.6c-0.3,0.2-0.5,0.3-0.6,0.4c-0.3,0.2-0.6,0.3-1,0.4c-0.4,0.1-0.8,0.3-1.2,0.4
			c-0.5,0.3-1.1,0.5-1.8,0.7c-0.6,0.2-1.3,0.3-2.1,0.3c-1,0-2-0.3-3.1-0.9c-0.9-0.8-1.6-1.7-2.2-2.8c-0.5-1.1-0.9-2.3-1.1-3.6
			c0.1-0.4,0.2-0.8,0.2-1.2c0.1-0.3,0.1-0.7,0.1-1.2c0-0.5,0-1.1-0.1-1.7c-0.1-0.6-0.1-1.2-0.2-1.9c0-0.7,0-1.4,0.1-2.1
			c0.1-0.7,0.2-1.4,0.3-2.1c0.1-0.5,0.1-0.9,0.2-1.3c0.1-0.4-0.1-0.7-0.3-0.8c-0.2-0.2-0.6-0.1-1.1,0.2c-0.5,0.4-0.9,0.7-1.1,1
			c-0.3,0.3-0.5,0.5-0.6,0.7c-0.1,0.2-0.3,0.4-0.6,0.6c-0.5,0.4-1.1,0.8-1.9,1.1c-0.4,0.3-0.7,0.6-1,0.8c-0.3,0.3-0.5,0.6-0.8,0.8
			c-0.5,0.2-0.9,0.4-1.1,0.7c-0.6,0.4-1.2,0.8-1.8,1.2c-0.6,0.4-1.2,0.8-1.8,1.2c-0.4,0.4-0.9,0.8-1.4,1.2c-0.5,0.3-0.9,0.6-1.2,0.7
			c-0.3,0.1-0.6,0-0.9-0.1c-0.3-0.1-0.6-0.2-1-0.3c-0.2,0-0.3,0.1-0.5,0.2c-0.2,0.1-0.3,0.2-0.4,0.2c-0.2,0-0.4-0.1-0.6-0.3
			c-0.2-0.2-0.4-0.2-0.5-0.1l-0.5-0.2c-0.1-0.1-0.2-0.2-0.3-0.2c-0.1,0-0.2-0.1-0.3-0.1c-0.1-0.1-0.2-0.2-0.2-0.4
			c0-0.2-0.1-0.3-0.2-0.4c-0.2-0.1-0.3-0.2-0.4-0.2c-0.1,0-0.2,0-0.3-0.1c-0.4-0.2-0.7-0.4-1.1-0.6c-0.3-0.2-0.7-0.4-1.1-0.7
			c0.1-0.1,0.4-0.2,1-0.2c0.5,0,0.9-0.2,1-0.5c0.1-0.3-0.1-0.6-0.3-0.9c-0.3-0.3-0.4-0.6-0.4-0.9c-0.1-0.3-0.1-0.5-0.1-0.8
			c0-0.3-0.1-0.7-0.2-1.1c-0.1-1.1-0.1-2.3,0-3.8c0.1-1.4,0.3-2.9,0.6-4.3c0.2-0.9,0.4-2,0.8-3.3c0.4-1.4,0.8-2.7,1.2-4.1
			c0.5-1.4,0.9-2.7,1.3-4c0.4-1.3,0.8-2.3,1-3c-0.4-0.1-1-0.1-1.9,0c-0.9,0.1-1.5,0.2-2,0.2c-1.4,0.1-2.3,0.2-2.7,0.2
			c-0.4,0-0.8,0-1,0c-0.2,0-0.6,0-1,0c-0.5,0-1.4,0.1-2.9,0.2c-0.2,0.1-0.5,0.1-0.9,0.1c-0.5,0-0.9,0-1.4,0c-0.5,0-0.9,0-1.2,0
			c-0.4,0-0.6,0.1-0.6,0.1c-0.1,0.1-0.3,0.6-0.6,1.3c-0.3,0.8-0.7,1.6-1,2.5c-0.3,0.9-0.7,1.7-0.9,2.5c-0.3,0.8-0.4,1.2-0.5,1.2
			c-0.3,0.6-0.6,1.5-0.8,2.6c-0.2,1.1-0.4,2-0.5,2.8c-0.1,0.2-0.2,0.8-0.4,1.8c-0.2,1-0.5,2.2-0.8,3.6c-0.3,1.3-0.6,2.7-0.8,4
			c-0.2,1.3-0.4,2.4-0.5,3.1c-0.1,1.2-0.2,2.3-0.2,3.3c0,1,0,2.1,0,3.3c0.1,0.9,0.2,1.7,0.2,2.5c0.1,0.8,0.3,1.5,0.6,2.1
			c0.1,0.1,0.2,0.2,0.3,0.3c0.2,0.1,0.2,0.2,0.1,0.4c-0.2-0.3-0.4-0.3-0.5-0.1c-0.1,0.2-0.2,0.3-0.3,0.3c-0.6,0.2-1.3,0.2-2-0.1
			c-0.5-0.1-1-0.4-1.6-0.9c-0.6-0.5-1-0.9-1.3-1.3c-0.8-1.1-1.3-2.5-1.8-4.1c-0.4-1.6-0.7-3.4-0.7-5.3c-0.1-0.9-0.1-1.8,0-2.6
			c0.1-0.8,0.3-1.8,0.4-2.9c0.1-1.3,0.2-2.7,0.4-4c0.2-1.3,0.4-2.6,0.8-3.8c0.2-0.7,0.5-1.7,0.9-2.9c0.4-1.2,0.9-2.5,1.3-3.8
			c0.5-1.3,0.9-2.5,1.3-3.7c0.4-1.2,0.7-2,0.9-2.6c-0.8-0.1-1.2-0.2-1.4-0.2c-0.2,0-0.3,0-0.3,0c0,0-0.1,0.1-0.3,0.1
			c-0.2,0-0.6,0-1.4,0c-0.4,0-0.9-0.1-1.3-0.2c-0.4-0.1-0.8-0.1-1.2-0.1c-0.3,0.1-0.6,0.2-1,0.2s-0.7,0-1.1,0c-0.6,0-1.2,0-1.7-0.1
			c-0.5-0.1-1.1-0.1-1.8,0c-0.2,0.1-0.4,0.1-0.6,0.2c-0.2,0.1-0.3,0.1-0.4,0.1h-2.6c-0.4,0.1-0.8,0.1-1.2,0.2
			c-0.4,0.1-0.8,0.2-1.2,0.2c-0.3,0-0.5,0-0.7,0c-0.2,0-0.4,0-0.7,0.1c-0.2,0-0.4,0-0.6,0c-0.2,0-0.4,0-0.5,0
			c-0.2-0.1-0.4-0.1-0.7-0.3c-0.2-0.1-0.5-0.3-0.8-0.4c-0.2-0.2-0.4-0.2-0.6-0.2c-0.2-0.1-0.2-0.2-0.2-0.2c0-0.1,0-0.1-0.1-0.2
			c0.1-0.2,0.3-0.3,0.5-0.3c0.2,0,0.4-0.1,0.6-0.3c0.2-0.1,0.4-0.2,0.6-0.4c0.2-0.2,0.4-0.4,0.6-0.6c1.4-1.2,3.1-2,4.9-2.4
			c1.8-0.4,3.9-0.6,6.4-0.5c1.1,0.1,2,0.2,2.5,0.2c0.5,0.1,1,0.1,1.5,0.2c0.5,0.1,1,0.2,1.6,0.3c0.6,0.1,1.5,0.2,2.7,0.4
			c0.4,0,0.8,0.1,1.2,0.2c0.4,0.1,0.7,0.1,1,0.1c0.1-0.1,0.3-0.4,0.5-0.9c0.2-0.5,0.4-1.1,0.6-1.6c0.6-1.3,1.2-2.4,1.6-3.1
			c0.5-0.7,0.9-1.4,1.3-2c0.4-0.6,0.9-1.2,1.4-1.9c0.5-0.7,1.1-1.6,1.8-2.9c0.3-0.4,0.6-0.8,0.8-1.1c0.2-0.3,0.2-0.7,0-1.2
			c0.7-0.5,1.3-0.6,1.9-0.3c0.2,0.1,0.3,0.3,0.4,0.4c0.1,0.2,0.2,0.4,0.3,0.5c0.4,0.4,0.7,0.6,0.9,0.7c0.1,0.2,0.1,0.5,0,0.7
			c-0.1,0.3-0.2,0.5-0.2,0.8c-0.1,0.6-0.2,1-0.2,1.3c0,0.3-0.1,0.7-0.3,1.1c-0.3,0.3-0.5,0.5-0.6,0.6c-0.1,0.1-0.2,0.4-0.4,1
			c-0.1,0.2-0.2,0.6-0.4,1.1c-0.2,0.5-0.3,0.9-0.4,1.2c-0.3,0.8-0.5,1.3-0.6,1.7c-0.1,0.4-0.2,0.8-0.6,1.3c-0.1,0.2-0.1,0.4-0.3,0.8
			c-0.1,0.4-0.3,0.7-0.4,0.8c-0.1,0.2-0.1,0.5-0.2,0.8c-0.1,0.3-0.2,0.6-0.2,0.8c1.4,0.1,2.5,0.1,3.3,0.1c0.8,0,1.5,0,2.1,0
			c0.7,0,1.4,0,2.1,0c0.7,0,1.8-0.1,3.2-0.1c0.6,0,1.4-0.1,2.5-0.2c1-0.2,1.9-0.3,2.7-0.4c0.6-0.3,1-0.5,1.2-0.6
			c0.2-0.1,0.4-0.4,0.6-0.9c0.2-0.5,0.3-0.9,0.6-1.4c0.3-0.5,0.5-0.8,0.6-0.8c0.1-0.1,0.3-0.3,0.4-0.7c0.1-0.4,0.2-0.6,0.3-0.6
			c0.1-0.1,0.2-0.3,0.3-0.7c0.3-0.3,0.5-0.7,0.7-1.1c0.2-0.4,0.4-0.7,0.7-1c0.3-0.3,0.5-0.6,0.8-0.8c0.3-0.2,0.5-0.4,0.6-0.7
			c0.1-0.2,0.2-0.4,0.4-0.8c0.2-0.4,0.4-0.5,0.8-0.4c-0.1-0.4,0-0.9,0.4-1.4c0.4-0.5,0.7-0.9,1-1.1c0.1-0.1,0.2-0.2,0.2-0.4
			c0-0.1,0.1-0.2,0.2-0.3c0.1-0.2,0.2-0.3,0.4-0.3c0.1-0.1,0.3-0.2,0.4-0.4c0.1-0.1,0.2-0.2,0.2-0.4c0-0.2,0.1-0.3,0.3-0.4
			c0.3-0.4,0.6-0.8,0.9-1.1c0.3-0.3,0.6-0.7,0.9-1.1c0.2-0.3,0.3-0.6,0.4-1c0.1,0,0.1,0,0.2-0.1c0.1-0.1,0.2-0.1,0.3-0.2
			c0.2,0,0.3-0.1,0.4-0.2c0.1-0.1,0.1-0.2,0-0.3c0-0.1,0-0.2,0.1-0.3c0.1-0.1,0.2-0.1,0.3-0.2c0.1-0.1,0.2-0.1,0.3-0.2
			c0.1-0.1,0.2-0.2,0.2-0.4c0.1-0.1,0.1-0.3,0.2-0.4c0.2-0.2,0.4-0.4,0.7-0.4c0.3-0.1,0.6-0.2,0.8-0.4c0.3-0.3,0.5-0.5,0.6-0.8
			c0.1-0.2,0.3-0.4,0.5-0.6c0.4,0,0.7,0,0.9-0.1c0.5-0.1,0.9-0.3,1.2-0.6c0.3-0.3,0.7-0.6,1.2-0.8c-0.4-0.2-0.8-0.1-1,0.1
			c-0.3,0.2-0.6,0.4-0.9,0.4c0.2-0.4,0.5-0.7,0.9-0.8c0.4-0.1,0.6-0.4,0.8-0.9c0.2,0.3,0.4,0.4,0.8,0.4c0.3,0,0.7-0.2,0.9-0.5
			c0.4,0.1,0.7-0.1,0.7-0.6c0.9,0,1.9,0.1,2.8,0.2c1,0.1,1.9,0.4,2.9,0.7c0.4,0.1,0.8,0.2,1.2,0.3c0.4,0.2,0.8,0.3,1.2,0.5
			c1.1,0.4,2,0.8,2.9,1.1c0.8,0.3,1.7,0.7,2.6,1.1c0.4,0.3,0.8,0.6,1.1,0.9c0.4,0.3,0.7,0.7,1,0.9c0.5,0.8,0.8,1.5,1.1,2.2
			c0.2,0.7,0.3,1.6,0,2.7l-0.2,1.9c-0.2,0.3-0.3,0.5-0.4,0.6c-0.1,0.1-0.3,0.2-0.4,0.4c-0.2,0.3-0.4,0.5-0.4,0.8
			c-0.1,0.3-0.2,0.5-0.3,0.8c-0.6,0.8-1.2,1.5-1.8,2c-0.6,0.5-1.2,1.1-1.9,1.6c-1,0.6-1.9,1.2-2.9,1.7c-1,0.6-2,1.1-3.1,1.6
			c-1.9,0.8-3.8,1.6-5.8,2.5c-2,0.9-4,1.7-6,2.3c-0.3,0.2-0.6,0.3-0.9,0.3c-0.1,0.1-0.2,0.1-0.3,0.1c-0.1,0-0.2,0.1-0.2,0.1
			c-0.4,0.1-0.7,0.2-1,0.2c-0.3,0-0.5,0.1-0.8,0.1c-0.2,0.1-0.4,0.2-0.6,0.3c-0.2,0.1-0.4,0.2-0.6,0.3c-0.4,0.2-0.9,0.3-1.5,0.4
			c-0.6,0.1-1.1,0.3-1.4,0.6c-0.1,0-0.1,0.1-0.3,0.4c-0.1,0.3-0.3,0.6-0.4,0.9c-0.1,0.3-0.3,0.7-0.4,1c-0.1,0.3-0.2,0.5-0.2,0.6
			c-0.2,0.3-0.3,0.6-0.4,0.8c-0.1,0.3-0.1,0.5-0.2,0.7c-0.4,1.2-0.9,2.5-1.4,3.8c-0.5,1.3-1,2.7-1.5,4.1c-0.1,0.1-0.2,0.3-0.2,0.6
			c0,0.3-0.1,0.6-0.3,0.8c-0.2,0.7-0.4,1.4-0.5,2.2c-0.1,0.8-0.2,1.5-0.4,2.2c0.3,0,0.6-0.1,0.9-0.3c0.3-0.2,0.6-0.4,0.8-0.6
			c1.4-0.9,2.8-1.7,4.3-2.5c1.4-0.8,3-1.4,4.5-1.9c0.8-0.2,1.5-0.4,2.3-0.5c0.8-0.1,1.5-0.1,2.1,0c0.6,0.2,1.1,0.4,1.6,0.7
			c0.5,0.3,0.9,0.7,1.2,1.1c0.2,0.1,0.4,0.3,0.5,0.5c0.1,0.2,0.3,0.4,0.5,0.5c0.2,0.1,0.5,0.2,0.7,0.2c0.3,0.1,0.5,0.2,0.8,0.4
			c0.3,0.2,0.6,0.5,1,0.9c0,0.3,0.1,0.6,0.2,1c0.2,0.4,0.2,0.8,0.2,1.1c-0.1,0.3-0.2,0.5-0.4,0.6c-0.2,0.2-0.3,0.4-0.3,0.7
			c-0.4,0.7-0.6,1.5-0.7,2.4c-0.1,0.9-0.2,1.7-0.4,2.5c-0.3,0.8-0.6,1.4-1,2.1c-0.4,0.6-0.7,1.3-0.9,1.9c-0.1,0.2-0.1,0.4-0.1,0.6
			c0,0.2,0,0.3,0,0.4c-0.2,1.2-0.6,2.4-1,3.7c-0.5,1.3-0.6,2.6-0.4,3.9c0.7,0.2,1.3,0.2,1.9,0c0.6-0.2,1.1-0.5,1.7-0.7
			c0.6-0.3,1.1-0.6,1.6-0.9c0.5-0.3,0.9-0.6,1.4-0.9c0.5-0.3,1.1-0.8,1.9-1.6c0.8-0.8,1.5-1.6,2.4-2.5c0.8-0.9,1.6-1.8,2.4-2.7
			c0.8-0.9,1.4-1.5,1.8-1.9c1.3-1.3,2.3-2.3,3.1-3.1c0.8-0.8,1.7-1.6,2.6-2.4c0.3-0.3,0.6-0.5,1-0.8
			C140,150.4,140.4,150.3,140.9,150.3z M109.9,124.7c-0.2,0.3-0.3,0.5-0.6,0.8c-0.2,0.2-0.3,0.6-0.3,0.9c0.3,0.2,0.5,0.2,0.8,0
			c0.2-0.2,0.5-0.3,0.8-0.1c0.2-0.3,0.5-0.4,0.8-0.4c0.3,0,0.6-0.1,0.8-0.2c0.6-0.1,1.1-0.2,1.5-0.4c0.4-0.2,0.8-0.3,1.2-0.3
			c0.3-0.1,0.6-0.2,1-0.4c0.7-0.3,1.4-0.5,2.1-0.7c0.7-0.2,1.3-0.5,2-0.8c2.5-0.7,4.7-1.6,6.7-2.6c1.4-0.8,2.8-1.7,4.1-2.8
			c1.3-1.1,2.3-2.3,2.9-3.7c0.3-0.9,0.4-1.6,0.2-2.4c-0.2-0.7-0.3-1.4-0.6-2.1c-0.1-0.1-0.2-0.1-0.3-0.2c0-0.4,0-0.7,0-0.7
			c0-0.1-0.1-0.3-0.4-0.6c-0.2-0.4-0.4-0.6-0.6-0.8c-0.2-0.2-0.6-0.3-1-0.5c-0.1,0-0.1,0-0.1-0.1c0-0.1,0-0.1-0.1-0.1
			c-0.4-0.2-0.9-0.3-1.5-0.3c-0.6,0-1,0.1-1.2,0.4c-0.3,0.1-0.5,0.2-0.6,0.4c-0.2,0.1-0.3,0.3-0.6,0.4c-0.2,0-0.4,0-0.6,0.1
			c-0.2,0.1-0.3,0.1-0.4,0.2c-0.4,0.1-0.7,0.3-0.9,0.4c-0.2,0.2-0.4,0.4-0.8,0.7c-0.1,0.1-0.3,0.2-0.5,0.2c-0.2,0-0.4,0.1-0.6,0.2
			c-0.7,0.4-1.3,0.9-1.7,1.4c-0.5,0.6-1,1.1-1.6,1.5l-0.1,1c-0.6,0.1-1,0.2-1.3,0.4c-0.3,0.2-0.5,0.5-0.8,1
			c-0.5,0.4-0.9,0.8-1.3,1.4c-0.4,0.5-0.8,1-1.3,1.5c-0.1,0.1-0.2,0.2-0.3,0.3c-0.1,0.1-0.2,0.2-0.2,0.3c-0.1,0.1-0.1,0.2-0.1,0.4
			c0,0.1-0.1,0.2-0.1,0.3c-0.2,0.2-0.4,0.4-0.6,0.6c-0.2,0.2-0.3,0.4-0.4,0.6c-0.2,0.3-0.4,0.5-0.4,0.8c-0.1,0.3-0.3,0.5-0.5,0.8
			c-0.1,0.2-0.2,0.3-0.3,0.4c-0.1,0.1-0.1,0.2-0.2,0.3c-0.4,0.5-0.8,1-1,1.5C110.5,123.7,110.2,124.2,109.9,124.7z"/>
		<path class="st0" d="M168.5,150.9c0.4,0.1,0.7,0.5,0.9,1.1c0.2,0.6,0,1.2-0.6,1.8c-0.1,0.3-0.3,0.6-0.5,0.9
			c-0.2,0.3-0.5,0.7-0.7,0.9c-0.1,0.1-0.3,0.3-0.6,0.4c-0.3,0.2-0.4,0.3-0.4,0.4c-0.2,0.1-0.4,0.2-0.7,0.6c-0.3,0.3-0.5,0.5-0.6,0.6
			c-0.1,0.1-0.4,0.2-0.8,0.5c-0.4,0.3-0.7,0.5-0.8,0.6c-0.6,0.3-1,0.5-1.1,0.8c-0.1,0.2-0.5,0.6-1,0.9c-0.4,0.1-0.8,0.3-1.3,0.4
			c-0.5,0.2-0.9,0.4-1.1,0.7c-0.4,0.3-0.7,0.4-1,0.4s-0.6,0.2-0.9,0.6c-0.3-0.1-0.7,0-1,0.2c-0.4,0.2-0.8,0.3-1.3,0.4
			c-0.3,0.1-0.6,0.2-0.9,0.2c-0.3,0.1-0.7,0.1-1,0.1c-1.2,0.5-2.4,0.8-3.7,0.8c-0.7,0.2-1.5,0.2-2.5,0c-0.2-0.1-0.3-0.1-0.4-0.1
			c-0.1,0-0.3,0-0.4,0c-0.5-0.2-1-0.3-1.5-0.4c-0.5,0-1-0.1-1.4-0.3c-0.1,0-0.2-0.1-0.5-0.2c-0.3-0.1-0.6-0.3-0.9-0.4
			c-0.3-0.1-0.6-0.3-0.9-0.4c-0.3-0.1-0.5-0.2-0.5-0.2c-0.3-0.1-0.5-0.3-0.7-0.6c-0.2-0.3-0.4-0.6-0.6-1c-0.2-0.3-0.4-0.7-0.6-1
			c-0.2-0.3-0.4-0.5-0.6-0.7c-0.1-0.1-0.2-0.1-0.4,0c-0.1,0-0.3,0-0.4,0c-0.2-0.1-0.3-0.3-0.4-0.5c-0.1-0.2-0.1-0.4-0.2-0.5
			c-0.1-0.5-0.1-0.9,0.2-1.3c0.2-0.4,0.2-0.7,0.1-1c0.1-0.1,0.2-0.1,0.3-0.1c0.1,0,0.2-0.1,0.3-0.3c-0.3-0.3-0.5-0.7-0.4-1.2
			c0-0.5,0.1-1,0.3-1.6c0.2-0.5,0.4-1,0.6-1.5c0.2-0.5,0.4-0.9,0.5-1.1c0.1-0.3,0.1-0.6,0.1-0.8c0-0.2,0-0.4,0.1-0.6
			c0.1-0.2,0.3-0.3,0.4-0.4c0.2-0.1,0.3-0.3,0.4-0.4c0.1-0.4,0.3-0.8,0.6-1.2c0.3-0.5,0.7-1.1,1.2-1.7c0.5-0.6,1.1-1.2,1.7-1.8
			c0.2-0.3,0.5-0.6,0.8-0.8c0.3-0.2,0.7-0.5,1-0.9c0.4-0.2,0.8-0.3,1-0.5c0.3-0.2,0.6-0.4,1-0.7c0.8-0.6,1.7-0.9,2.6-0.9
			c0.9,0.1,1.7,0.2,2.5,0.3c0.3,0.1,0.4,0.2,0.5,0.4c0.1,0.2,0.2,0.3,0.4,0.4c0.1,0.1,0.2,0.1,0.3,0c0.1-0.1,0.2-0.1,0.4-0.1
			c0.3,0.1,0.7,0.3,1.1,0.5c0.4,0.2,0.8,0.5,1.2,0.7c0.4,0.3,0.8,0.5,1,0.8c0.3,0.3,0.5,0.5,0.5,0.7c0.1,0.1,0.1,0.2,0.2,0.3
			c0.1,0.1,0.2,0.2,0.2,0.3c0.2,0.8,0.2,1.3,0,1.6c-0.2,0.3-0.4,0.7-0.5,1.1c-0.4,0.5-0.8,0.9-1.2,1.1c-0.3,0.3-0.7,0.6-0.9,1
			c0,0.1-0.1,0.3-0.4,0.5c-0.3,0.2-0.5,0.4-0.5,0.6c-0.4,0.4-0.9,0.7-1.5,1c-0.6,0.3-1.1,0.7-1.6,1.1c-0.1,0.1-0.2,0.2-0.4,0.4
			c-0.2,0.1-0.5,0.3-0.7,0.4c-0.3,0.2-0.7,0.4-1,0.6c-0.1,0.1-0.3,0.2-0.5,0.2c-0.2,0.1-0.4,0.1-0.5,0.2c-0.2,0.1-0.4,0.3-0.6,0.6
			c-0.3,0.3-0.6,0.5-1,0.7c-0.1,0.1-0.2,0.1-0.4,0.1c-0.2,0-0.3,0-0.3,0.1c-0.3,0.1-0.5,0.3-0.8,0.6c-0.3,0.3-0.6,0.4-1,0.3
			c-0.1,0.2-0.2,0.5-0.3,1c-0.1,0.4-0.1,0.9,0,1.4c0.1,0.5,0.3,0.9,0.6,1.3c0.3,0.4,0.8,0.6,1.5,0.7c0.1,0,0.4,0.1,0.8,0.2
			c0.4,0.1,0.7,0.2,0.9,0.3c0.9,0.1,1.8,0,2.9-0.2c1-0.2,2-0.4,2.9-0.5c2-0.5,4-1.2,6-2.1c1.9-0.9,3.6-1.9,5.1-2.8
			c0.3-0.2,0.4-0.3,0.5-0.4c0.1,0,0.2-0.1,0.4-0.2c0.2-0.1,0.5-0.3,1-0.6c0.4-0.3,0.8-0.6,1.2-1c0.4-0.3,0.8-0.7,1.1-1.1
			C168.4,151.6,168.5,151.2,168.5,150.9z M145.4,151.7c0.9-0.5,1.8-1.1,2.6-1.9c0.8-0.8,1.7-1.4,2.6-2c0.3-0.3,0.7-0.6,1-0.9
			c0.3-0.3,0.6-0.6,0.7-0.9c0.1-0.2,0.1-0.4,0.1-0.6c-0.1-0.2-0.1-0.3-0.1-0.4c-0.2-0.1-0.3-0.1-0.5-0.1c-0.1,0-0.1,0-0.1,0.1
			c-1.3,0.7-2.5,1.6-3.6,2.9c-1.1,1.2-2.1,2.4-3.1,3.7c0,0.2,0.1,0.2,0.2,0.2C145.3,151.8,145.3,151.7,145.4,151.7z"/>
	</g>
	<g>
		<path class="st0" d="M3.4,235.3c0.4,0.2,0.6,0.6,0.6,1.1c0,0.5,0,0.9,0.1,1.3c0,0.2,0.1,0.4,0.2,0.6c0.1,0.2,0.2,0.3,0.2,0.5
			c0.1,0.4,0.1,0.9,0,1.6c-0.1,0.6,0.1,1.2,0.6,1.6c0,0.4-0.1,0.6-0.2,0.6c-0.1,0.1-0.1,0.2,0.1,0.4c0.3,0.1,0.4,0.1,0.3-0.2
			c-0.1-0.2,0-0.3,0.3-0.2c0.4,0.1,0.8,0.2,1.3,0.3c0.5,0.1,0.7-0.1,0.7-0.6c0.1,0.3,0.4,0.5,0.7,0.6c0.4,0.1,0.8,0.3,1.4,0.6
			c0.5,0.3,0.9,0.5,1.3,0.7c0.4,0.2,1,0.3,1.7,0.5c0-0.1-0.1,0.1-0.2,0.5c1.2,0.7,2.3,1,3.5,0.9c1.1-0.1,2.3,0,3.7,0.4
			c0-0.4,0-0.5,0.1-0.5c-0.3-0.5-0.7-0.6-1.3-0.4c-0.6,0.2-1,0.3-1.3,0.2c0.1-0.4,0.4-0.6,0.8-0.7c0.4,0,0.9,0,1.4,0.1
			c0.5,0.1,1,0.1,1.4,0.2c0.5,0,0.8-0.1,0.9-0.5c0.5,0.4,1.2,0.5,2.1,0.3c0.9-0.1,1.6-0.2,2.2-0.2c0,0.2-0.1,0.3-0.3,0.2
			c-0.2-0.1-0.2,0-0.1,0.3c0.6,0.2,1.3,0.3,2.1,0.4c0.7,0,1.5-0.1,2.2-0.5c0.1,0,0.4,0,0.7-0.1c0.4-0.1,0.7-0.2,1.1-0.5
			c-0.2-0.4-0.5-0.4-0.8-0.2c-0.3,0.2-0.6,0.3-0.9,0.3c0-0.4,0.1-0.5,0.3-0.5c0.2,0,0.3-0.1,0.4-0.2c0.1-0.1,0.1-0.2,0.2-0.4
			c0.1-0.2,0.4-0.3,0.9-0.3c0.1-0.3,0.1-0.4-0.2-0.5c-0.3,0-0.4-0.1-0.3-0.3c0.3-0.3,0.7-0.5,1-0.8c0.3-0.2,0.4-0.7,0.3-1.3
			c0.3,0.1,0.6,0.2,1,0.3c0.4,0,0.7,0,1.1,0c0.3,0,0.5-0.1,0.7-0.3c0.1-0.2,0.1-0.4-0.2-0.6c0.8,0.1,1.7,0,2.6-0.2
			c0.9-0.2,1.8-0.4,2.6-0.7c0.8-0.3,1.6-0.7,2.3-1.2c0.7-0.5,1.2-0.9,1.5-1.3c0.4-0.6,0.5-1.2,0.5-1.9c0-0.7-0.1-1.4-0.3-2.1
			c-0.5-1.5-1.1-3-1.9-4.5c-0.8-1.4-1.6-2.8-2.4-3.9c-0.7-0.8-1.4-1.6-2-2.4c-0.6-0.8-1.3-1.5-2.1-2.3c-0.4-0.5-0.6-0.9-0.9-1.3
			c-0.2-0.3-0.6-0.7-1.2-1.1c-0.1-0.1-0.4-0.3-0.7-0.5c-0.4-0.2-0.6-0.3-0.7-0.5c0-0.1,0-0.3,0.1-0.4c0-0.1,0-0.3-0.1-0.4
			c-0.1-0.1-0.4-0.2-0.7-0.3c-0.3-0.1-0.6-0.2-0.8-0.5c-0.1-0.1-0.3-0.3-0.4-0.5c-0.1-0.2-0.2-0.4-0.4-0.5h-0.2
			c-0.1,0-0.2,0-0.3-0.1c-0.1-0.1-0.3-0.4-0.5-0.6c-0.2-0.3-0.4-0.5-0.5-0.7c-0.5,0-0.9-0.1-1.2-0.4c-0.4-0.3-0.7-0.7-0.9-1.1
			c-0.3-0.4-0.6-0.7-0.8-0.9c-0.4-0.3-0.6-0.4-0.9-0.4c-0.2,0-0.5-0.1-0.8-0.4c-0.4-0.3-0.6-0.6-0.7-0.8c-0.1-0.3-0.4-0.6-0.6-0.9
			c-0.3-0.4-0.8-0.7-1.5-0.8c-0.4-0.2-0.6-0.5-0.6-0.7c-0.1-0.3-0.2-0.5-0.4-0.6c-0.1-0.1-0.3-0.3-0.6-0.5c-0.2-0.2-0.4-0.3-0.6-0.5
			c-0.4-0.1-0.8-0.5-1.3-0.9c-0.1,0-0.1-0.1-0.1-0.2c0-0.1,0-0.2-0.1-0.3c-0.3-0.4-0.7-0.7-1.2-1c-0.5-0.3-0.9-0.7-1.2-1.2l-1.1-2.1
			c-0.3-0.7-0.6-1.3-0.9-1.8c-0.3-0.5-0.6-1.1-0.9-1.7c-0.4-0.6-0.6-0.9-0.6-1.1c0-0.1,0-0.1,0.1-0.2c0.1-0.1,0.1-0.2,0.1-0.3
			c-0.1-0.2-0.1-0.4-0.2-0.6c-0.1-0.2-0.1-0.3-0.1-0.5c0-0.1,0-0.4,0.1-0.8c0-0.4,0.1-0.8,0.1-1.1c0-0.4-0.1-0.6-0.2-0.9
			c-0.1-0.2-0.1-0.5,0.1-0.7c0-0.1,0-0.2,0.1-0.3c0-0.1,0.1-0.2,0.1-0.3c0-0.8-0.1-1.5-0.2-2.2c-0.1-0.7-0.3-1.4-0.4-2.2
			c0-0.3,0.2-0.4,0.6-0.1c0-0.4-0.1-0.7-0.3-0.9c-0.2-0.2-0.3-0.5-0.3-0.8c0.3-0.1,0.4-0.2,0.5-0.1c0,0.1,0.1,0.2,0.2,0.2
			c0.1-0.1,0.1-0.2,0-0.3c-0.1,0-0.1-0.2-0.1-0.4c0-0.3,0.2-0.6,0.6-1.1c0.4-0.5,0.6-0.8,0.8-1c-0.2,0.7-0.1,1.2,0.2,1.4
			c0.4,0.2,0.7,0.1,0.9-0.6c0-0.1,0-0.1,0.1-0.2c0,0,0.1-0.1,0.1-0.3v-0.3c0.4-0.8,0.9-1.7,1.6-2.7c0.7-1,1.4-1.8,2.1-2.4
			c0.5-0.6,1-1.1,1.6-1.7c0.6-0.6,1.3-1.1,2.1-1.4c0.4-0.4,0.8-0.6,1.2-0.7c0.5-0.1,1-0.2,1.7-0.4c0.5-0.1,0.9-0.2,1.3-0.4
			c0.4-0.2,0.7-0.3,1.1-0.4c0.6-0.1,1.3-0.2,1.9-0.2c0.7,0,1.3-0.1,2.1-0.2H34c0.3,0,0.6,0,0.9,0.1c0.3,0.1,0.5,0,0.6-0.1
			c0.4-0.1,0.5-0.2,0.5-0.3c0-0.1,0-0.3-0.1-0.7c1,0.4,1.9,0.7,2.8,1c0.9,0.3,1.7,0.7,2.6,1.1c0.4,0.1,0.8,0.3,1.1,0.4
			c0.3,0.1,0.6,0.3,1.1,0.7c0.4,0.1,0.6,0.3,0.8,0.5c0.2,0.2,0.4,0.3,0.8,0.2c0.1,0.3,0.2,0.6,0.5,0.8c0.4-0.1,0.8-0.1,1.2,0.2
			c0.5,0.2,0.9,0.5,1.3,0.7c0.6,0,1,0,1.3,0.1c0.2,0.1,0.3,0.2,0.4,0.3c0,0.1,0.1,0.2,0.3,0.3c0.3,0.3,0.5,0.4,0.7,0.5
			c0.2,0,0.4,0.1,0.6,0.1c0.6,0.1,1,0.4,1.4,0.7c0.4,0.3,0.8,0.6,1.3,1c0.9,0.8,1.7,1.5,2.5,2.3c0.7,0.7,1.5,1.6,2.3,2.6
			c0.4,0.7,0.6,1.3,0.7,1.8c0.1,0.5,0.2,1.2,0.4,2c0.1,0.4,0.3,0.9,0.4,1.5c0.1,0.7,0.2,1.4,0.2,2.1c0,0.7,0,1.4-0.1,1.9
			c-0.1,0.6-0.3,1-0.6,1.2c-0.8,0-1.5-0.1-2.1-0.3c-0.6-0.2-1.4-0.5-2.2-0.8c-0.2-0.1-0.5-0.1-0.9-0.2c-0.4,0-0.8-0.2-1.1-0.4
			c-0.1-0.1-0.2-0.2-0.3-0.4c-0.1-0.2-0.2-0.3-0.4-0.5c0-0.1-0.1-0.3-0.4-0.4c-0.1-0.1-0.2-0.1-0.3-0.1v-0.6c0-0.1,0-0.1-0.1-0.1
			c-0.1,0-0.2,0-0.2-0.1c-0.1-0.1-0.1-0.1-0.2-0.1c-0.1-0.1,0-0.2,0.1-0.3c0.1,0,0.2-0.1,0.2-0.2c0-0.1-0.1-0.3-0.2-0.4
			c-0.1-0.1-0.2-0.3-0.3-0.4c-0.2-0.1-0.3-0.3-0.2-0.6c0.1-0.3,0.1-0.5,0-0.6c-0.2-0.4-0.4-0.8-0.7-1.1c-0.2-0.3-0.6-0.6-1.1-0.8
			c0.1-0.4,0-0.6-0.2-0.7c-0.2-0.1-0.3-0.4-0.5-0.7c-0.4-0.6-0.7-1.1-1.1-1.6c-0.4-0.5-1.2-0.8-2.4-0.9c-0.4-0.1-1.1,0-1.9,0.2
			c-0.9,0.2-1.6,0.3-2.2,0.3c-0.2,0-0.4-0.1-0.5-0.2c-0.1-0.1-0.2-0.2-0.3-0.2c-0.5,0-0.9,0.1-1.2,0.3c-0.3,0.2-0.6,0.3-0.9,0.3
			c-0.1-0.1-0.2-0.2-0.2-0.3c0-0.1-0.1-0.2-0.3-0.3c-0.1-0.1-0.5-0.1-1,0.3c-0.5,0.3-1,0.5-1.4,0.5c-0.4-0.1-0.7-0.2-0.7-0.2
			c-0.4,0.1-0.7,0.2-1,0.4c-0.3,0.2-0.7,0.3-1.1,0.5c-0.7,0.3-1.3,0.6-1.8,0.9c-0.5,0.4-1,0.8-1.6,1.3c-0.3,0.1-0.6,0.3-0.9,0.6
			c-0.3,0.2-0.6,0.4-0.9,0.4c-0.4,0.3-0.7,0.4-0.9,0.5c-0.3,0-0.6,0.2-0.8,0.4c-0.1,0.1-0.3,0.3-0.5,0.5c-0.2,0.2-0.3,0.3-0.5,0.5
			c-0.1,0.1-0.4,0.4-0.9,0.8c-0.5,0.5-0.7,0.8-0.7,0.9c-0.4,0.7-0.5,1.4-0.4,1.9c0.1,0.6,0,1.1-0.3,1.4c-0.1-0.1-0.2-0.4-0.3-0.7
			c0-0.3-0.2-0.6-0.5-0.8c-0.7,0.4-0.9,0.8-0.6,1.2c0.3,0.5,0.5,0.8,0.5,0.9c-0.1,0.5-0.3,0.9-0.6,1.3c-0.3,0.4-0.3,0.8,0.1,1.3
			c0.3,0.6,0.8,1.3,1.5,1.9c0.7,0.7,1.4,1.2,2.1,1.7c0.1,0.1,0.3,0.2,0.4,0.4c0.1,0.2,0.2,0.4,0.4,0.6c0.4,0.2,0.7,0.4,0.9,0.6
			c0.3,0.2,0.6,0.5,0.9,0.8c0.1,0.1,0.3,0.2,0.5,0.3c0.2,0.1,0.3,0.3,0.3,0.4c0.1,0.1,0.2,0.2,0.1,0.4c-0.1,0.2,0,0.4,0.1,0.5
			c0.8,0.8,1.7,1.5,2.7,2.3c1.1,0.7,1.9,1.5,2.5,2.4c0.4,0.4,0.8,0.7,1.2,1.2c0.5,0.4,0.9,0.8,1.3,1.2c0.8,0.7,1.5,1.5,2.3,2.4
			c0.7,0.9,1.5,1.8,2.4,2.6c0.6,0.7,1.1,1.3,1.5,1.7c0.5,0.5,1,1,1.5,1.7c0.4,0.4,0.5,0.7,0.6,0.9c0,0.3,0.1,0.7,0.2,1.4
			c0.1,0.5,0.2,0.9,0.4,1.2c0.2,0.3,0.2,0.7,0.1,1.4c-0.1,0.1-0.2,0.2-0.3,0.3c-0.1,0.1-0.1,0.2-0.1,0.3c0,0.4,0.1,0.7,0.4,0.7
			c0.2,0.1,0.5,0.2,0.9,0.4c0.1,0.7,0.4,1.4,0.6,2c0.3,0.6,0.5,1.4,0.5,2.4c0.1,0.1,0.3,0.1,0.4-0.1c0.1-0.2,0.2-0.1,0.3,0.2
			c0.1,0.4,0.2,0.8,0.3,1.3c0,0.5,0.1,1,0.1,1.5c0.1,0.2,0.3,0.2,0.4,0.1c0.1-0.2,0.2-0.3,0.2-0.5c0.5,0.8,0.6,1.5,0.3,2.3
			c-0.3,0.7-0.5,1.6-0.5,2.5c0,0.2,0.1,0.4,0.2,0.5c0.1,0.1,0.1,0.4,0.1,0.7c0,0.1,0,0.3-0.1,0.5c-0.1,0.2-0.1,0.4-0.2,0.6
			c-0.1,0.3-0.2,0.5-0.1,0.7c0.1,0.2,0.2,0.3,0.2,0.5l-0.2,0.2l-0.1,0.1c-0.2,0.5-0.4,0.9-0.4,1.4c-0.1,0.4-0.2,0.8-0.3,1.2
			c-0.1,0.3-0.3,0.5-0.5,0.6c-0.2,0.1-0.4,0.3-0.5,0.4c0,0.1,0,0.2,0.1,0.4c0,0.2,0,0.3-0.1,0.4c-0.2,0.3-0.5,0.7-0.8,1
			c-0.4,0.3-0.7,0.6-0.9,1c-0.1,0.2-0.1,0.4-0.2,0.4c0,0.1-0.2,0.2-0.4,0.5c-0.1,0.1-0.4,0.3-0.9,0.8c-0.5,0.5-1,0.8-1.3,0.9
			c-0.1,0-0.1,0-0.2-0.1c-0.1-0.1-0.2-0.1-0.3,0c-0.3,0.2-0.5,0.5-0.7,0.9c-0.4,0.3-0.8,0.7-1.3,0.9c-0.5,0.3-1.1,0.5-1.8,0.6
			c0.4,0.4,0.9,0.4,1.6,0.2c0.6-0.2,1.1-0.2,1.3-0.1c-0.6,0.4-1.2,0.7-2,0.8c-0.8,0.1-1.5,0.2-2.1,0.4c-1.3,0.5-2.7,0.9-4.2,1.3
			c-1,0.1-2.1,0.3-3.4,0.4c-1.3,0.1-2.6,0.2-3.9,0.2c-0.9,0-1.8,0-2.6-0.1c-0.8-0.1-1.6-0.2-2.4-0.4c-0.1,0-0.3,0-0.4-0.1
			c-0.1-0.1-0.2-0.1-0.4-0.2c-0.4-0.1-0.8-0.1-1.2-0.1c-0.4,0-0.7,0-1.1,0c-0.1-0.1-0.4-0.3-0.8-0.5c-0.4-0.2-0.6-0.4-0.8-0.6v-0.2
			v-0.2c-0.2-0.1-0.5-0.1-0.8-0.1c-0.4,0-0.6,0-0.7-0.1c-0.1-0.1-0.3-0.2-0.5-0.4c-0.2-0.2-0.3-0.3-0.5-0.5
			c-0.2-0.1-0.4-0.2-0.6-0.3c-0.2-0.1-0.3-0.2-0.4-0.5c0.2,0,0.4,0.1,0.4,0.2c0.1,0.1,0.2,0.2,0.3,0.1c0.3-0.2,0.3-0.4,0.2-0.5
			c-0.2-0.1-0.2-0.3-0.2-0.7c0.8,0.3,1.4,0.7,2,1.2c0.6,0.4,1.2,0.7,2,0.8c0.6,0.1,1.2,0.1,1.7,0.1c0.5,0,1.1,0.1,1.6,0.4
			c0.1-0.4,0-0.5-0.2-0.5c-0.2,0-0.2-0.1,0-0.4c0.1,0.2,0.5,0.4,1.1,0.5c0.6,0.1,1.1,0.2,1.7,0.4c0.8,0.1,1.5,0.2,2.3,0.2
			c0.7,0,1.2-0.3,1.4-0.8c0.3-0.2,0.7-0.2,1.2-0.1c0.5,0.1,0.8,0,0.8-0.3c0-0.4-0.2-0.5-0.7-0.3c-0.5,0.1-1,0.2-1.6,0.2
			c-0.2,0-0.4-0.1-0.6-0.2c-0.2-0.1-0.4-0.1-0.7,0.1c-0.8,0.1-1.9,0.1-3.2-0.1c-1.3-0.1-2.4-0.2-3.3-0.4c-0.1,0.3,0,0.5,0.3,0.6
			c0.4,0,0.4,0.1,0.1,0.2c0,0.3-0.3,0.3-0.9,0c-0.6-0.3-1.1-0.5-1.4-0.6c-0.3-0.1-0.7-0.2-1.2-0.2s-0.9-0.1-1.2-0.3
			c-0.1-0.1-0.1-0.2,0.1-0.4c0.1-0.2,0.1-0.2-0.2-0.1c0.6,0.1,1.2,0.1,1.8,0.1c0.6,0,1.2,0.1,2,0.3c0.2,0.1,0.4,0.2,0.5,0.3
			c0.1,0.1,0.3,0.1,0.5,0.1c0.3,0,0.6,0,1-0.1c0.4-0.1,0.8-0.1,1.1,0c0.6,0.1,0.9,0.2,1.1,0.2c0.1-0.1,0.4-0.1,0.7-0.1
			c0.3,0,0.7,0,1.1-0.1c0.4,0,0.8,0,1.2,0.1c0.4,0,0.7-0.1,1.1-0.5c0.1-0.1,0.3-0.1,0.6,0c0.2,0.1,0.4,0.1,0.6-0.2
			c-0.1-0.5-0.4-0.7-0.7-0.5c-0.3,0.1-0.6,0.2-0.8,0.1c-0.1,0-0.3,0-0.5-0.1c-0.2,0-0.4-0.1-0.4-0.1c-0.4,0-0.7,0.1-1.1,0.2
			c-0.4,0.1-0.8,0.1-1.1,0c-0.1,0-0.3-0.1-0.4-0.2c-0.1-0.1-0.3-0.2-0.4-0.2c-0.4-0.1-0.7-0.1-1-0.1c-0.3,0-0.6,0.1-0.9,0.1
			c-0.4-0.1-0.9-0.2-1.4-0.3c-0.5-0.1-1,0-1.4,0.3c-0.2-0.1-0.4-0.3-0.4-0.5c-0.1-0.2-0.2-0.3-0.5-0.3c-0.2-0.1-0.3-0.1-0.3,0.1
			c0,0.2,0,0.3-0.2,0.2c-0.1,0.1-0.2,0-0.3-0.1c-0.1-0.1-0.2-0.2-0.3-0.2c-0.2-0.1-0.5-0.1-0.8,0c-0.4,0.1-0.7,0.1-1.1,0
			c-0.1,0-0.3-0.1-0.4-0.3c-0.1-0.2-0.3-0.3-0.5-0.3c-0.1-0.1-0.3,0-0.6,0.1c-0.2,0.1-0.5,0.2-0.9,0.1c-0.4-0.1-0.8-0.2-1.1-0.3
			c-0.3-0.1-0.7-0.2-1.2-0.4c-0.1,0-0.2-0.2-0.2-0.5c-0.2,0.3-0.4,0.4-0.7,0.5c-0.2,0-0.4,0.2-0.6,0.6c-0.4,0-0.6-0.1-0.7-0.4
			c-0.1-0.2-0.2-0.5-0.4-0.8c-0.5,0.3-0.9,0.3-1.2-0.1c-0.3-0.3-0.5-0.6-0.7-1c-0.1-0.1-0.1-0.2,0.1-0.3c0.1-0.1,0.1-0.2-0.1-0.4
			c0.1-0.1,0.1-0.2-0.1-0.3c-0.2,0-0.3-0.1-0.3-0.3c0-0.5,0.1-1.1,0.2-1.7c0.1-0.7-0.2-1-0.8-0.9c-0.2,0.1-0.3,0.2-0.2,0.1
			c0.1-0.1,0.1-0.1,0.2-0.2c0.4-0.6,0.6-1.2,0.7-2.1C3.3,237.3,3.4,236.4,3.4,235.3z M8.8,245.4c0.5,0.3,0.9,0.4,1.2,0.3
			c0.3-0.1,0.6,0,1,0.4c0.1-0.4,0.1-0.5-0.2-0.5c-0.2,0-0.3-0.1-0.1-0.5c0.2,0,0.3,0.1,0.3,0.3c0,0.2,0.1,0.2,0.4,0.1
			c0-0.1,0.1-0.2,0.4-0.2c-0.2-0.6-0.5-0.8-0.9-0.7c-0.4,0.1-0.9,0.1-1.5-0.1c0.1,0.3,0.1,0.5-0.1,0.5C9.3,244.9,9,245.1,8.8,245.4z
			 M13.2,246.4c0.1-0.4,0.1-0.6-0.2-0.6c-0.3-0.1-0.4,0-0.4,0.1c0.1,0.1,0.2,0.2,0.3,0.3C12.9,246.2,13,246.3,13.2,246.4z
			 M21.7,245.9c0.5,0.1,1,0.2,1.6,0.3c0.6,0,0.9-0.2,1.2-0.7C23.1,245.3,22.2,245.4,21.7,245.9z M27.7,248.9c0-0.2-0.2-0.3-0.5-0.3
			v0.3H27.7z M30.9,247.1c-2.2,0.4-3.2,1-3.1,1.8c0.4,0.1,0.7,0,0.9-0.2c0.3-0.2,0.6-0.3,0.8-0.5c0.4-0.1,0.7-0.2,1.1-0.1
			c0.4,0.1,0.7,0.1,0.9,0.1c0.4,0,0.8-0.1,1.3-0.3c0.4-0.2,0.8-0.4,1.2-0.7c-0.4-0.1-0.8-0.2-1.4-0.3C32.1,247,31.5,247,30.9,247.1z
			 M29.3,244.7c-0.1,0.1-0.3,0.1-0.5,0.2c-0.2,0.1-0.4,0.1-0.6,0.1c-0.1-0.2-0.1-0.3,0.3-0.3C28.8,244.8,29.1,244.8,29.3,244.7z
			 M32,244.6c0.3,0.4,0.6,0.3,0.7-0.2c-0.1-0.2-0.3-0.3-0.5-0.3C32.1,244.2,32,244.3,32,244.6z M35.8,168.7c0.1,0,0.2,0,0.2,0.1
			c0,0,0,0.1,0.1,0.1c0.2-0.1,0.2-0.1,0.1-0.2C36.1,168.5,35.9,168.5,35.8,168.7z M44.3,221.8c0-0.5-0.1-0.9-0.3-1.3
			c0.1,0.3,0.1,0.5,0.1,0.8C44.1,221.5,44.2,221.7,44.3,221.8z M47.9,226.5c0.3,0.4,0.4,0.8,0.2,1.5C48,227.7,47.9,227.2,47.9,226.5
			z M49.3,233.9c0,0.1-0.1,0.3-0.3,0.5c-0.2,0.2-0.3,0.3-0.5,0.3C48.5,234.4,48.8,234.1,49.3,233.9z"/>
		<path class="st0" d="M90.6,181c-0.3,1-0.7,2-1.3,3c-0.6,1-1.2,2.1-1.8,3.3c-0.4,1.1-0.9,2.2-1.3,3.4c-0.5,1.2-0.9,2.4-1.2,3.7
			c0.1,0.4,0.3,0.5,0.6,0.5c0.2,0,0.5,0,0.7-0.1c1.1,0.1,1.9,0.2,2.6,0.2c0.7,0,1.5-0.1,2.5-0.1c0.8,0.1,1.7,0.2,2.6,0.3
			c0.9,0.1,1.8,0.1,2.8,0.1c2.9,0.2,5.8,0.5,8.9,0.7c3.1,0.3,5.9,0.9,8.7,1.9c-0.4,0.1-0.5,0.3-0.5,0.4c0,0.1,0.1,0.3,0.2,0.6
			c-0.1,0.1-0.3,0.2-0.4,0.3c-0.1,0.1-0.3,0.1-0.4-0.1c-0.1,0.3,0,0.4,0.1,0.3c0.1-0.1,0.2-0.1,0.1,0.2c-1.1,0.1-2.1,0.1-3.2,0
			c-1.1-0.1-2.2,0-3.2,0.1c-0.6,0-1.1,0-1.6-0.1c-0.5,0-1,0-1.5,0.2c-0.8,0.1-1.6,0.1-2.5,0.2c-0.9,0-1.8,0-2.7-0.2
			c-1.2,0.1-2.3,0.3-3.4,0.4c-1.1,0.1-2.2,0.2-3.3,0.4c-0.3,0.1-0.6,0.1-1.1,0c-0.1,0.1-0.3,0.2-0.5,0.1c-0.2-0.1-0.3-0.1-0.5-0.1
			c-0.1,0-0.1,0-0.2,0.1c0,0.1-0.1,0.1-0.2,0.1c-0.4,0.1-0.7,0.2-0.9,0.3c-0.3,0.1-0.6,0.1-0.8,0.1c-0.5-0.1-1-0.1-1.6,0.1
			c-0.6,0.2-1,0.3-1.4,0.4c-1-0.1-1.6,0-2,0.3c-0.1,0.2-0.4,0.7-0.9,1.5c-0.5,0.8-0.8,1.4-0.9,1.9c-0.1,0.4-0.2,0.6-0.3,0.8
			c-0.1,0.2-0.2,0.5-0.3,0.8c-0.2,0.6-0.4,1.1-0.4,1.6c-0.1,0.5-0.2,1.1-0.5,1.8c-0.1,0.4-0.3,0.7-0.4,0.9c-0.1,0.2-0.2,0.4-0.1,0.6
			c-0.1,0-0.2,0.1-0.1,0.4c0.1,0.3,0.1,0.5,0.2,0.6c-0.2,0.4-0.4,0.7-0.6,1.2c-0.2,0.4-0.3,0.9-0.4,1.5c-0.4,1-0.7,2-0.9,3.1
			c-0.3,1.1-0.6,2.1-0.9,3.2c0,0.2-0.1,0.5-0.3,0.8c-0.2,0.4-0.3,0.6-0.3,0.7c-0.1,0.6-0.1,1.1-0.2,1.7c-0.1,0.6-0.2,1-0.3,1.4
			c-0.2,0.6-0.3,1.1-0.3,1.5c0,0.5-0.1,0.8-0.5,1.1c-0.1,0.4-0.1,0.7-0.1,1.1c0,0.4-0.1,0.8-0.2,1.3c-0.1,0.4-0.2,0.8-0.2,1.4
			c0,0.6-0.1,1.2-0.4,1.7c-0.1,0.1-0.2,0.3-0.3,0.4c-0.1,0.1-0.2,0.2-0.2,0.3c0.1,0,0.1,0,0.1,0.1v0.3c-0.1,0.1-0.1,0.1-0.2,0.1
			c-0.1,0-0.1,0-0.1,0.1c-0.1-0.1-0.1,0-0.1,0.3c0,0.2,0.1,0.4,0.1,0.6c0,0.1,0,0.1-0.1,0c-0.1-0.1-0.1-0.1-0.1,0
			c-0.2,0.5-0.3,1.1-0.4,1.8c0,0.7-0.1,1.2-0.3,1.6l-0.2,0.2c0,0.3,0,0.6,0,0.9s0.1,0.6,0.2,1c-0.1,2-0.1,3.8,0.3,5.4
			c0.3,1.6,0.9,3,1.6,4c0.1,0.3,0.1,0.3,0,0.2c-0.1-0.1-0.1-0.1-0.1,0.2c0.4,0.5,0.8,1,1.2,1.5c0.4,0.5,0.9,0.7,1.7,0.5
			c0.6,0.1,1.1,0.1,1.6-0.2c0.5-0.2,0.9-0.6,1.3-1c0.1-0.1,0.2-0.3,0.3-0.6c0-0.2,0.2-0.5,0.6-0.7c0.3,0.3,0.3,0.7,0.1,1
			c-0.2,0.3-0.4,0.6-0.4,0.8c-0.1,0.1-0.2,0.3-0.3,0.4c0,0.1-0.1,0.2-0.2,0.2c-0.1,0.3-0.5,0.6-1.1,0.8c-0.1,0.3-0.4,0.7-0.7,0.9
			c-0.4,0.3-0.8,0.6-1.3,1.1c-0.4,0.2-0.6,0.4-0.9,0.6c-0.2,0.2-0.7,0.3-1.3,0.5c-1.4,0.4-2.9,0.2-4.4-0.6c-1.5-0.7-2.8-1.6-3.7-2.6
			c-0.2-0.3-0.3-0.5-0.4-0.7c0-0.2-0.2-0.5-0.6-1.1c0-0.4-0.1-0.7-0.4-1.1c-0.2-0.4-0.5-0.7-0.9-1c-0.1-0.3-0.2-0.6-0.3-0.9
			c-0.1-0.3-0.1-0.6-0.1-0.9c-0.1-0.4-0.3-0.8-0.4-1.2c-0.1-0.5-0.2-0.9-0.4-1.2c0-0.6-0.1-1.4-0.3-2.2c-0.2-0.8-0.3-1.6-0.4-2.4
			c-0.1-0.8-0.2-1.6-0.2-2.4c0-0.8,0-1.6,0-2.4c0-0.1-0.1-0.3-0.2-0.5c-0.1-0.2-0.1-0.3-0.1-0.5c0-0.1,0-0.3,0.1-0.4
			c0.1-0.1,0.1-0.2,0-0.4c0.4-0.6,0.5-0.9,0.3-1.2c-0.1-0.3-0.1-0.9,0.1-1.9c0.2-1,0.4-1.8,0.5-2.4c0-0.3,0.1-0.6,0.2-0.9
			c0.1-0.2,0.2-0.5,0.1-0.9c0.2-0.4,0.3-1.1,0.3-2c0-0.9,0.1-1.5,0.3-1.9c0.1-0.2,0.2-0.5,0.3-0.8c0.1-0.4,0.2-0.6,0.2-0.7
			c0.3-1,0.5-1.7,0.6-2.3c0.1-0.5,0.4-1.1,0.6-1.7c-0.1,0.1-0.4,0.6-0.8,1.3c-0.4,0.7-0.7,1.2-0.9,1.4h-0.6c0.1,0.1,0.1,0.3,0.1,0.5
			c-0.4,0.6-0.7,1.1-1.1,1.7c-0.4,0.6-0.7,1.2-0.9,1.7c0-0.6,0.2-1.4,0.7-2.2c0-0.3,0.1-0.6,0.2-1.1c0.1-0.1,0.3-0.3,0.4-0.4
			c0.1-0.1,0.1-0.3,0.1-0.4c0.1-0.1,0.2-0.3,0.2-0.5c0-0.2,0-0.3,0.1-0.5c0-0.1,0.1-0.2,0.2-0.2c0.1,0,0.2-0.1,0.2-0.2
			c0.1-0.1,0.2-0.2,0.1-0.3c-0.1-0.1-0.1-0.2-0.1-0.3c0.1-0.1,0.3-0.2,0.4-0.3c0.1,0,0.1-0.2,0.1-0.4c0.1-0.1,0.1-0.3,0.1-0.5
			c0-0.2,0-0.4,0.1-0.6c-0.1-0.1-0.1-0.3,0.1-0.4c0.1-0.1,0.2-0.3,0.2-0.5c0.1-0.2,0.2-0.5,0.2-0.7c0.1-0.1,0.2-0.3,0.3-0.4
			c0.1-0.1,0.2-0.2,0.2-0.4c0.1-0.2,0.1-0.4,0.1-0.5c0-0.1-0.1-0.3-0.1-0.4c0-0.1,0.1-0.2,0.2-0.3c0.1-0.1,0.2-0.3,0.3-0.7
			c0.1-0.3,0.2-0.5,0.1-0.8c-0.1-0.2,0-0.4,0.1-0.6c0.1-0.1,0.3-0.3,0.4-0.5c0.1-0.2,0.2-0.4,0.2-0.6c0.1-0.4,0.1-0.6,0.1-0.7
			c0-0.1,0-0.4,0.2-0.7c0.1-0.3,0.3-0.5,0.5-0.5c0.2-0.1,0.3-0.2,0.4-0.3c0.1-0.1,0.1-0.2,0-0.3c-0.1-0.1-0.1-0.3,0-0.4
			c0.2-0.2,0.3-0.3,0.3-0.2c0.1-0.2,0.2-0.4,0.2-0.6c0-0.2-0.1-0.4-0.1-0.5c0-0.1,0.2-0.3,0.5-0.5c-0.1-0.1-0.2-0.3-0.1-0.4
			c0.1-0.1,0.1-0.2,0.2-0.2c0.1-0.6,0.3-1,0.5-1.3c0.2-0.3,0.3-0.6,0.4-0.9c-0.1,0-0.1,0,0.1-0.1c0.1,0-0.4,0.1-1.4,0.4
			c-1.1,0.1-2.2,0.1-3.3,0.2c-1.1,0-2.1,0.2-3,0.4c-1.4-0.1-2.8-0.1-4.1-0.1c-1.3,0-2.5-0.1-3.5-0.5c-0.3,0-0.6,0-0.8-0.1
			c-0.3-0.1-0.6-0.2-1.1-0.3c-0.6-0.3-1.2-0.6-1.7-0.9c-0.5-0.2-1-0.6-1.5-1.2c-0.4-0.3-0.9-0.6-1.3-0.8c-0.5-0.3-0.8-0.6-0.9-0.9
			c-0.1-0.1-0.2-0.3-0.3-0.5c0-0.2-0.1-0.4-0.1-0.5c0.8,0.1,1.5,0.1,2.2-0.1c0.7-0.2,1.3-0.4,1.9-0.6c1.3-0.6,2.6-1,4.1-1.2
			c1.5-0.2,2.9-0.5,4.3-0.9c2.5-0.4,5-0.6,7.4-0.8c2.4-0.2,5.1-0.3,8-0.2c0.7-0.1,1-0.1,0.8-0.1c-0.2,0-0.2,0,0.1-0.2
			c0.2-0.1,0.3-0.2,0.4-0.4c0-0.2,0.1-0.5,0.3-0.7c0.1-0.3,0.2-0.6,0.4-0.7c0.2-0.1,0.4-0.3,0.6-0.4c0.1-0.1,0.1-0.3,0.1-0.4
			c0-0.1,0-0.3,0.1-0.4c0-0.1,0.1-0.2,0.3-0.3c0.2-0.1,0.3-0.2,0.4-0.4c-0.1-0.3-0.2-0.5-0.2-0.5l0.3-0.3c0.7-0.6,1.1-1.1,1.2-1.5
			c0.8-1.5,1.9-3.3,3.3-5.4c0.3-0.3,0.5-0.7,0.7-1.2c0.2-0.4,0.4-0.7,0.7-0.8c0.2-0.3,0.4-0.5,0.5-0.6c0.1-0.1,0.2-0.3,0.3-0.5
			c0.1-0.1,0.2-0.2,0.3-0.4c0.1-0.2,0.1-0.3,0.1-0.4c0-0.5,0.4-0.6,1.1-0.2c0.1,0,0.2-0.1,0.3-0.2c0-0.1,0.1-0.1,0.2,0.1
			c0.3,0,0.5,0,0.6-0.1c0.1-0.1,0.3-0.1,0.6-0.1c0.1,0,0.2,0.1,0.4,0.2c0.2,0.1,0.4,0.2,0.6,0.2c0.1,0.1,0.3,0.3,0.5,0.5
			c0.2,0.2,0.4,0.4,0.8,0.6h0.2v0.2c0.2,0.1,0.4,0.2,0.6,0.3C90.3,180.4,90.5,180.6,90.6,181z"/>
		<path class="st0" d="M137.4,225.2c0.1,1.9-0.2,3.6-1.1,5c-0.5,0.4-0.7,0.6-0.6,0.6c0.1,0-0.1,0.1-0.6,0.4c-0.4,0.1-0.7,0.4-1,0.6
			c-0.3,0.3-0.7,0.5-1.2,0.7c-1,0.4-1.8,0.6-2.5,0.7c-0.7,0.1-1.5,0.5-2.3,0.9c-0.6,0.2-1.3,0.3-2.1,0.4c-0.7,0-1.5,0.2-2.3,0.5
			c-1.1,0.3-1.9,0.4-2.6,0.4c-0.7,0-1.5-0.2-2.5-0.4c-0.1,0-0.3,0.2-0.6,0.6c-0.3,0.4-0.6,0.6-0.8,0.8c-0.2,0.3-0.4,0.5-0.6,0.8
			c-0.2,0.2-0.3,0.4-0.3,0.5c-0.3,0.4-0.4,0.5-0.5,0.5c0,0-0.1,0-0.2,0.2c-0.2,0.5-0.6,0.9-1.2,1.3c-0.6,0.4-1.1,0.7-1.6,1.1
			c-0.1,0.1-0.2,0.3-0.3,0.4c-0.1,0.1-0.2,0.2-0.3,0.3c-0.1,0.1-0.2,0.2-0.3,0.3c-0.1,0-0.3,0.1-0.4,0.3c-0.3,0.2-0.5,0.4-0.6,0.5
			c-0.1,0.1-0.2,0.2-0.3,0.3c-0.1,0.1-0.3,0.1-0.5,0.2c-0.2,0.1-0.5,0.2-0.9,0.4c-0.4,0.2-0.8,0.4-1.5,0.6c-0.6,0.2-1.3,0.3-2.1,0.4
			c-0.7,0.1-1.5,0.2-2.2,0.2c-0.7,0-1.4,0-1.8-0.2c-0.5-0.1-1-0.4-1.5-0.7c-0.5-0.3-0.9-0.6-1.3-0.9c-1.5-1.3-2.8-2.8-4.1-4.5
			c-1.3-1.8-1.8-3.9-1.7-6.4c0.1-0.6,0.2-1.1,0.2-1.7c0-0.6,0-1,0.1-1.4c0.1-0.1,0.3-0.3,0.4-0.4c0.1-0.1,0.3-0.3,0.4-0.7
			c0.1-0.1,0.1-0.3,0.1-0.5c0-0.2,0-0.4,0.1-0.5c0.1-0.2,0.2-0.4,0.3-0.5c0.1-0.1,0.2-0.3,0.3-0.5c0.1-0.2,0.2-0.4,0.2-0.6
			c0-0.2,0-0.4,0.1-0.5c0.1-0.3,0.3-0.6,0.6-0.9c0.2-0.2,0.4-0.4,0.6-0.6c0.1-0.3,0.2-0.7,0.3-0.9c0-0.3,0.1-0.5,0.3-0.7
			c0.3-0.7,0.5-1.2,0.6-1.4c0.1-0.2,0.5-0.6,1.1-1.2c0.4-0.3,0.6-0.6,0.8-0.7c0.2-0.1,0.5-0.1,1.1,0c0.3,0.1,0.6,0,0.7-0.3
			c0.1-0.2,0.2-0.5,0.2-0.8c0.1-0.6,0.3-1,0.6-1.2c0.2-0.2,0.4-0.3,0.4-0.4c-0.3-0.4-0.6-0.6-1.1-0.6c-0.4,0-0.8-0.1-1.2-0.3
			c-0.2-0.6-0.2-1.3-0.1-2.2c1.6,0.1,3.4,0,5.3-0.2c1.9-0.2,3.7-0.1,5.4,0.2c0.8,0.1,1.6,0.2,2.4,0.5c0.7,0.2,1.5,0.5,2.3,0.7
			c1.1,0.4,1.9,0.8,2.7,1.5c0.7,0.6,1.4,1.4,1.9,2.3c0.3,0.4,0.7,0.7,1.1,0.9c0.4,0.2,0.6,0.6,0.8,1.4c0.1,0.3,0.3,1,0.4,2.3
			c0.1,1.2,0.1,2.3-0.1,3.1c-0.1,0.8-0.3,1.4-0.5,1.9c-0.2,0.5-0.4,1-0.6,1.5c-0.2,0.5-0.4,0.9-0.7,1.4c-0.2,0.5-0.5,1.1-0.7,1.8
			c0.9,0.1,1.7,0.1,2.4,0.2c0.7,0,1.3,0,1.9-0.1c0.6-0.1,1.2-0.2,1.7-0.3c0.6-0.1,1.3-0.3,2.1-0.5c0.9-0.2,1.7-0.4,2.3-0.6
			c0.6-0.2,1.2-0.4,1.7-0.7c0.5-0.2,1-0.5,1.4-0.8c0.5-0.3,1-0.6,1.6-1.1c0.3-0.2,0.6-0.4,0.7-0.6c0.1-0.2,0.3-0.4,0.4-0.6
			c0.1-0.2,0.2-0.4,0.4-0.6C136.8,225.7,137,225.5,137.4,225.2z M106.8,237.2c0.6-0.3,1.2-0.7,1.7-1.2c0.5-0.4,1.2-1.2,1.9-2.4
			c-1.7-0.8-3.1-1.9-4.3-3.2c-1.2-1.3-2.2-2.8-3.2-4.4c-0.1,0.1-0.1,0.1-0.2,0.1c0,0-0.1,0-0.2,0.1c-0.6,0.5-1.1,1.2-1.6,2.1
			c-0.5,0.9-0.9,1.8-1.2,2.9c-0.3,1.1-0.5,2.1-0.7,3.2c-0.1,1.1-0.1,2.1,0,3.1c0.2,0.8,0.7,1.3,1.5,1.5c0.8,0.2,1.4,0.3,1.9,0.3
			c0.6-0.1,1.4-0.4,2.3-0.9C105.7,238,106.4,237.6,106.8,237.2z M113.9,220.1c-0.3-0.6-0.7-1.1-1.3-1.7c-0.3-0.3-0.6-0.5-0.8-0.7
			c-0.2-0.3-0.7-0.7-1.4-1c-0.7-0.3-1.3-0.6-1.8-1c-0.4-0.1-0.9-0.2-1.7-0.3c-0.8,0-1.3-0.1-1.5-0.1c0.6,0.6,0.8,1.3,0.7,2.1
			c-0.1,0.8,0,1.6,0.1,2.4c0.8,0.1,1.3,0.3,1.6,0.8c0.3,0.5,0.5,1.1,0.5,1.8c-0.1,0.3-0.3,0.4-0.7,0.3c-0.4-0.1-0.7,0-0.9,0.2
			c0.1,0.5,0.2,1,0.2,1.5c0,0.5,0,1,0.2,1.5c0.1,0.1,0.2,0.2,0.4,0.3c0.2,0.1,0.3,0.2,0.4,0.5c0.1,0.2,0.3,0.4,0.4,0.6
			c0.1,0.2,0.2,0.3,0.3,0.5c0.6,0.8,1.1,1.5,1.6,2.1c0.5,0.6,1.2,1.1,2.2,1.4c0.6-1.1,1.3-2.2,1.9-3.5c0.6-1.3,0.7-2.7,0.2-4.3
			c0.5-0.3,0.6-0.9,0.3-1.6C114.3,221.3,114.1,220.6,113.9,220.1z"/>
		<path class="st0" d="M150.1,217.2c0.4,0.7,0.9,1.1,1.7,1.1c0.8,0,1.4,0.1,2,0.4c0.3,0.2,0.7,0.4,0.9,0.6c0.3,0.2,0.6,0.4,0.8,0.7
			c0.5,0,0.8,0.1,1.1,0.4l0.2,0.2c0,0.1,0,0.1,0.1,0.2c0.4,0.2,0.7,0.4,0.8,0.7c0.1,0.2,0.3,0.6,0.7,1.1c0.2,0.1,0.4,0.3,0.5,0.4
			c0.1,0.1,0.3,0.2,0.5,0.4c-0.1,0.8-0.1,1.3,0.3,1.5c0.3,0.2,0.6,0.5,1,0.7c-0.4,0.5-0.7,1-0.9,1.5c-0.3,0.5-0.6,1-0.9,1.3
			c-0.2,0.8-0.5,1.8-0.7,2.7c-0.3,1-0.6,1.9-0.9,2.6c0,0.1-0.1,0.2-0.3,0.3c-0.2,0.1-0.3,0.2-0.4,0.3c-0.3,0.6-0.5,1.3-0.6,2.1
			c-0.1,0.8-0.2,1.6-0.4,2.4c-0.4,1.4-0.7,3-1.1,4.7c-0.4,1.7-0.4,3.5-0.1,5.3c0.1,0.6,0.3,1.3,0.4,2c0.1,0.7,0.4,1.3,0.7,1.7
			l0.1,0.3c0.3,0.2,0.6,0.3,0.8,0.3c0.3,0,0.5,0.1,0.6,0.2c0.3,0.3,0.3,0.5,0.2,0.5c-0.1,0.1-0.1,0.3,0.2,0.6c0.8,0.1,1.5,0,2.2-0.2
			c0.7-0.2,1.4-0.3,2.2-0.4c-0.5,0.6-1.1,1-1.8,1.3c-0.7,0.3-1.3,0.5-1.9,0.7c-2,0.4-3.8,0.2-5.6-0.5c-1.8-0.7-3-1.6-3.8-2.8
			c-0.2-0.2-0.4-0.7-0.6-1.4c-0.2-0.7-0.4-1.2-0.5-1.5c-0.1-0.4-0.3-0.7-0.4-0.9c-0.1-0.3-0.2-0.6-0.3-0.9c-0.3-0.8-0.5-1.8-0.5-2.8
			c-0.1-1-0.1-2.1-0.1-3.1c0-1.7,0.1-3.4,0.3-5.2c0.2-1.8,0.5-3.5,0.9-5.2c0.4-1.7,0.8-3.3,1.3-4.7c0.5-1.5,0.9-2.7,1.4-3.8
			c-0.1-0.6-0.5-0.9-0.9-1.1c-0.5-0.1-0.9-0.4-1.4-0.7c-0.3,0-0.5-0.1-0.6-0.2c-0.1-0.1-0.3-0.2-0.4-0.4c-0.1-0.1-0.3-0.2-0.4-0.3
			c-0.1-0.1-0.3,0-0.5,0.1c-0.4,0.6-0.7,0.9-0.8,1.2c-0.1,0.2-0.3,0.4-0.4,0.6c-0.1,0.2-0.3,0.4-0.4,0.6c-0.1,0.2-0.4,0.6-0.8,1.1
			c-0.1,0.2-0.5,0.5-1.2,0.9c-0.7,0.4-1,0.7-1.1,0.8c-0.3,0.8-0.6,1.3-1.1,1.5c-0.4,0.2-0.9,0.6-1.5,1.2c-0.6,0.8-1.2,1.3-1.8,1.6
			c-0.6,0.3-1.2,0.7-2,1.3c-2.8,0.1-4.2-0.2-4.2-1.1c0.9-0.8,1.8-1.5,2.6-2.1c0.8-0.6,1.4-1.2,1.8-1.7c0.8-0.9,1.3-1.5,1.5-1.7
			c0.2-0.2,0.6-0.7,1.2-1.3c0.4-0.4,0.8-0.8,1-1c0.2-0.2,0.8-0.8,1.5-1.7c0.5-0.7,0.8-1.2,0.9-1.4c0.1-0.2,0.4-0.7,0.7-1.3
			c-0.1-0.2-0.3-0.4-0.6-0.6c-0.2-0.2-0.5-0.4-0.8-0.6c-0.2-0.3-0.3-0.4-0.4-0.5c0,0-0.1-0.1-0.1-0.1c0,0,0-0.1,0-0.2
			c0-0.1-0.1-0.4-0.2-0.8c0-0.1-0.1-0.2-0.3-0.4c-0.2-0.2-0.3-0.4-0.3-0.4c-0.1-0.5-0.1-1.1,0-1.7c0.1-0.7,0.2-1.3,0.3-2
			c0.1-0.7,0.2-1.3,0.4-1.9c0.2-0.6,0.3-1.1,0.5-1.4c0.2-0.8,0.6-1.8,1.2-2.9c0.1-0.1,0.2-0.1,0.4-0.1c0.2,0,0.3,0,0.3-0.1
			c0.1-0.1,0.1-0.3,0.1-0.4c0-0.1-0.1-0.2-0.1-0.3c0-0.1,0.1-0.1,0.3-0.1c0.1,0,0.2,0,0.3,0.1c0.1-0.1,0.1-0.3,0-0.4
			c-0.1-0.1-0.1-0.2,0-0.2c0.1-0.1,0.2-0.1,0.3-0.2c0.1-0.1,0.2-0.1,0.2-0.2c0.1-0.3,0.4-0.7,0.7-1.2c0.3-0.4,0.8-0.9,1.3-1.4
			c0.4-0.3,0.9-1,1.8-1.8c0.8-0.9,1.5-1.5,2-1.8c0.1-0.1,0.3-0.2,0.6-0.2c0.2,0,0.5-0.1,0.7-0.4c0.1,0,0.1,0,0.2-0.1
			c0.1,0,0.2,0.1,0.3,0.3c0.6,0.6,1.3,1.2,2.1,1.6c0.7,0.4,1.4,0.9,1.9,1.6c0,0.4,0.1,0.6,0.2,0.6c0.1,2.5,0,4.5-0.4,6.2
			c-0.4,1.7-0.9,3.4-1.6,5.2c-0.4,1.1-0.8,2.2-1.5,3.2C151.3,215.1,150.7,216.1,150.1,217.2z M149.3,205.6c-0.1,0.7-0.4,1.4-0.8,1.9
			c-0.4,0.6-0.8,1.2-1.2,1.8c-0.4,0.6-0.7,1.2-0.9,1.9c-0.2,0.7-0.3,1.5-0.1,2.3c0.6-1.3,1.2-2.5,1.8-3.6c0.6-1.1,1.2-2.2,1.6-3.2
			c0.1-0.2,0.3-0.5,0.4-0.8c0.1-0.3,0.1-0.6,0-0.9c-0.1,0.2-0.2,0.3-0.4,0.3C149.6,205.4,149.4,205.4,149.3,205.6z"/>
		<path class="st0" d="M183.9,215.8c0.4,1,0.3,1.8-0.1,2.4c-0.4,0.6-0.7,1.2-0.9,1.8c-0.1,0.3-0.1,0.5-0.1,0.8c0,0.2,0,0.4-0.1,0.6
			c-0.2,0.3-0.4,0.6-0.5,1.1c-0.1,0.4-0.2,0.8-0.4,1.2c-0.8,1.7-1.5,3.5-2.3,5.3c-0.7,1.9-1.5,3.8-2.2,5.7c0.5,0.3,0.9,0.2,1.2-0.2
			c0.3-0.4,0.6-0.8,0.9-1.1c2.2-1.8,4.5-3.6,6.9-5.7c2.5-2,5.1-3.7,8-5c1.2-0.6,2.8-1,4.7-1.4c1.9-0.3,3.7-0.3,5.4,0.1
			c0.4,0.1,0.7,0.1,1.1,0.2c0.4,0.1,0.7,0.2,1,0.3c0.2,0.1,0.4,0.2,0.5,0.5c0.1,0.2,0.2,0.4,0.4,0.6c0.5,0.2,1,0.5,1.6,0.9
			c0.6,0.4,1,0.8,1.3,1.1c0.1,0.4,0.3,0.9,0.5,1.6c0.2,0.7,0.4,1.3,0.6,1.8c0.1,0.3,0.1,0.6,0.2,0.9c0,0.4,0.1,0.7,0.2,1.1
			c0.2,1,0.3,2.2,0.3,3.7c0,1.5-0.1,3.2-0.2,4.9c-0.1,1.7-0.2,3.2-0.2,4.6c0.2-0.4,0.5-0.9,0.9-1.5c0.4-0.6,0.8-1.1,1.3-1.7
			c0.5-0.6,1-1.1,1.5-1.6c0.5-0.5,0.9-0.9,1.3-1.2c0.3-0.2,0.6-0.6,1.1-1.1c0.5-0.5,0.9-1,1.5-1.5c0.5-0.5,1-1,1.5-1.5
			c0.5-0.5,0.9-0.8,1.3-1c2-1.5,3.5-2.7,4.6-3.7c1.1-1,2.2-1.6,3.4-2c0.6-0.2,1.1-0.4,1.5-0.6c0.5-0.2,1.4-0.1,2.8,0.3
			c0.2,0.1,0.3,0.3,0.4,0.6c0,0.3,0,0.6,0,0.9c0,0.3-0.1,0.6-0.3,0.8c-0.1,0.2-0.3,0.2-0.4,0.1c-0.6,0.3-1.1,0.5-1.3,0.5
			c-0.2,0.1-0.5,0.1-0.6,0.2c-0.2,0.1-0.4,0.2-0.6,0.4c-0.2,0.2-0.7,0.6-1.4,1.3c-0.1,0.1-0.6,0.5-1.3,0.9c-0.7,0.5-1.1,0.8-1.3,0.9
			c-0.1,0.1-0.3,0.3-0.6,0.5c-0.2,0.2-0.5,0.5-0.9,0.7c-0.6,0.4-0.9,0.8-1.2,1.1c-0.2,0.3-0.5,0.6-0.9,0.9c-0.8,0.6-1.6,1.4-2.4,2.2
			c-0.7,0.8-1.6,1.7-2.5,2.7c-0.1,0.1-0.3,0.3-0.7,0.8c-0.4,0.5-0.9,1-1.4,1.5c-0.5,0.6-0.9,1.1-1.4,1.6c-0.4,0.5-0.7,0.8-0.7,0.8
			c-0.1,0.1-0.2,0.4-0.5,0.8c-0.2,0.4-0.5,0.8-0.8,1.3c-0.3,0.5-0.6,1-0.8,1.4c-0.3,0.5-0.5,0.8-0.6,0.9c-0.6,0.4-0.9,0.9-1.1,1.6
			c-0.2,0.7-0.4,1.2-0.7,1.6c-0.1,0.6-0.3,1.2-0.5,1.9c-0.2,0.7-0.4,1.5-0.7,2.3c-0.4,1.9-0.8,4-1.3,6.4c-0.4,2.4-0.9,4.6-1.5,6.7
			c-0.1,0.6-0.3,1.2-0.5,1.8c-0.2,0.7-0.4,1.3-0.6,2.1c-0.1,0.1-0.1,0.3,0,0.6c0.1,0.2,0.1,0.5,0,0.7c-0.1,0.3-0.3,0.6-0.6,1.1
			c-0.3,0.5-0.6,1-0.8,1.5c-0.1,0.6-0.2,0.9-0.2,1.1c0,0.2,0.1,0.3,0.1,0.5c0,0.1,0,0.3-0.1,0.5c0,0.2-0.2,0.6-0.4,1.1
			c0,0.1-0.1,0.2-0.3,0.3c-0.2,0.1-0.3,0.2-0.3,0.3c-0.1,0.2-0.1,0.5,0,0.7c0.1,0.3,0.1,0.5,0,0.6c-0.3,0.6-0.5,1.2-0.7,1.8
			c-0.2,0.7-0.4,1.3-0.8,1.8c-0.3,0.6-0.6,1.2-0.8,1.8c-0.3,0.7-0.6,1.3-0.8,1.8c-0.1,0.4-0.2,0.6-0.3,0.6c0,0.1-0.1,0.1-0.2,0.2
			c-0.1,0-0.1,0.1-0.2,0.1c0,0-0.1,0.2-0.3,0.5c-0.2,0.3-0.4,0.6-0.4,0.6l-0.2,0.4c-0.6,1.2-1.2,2.3-1.9,3.4
			c-0.7,1.1-1.3,2.2-1.7,3.4c-0.6,1.2-1.1,2.4-1.5,3.6c-0.4,1.2-0.8,2.5-1.3,3.8c-0.6,0.3-1.2,0.6-1.9,0.9c-0.7,0.3-1.3,0.6-1.9,1
			c-1.4-0.4-2.8-0.6-4.3-0.8c-1.5-0.2-2.7-0.6-3.7-1.2c0-2.7,0.3-5.2,1.1-7.6c0.7-2.4,1.4-4.9,2-7.3c0.4-1.6,0.8-2.9,1.1-4
			c0.3-1.1,0.6-2.1,0.8-3c0.3-0.9,0.6-1.9,0.9-2.9c0.3-1,0.8-2.3,1.3-3.7c0.1-0.5,0.3-0.9,0.4-1.2c0.1-0.3,0.3-0.7,0.6-1.2l0.2-0.6
			c0.1-0.3,0.2-0.6,0.3-0.9c0.1-0.3,0.2-0.6,0.3-0.9c0-0.1,0.1-0.2,0.3-0.4c0.2-0.2,0.3-0.3,0.3-0.4c0.6-1.8,1.1-3.2,1.6-4.2
			c0.5-1,1.2-2.3,2.2-3.9c0-0.1,0-0.2,0.1-0.5c0-0.2,0.1-0.4,0.3-0.6c0.1-0.1,0.2-0.1,0.3-0.2c0.1,0,0.2-0.1,0.4-0.2
			c0.1-0.3,0.1-0.6,0.1-0.9c0-0.3,0.1-0.6,0.2-0.8c0-0.1,0.1-0.1,0.2-0.1c0.1,0,0.2,0,0.3-0.1c0.1-0.4,0.1-0.6,0.2-0.8
			c0-0.2,0.2-0.4,0.4-0.6c0.3-0.6,0.7-1.1,1.1-1.5c0.4-0.5,0.8-1,1.1-1.5c0.1-0.3,0.3-0.5,0.6-0.7c0.2-0.2,0.5-0.4,0.7-0.6
			c0.1-0.1,0.1-0.3,0-0.6c-0.1-0.2-0.1-0.4,0-0.5c0.1-0.1,0.3-0.2,0.6-0.2c0.2,0,0.4-0.1,0.6-0.4c0.3-0.3,0.5-0.6,0.5-0.8
			c0.1-0.3,0.2-0.6,0.4-0.9c0.3-0.4,0.7-0.9,1.1-1.3c0.4-0.5,0.8-1,1.1-1.5c-0.1-1.7-0.1-3.3,0.1-4.8c0.2-1.5,0.3-3,0.3-4.6
			c0-1,0-2.2-0.1-3.6c0-1.4-0.1-2.8-0.3-4.1c-0.1-1.3-0.4-2.5-0.8-3.5c-0.4-1-0.9-1.6-1.5-1.8c-0.6-0.1-1.5,0.1-2.7,0.7
			c-1.2,0.6-2.1,1.2-2.9,1.7c-0.6,0.4-1,0.7-1.4,1.1c-0.4,0.4-0.9,0.7-1.4,1.1c-0.1,0.1-0.3,0.2-0.4,0.2c-0.1,0-0.3,0.1-0.4,0.2
			c-0.4,0.4-0.9,0.8-1.6,1.4c-0.7,0.6-1.3,1.1-1.6,1.6c-0.9,0.8-1.8,1.6-2.7,2.6c-0.9,1-1.8,1.9-2.7,2.6c-0.1,0.1-0.3,0.2-0.4,0.2
			c-0.1,0-0.3,0.1-0.4,0.2c-0.6,0.5-1.3,1.2-2.2,2.2c-0.9,1-1.7,1.7-2.4,2.2c-0.3,0.1-0.6,0.1-0.8,0.1c-0.3,0-0.6,0-0.8,0.1
			c-1,0.3-1.9,0.7-2.6,1c-0.8,0.3-1.8,0.2-2.9-0.3c-0.4-0.1-0.8-0.3-1.2-0.6c-0.5-0.4-0.9-0.7-1.4-1.1c-0.5-0.4-0.9-0.8-1.3-1.2
			c-0.4-0.4-0.6-0.8-0.6-1.1c-0.1-0.4-0.2-0.9-0.3-1.4c-0.1-0.5-0.2-0.9-0.4-1.3c-0.4-1.5-0.5-3-0.3-4.3c0.1-1.3,0.5-2.8,1.1-4.4
			c0.1-0.3,0.1-0.6,0.2-0.8c0.1-0.3,0.2-0.6,0.3-0.9c0.1-0.3,0.1-0.6,0.1-0.8c0-0.3,0-0.5,0.1-0.7c0.3-0.6,0.7-1.3,1.3-2.1
			c0.6-0.8,1-1.6,1.2-2.2c0.2-0.6,0.4-1.4,0.6-2.2c0.2-0.8,0.4-1.5,0.5-2c0.2-0.5,0.5-0.9,0.7-1.2c0.3-0.3,0.5-0.6,0.8-0.9
			c0.2-0.3,0.5-0.6,0.6-1c0.2-0.4,0.3-0.8,0.5-1.4c0.6-0.1,1.2-0.3,1.8-0.4c0.6-0.1,1.2-0.2,1.8-0.2c1.1,0,2.1,0.1,3.3,0.4
			C181.4,215.1,182.6,215.4,183.9,215.8z M198.6,268c-0.4,0.8-0.7,1.5-0.9,2.3c-0.3,0.7-0.6,1.4-0.8,2.1c-0.4,1.3-0.8,2.6-1.1,3.8
			c-0.3,1.2-0.7,2.3-1.2,3.3c0.2,0.7,0.2,1.4-0.1,2.2c-0.3,0.8-0.5,1.6-0.5,2.5c-0.1,0.4-0.2,0.7-0.1,1.1c0.1,0.4,0.1,0.8,0.1,1.3
			c-0.1,0.4-0.3,0.8-0.4,1.1c-0.1,0.3-0.3,0.7-0.4,1.3c0,0.4,0,0.8,0,1.3c0,0.5,0.3,0.8,0.8,1.1c1.9-4.2,3.5-8.6,4.9-13.3
			c1.4-4.6,2.5-9.7,3.3-15.1c0-0.2-0.1-0.3-0.3-0.3c-0.6,0.9-1.1,1.9-1.6,2.8C199.7,266.2,199.2,267.1,198.6,268z"/>
	</g>
	<g>
		<path class="st0" d="M136.6,8.7c0,0-0.1,0-0.1-0.1c0.1,0.2,0.4,0.4,0.9,0.5c0.5,0.1,1,0.2,1.5,0.2c0.5,0.1,1.1,0.1,1.6,0.1
			c0.5,0,1,0.1,1.3,0.2c0.4,0.1,0.7,0.1,0.8,0c0.2-0.1,0.5-0.1,0.8,0c0.4-0.1,0.8,0,1.1,0.3c0.3,0.3,0.7,0.2,1-0.1
			c0.2,0.1,0.2,0.2,0.1,0.2c-0.1,0,0,0.1,0.2,0.3c0.9,0,1.7-0.1,2.6-0.2c0.9-0.1,1.7-0.1,2.4,0.1c0.3,0,0.6,0.1,0.8,0.3
			c0.3,0.2,0.6,0.3,0.9,0.4c0.4,0.1,0.7,0.1,1.1,0.1c0.4,0,0.7,0,1.1,0.2c0.1-0.2,0.4-0.2,1,0c0.5,0.2,0.9,0.4,1.1,0.6
			c0.8-0.1,1.6-0.1,2.4,0.3c0.8,0.3,1.6,0.6,2.3,0.9c0.8,0.4,1.6,0.7,2.4,0.7c0.8,0.1,1.7,0.2,2.6,0.5c1.7,0.6,3.4,1.2,5.3,1.8
			c1.8,0.6,3.5,1.5,5.1,2.6c-0.3,0.5-0.7,0.8-1.2,0.9c-0.4,0.1-0.9,0.2-1.4,0.2c-0.5,0-1-0.1-1.5-0.2c-0.5-0.1-1-0.2-1.4-0.3
			c-0.1,0.2,0,0.2,0.4,0.2c0.3-0.1,0.5,0,0.6,0.2c-1.9,0-3.8-0.1-5.7-0.3c-1.9-0.2-3.7-0.4-5.5-0.8c-0.5-0.1-1.1-0.3-1.7-0.5
			c-0.6-0.2-1.2-0.4-1.8-0.5c-1.7-0.5-3.3-0.7-4.9-0.6c-1.6,0.1-3.1,0-4.6-0.3c0.1,0.1,0,0.3-0.2,0.4c-0.2,0.1-0.5,0.2-0.8,0.3
			c-0.3,0.1-0.5,0-0.8,0c-0.2-0.1-0.4-0.3-0.5-0.7c-0.2,0.4-0.5,0.5-1,0.3c-0.2,0.3-0.1,0.5,0.2,0.6c0.3,0.1,0.7,0.1,1.2,0.1
			c0.5,0,1-0.1,1.5-0.2c0.5-0.1,0.8-0.2,1-0.4c0.7,0.3,1.4,0.4,2.1,0.4c0.7,0,1.5,0.1,2.3,0.2c0.8,0.2,1.6,0.5,2.4,0.7
			c0.8,0.3,1.5,0.4,2.3,0.5c-0.5,0.4-1.1,0.5-1.9,0.1c-0.8-0.3-1.5-0.5-2.2-0.5c-0.3,0.2-0.8,0.3-1.5,0.3c-0.7,0-1.2-0.1-1.4-0.2
			c-0.3-0.3-0.8-0.4-1.5-0.3c-0.7,0.2-1.3,0.3-1.8,0.3c-0.8-0.2-1.7-0.3-2.5-0.5c-0.9-0.2-1.8-0.1-2.7,0c-0.5-0.6-1.1-0.8-2-0.6
			c-0.9,0.1-1.6,0.2-2.2,0.2c-0.8,0.1-1.6,0-2.6-0.3c-1-0.3-1.8-0.3-2.5,0c-0.6,0.3-1.1,0.4-1.6,0.2c-0.5-0.1-1,0-1.7,0.3
			c-0.5,0.3-1,0.3-1.6,0.2c-0.5-0.1-1-0.1-1.5,0c-0.6,0-1.1,0-1.5,0.2c-0.4,0.2-0.9,0.3-1.5,0.3c-0.2,0.3-0.1,0.4,0.3,0.3
			c0.3-0.1,0.6-0.2,0.9-0.3c-0.5,0.5-1,0.6-1.6,0.4c-0.6-0.2-1.2-0.2-1.8,0c-0.2-0.1-0.3-0.2-0.5-0.3c-0.2,0-0.3-0.1-0.4-0.3
			c-1.2,0.3-2.2,0.3-3.2,0.1c-1-0.2-2.1-0.2-3.3,0.1c0-0.2-0.2-0.3-0.5-0.5c-0.3-0.1-0.6-0.2-1-0.3c-0.4,0-0.7-0.1-1-0.1
			c-0.3,0-0.5,0-0.5,0.1c-0.2-0.4-0.2-0.5-0.1-0.3c0.2,0.2,0.3,0.2,0.4,0c-0.6-0.2-1.2-0.1-1.7,0.2c-0.5,0.3-1.1,0.3-1.8-0.3
			c-0.2,0-0.5,0-0.8-0.1c-0.3-0.1-0.5-0.2-0.6-0.2c-0.1,0.1-0.3,0.2-0.5,0.2c-0.3,0-0.5-0.1-0.5-0.1c-0.1-0.1-0.3,0-0.8,0.3
			c-0.1-0.3-0.3-0.5-0.7-0.6c-0.4-0.1-0.8-0.1-1.3-0.1c-0.5,0-0.9,0-1.4,0c-0.5,0-0.8,0-1-0.2c-0.5-0.2-0.9-0.2-1.4-0.1
			c-0.4,0.1-0.9,0.2-1.4,0.3c-0.5,0.1-1,0.2-1.5,0.2c-0.5,0-1-0.1-1.5-0.3c-0.4-0.1-0.8-0.1-1.2,0c-0.4,0.1-0.9,0.2-1.4,0.2
			c-0.5,0.1-1,0-1.5-0.1c-0.5-0.1-0.9-0.4-1.4-0.8c-0.4-0.2-0.8-0.7-1.3-1.3c-0.4-0.6-0.8-1.2-1.2-1.9c-0.4-0.7-0.7-1.4-1-2.1
			c-0.3-0.7-0.4-1.3-0.4-1.8c0.3-0.1,0.7-0.1,1.2,0.1c0.5,0.2,1,0.3,1.3,0.2L93,8.4c0.7-0.2,1.3-0.4,2-0.5c0.7-0.1,1.4-0.3,2.1-0.4
			c1-0.2,1.9-0.4,2.8-0.5c0.9-0.2,1.8-0.3,2.8-0.4c0.2,0.4,0.2,0.5,0,0.5c-0.2,0-0.4,0-0.5,0.1c0.3-0.1,0.8-0.1,1.5,0
			c0.6,0.1,1-0.1,1-0.5c0.5,0.1,1,0,1.4-0.3c0.2,0.4,0.2,0.5,0,0.4c-0.2-0.1-0.3,0-0.3,0.1c0.2,0,0.5-0.1,0.8-0.2
			c0.3-0.1,0.6-0.2,0.8-0.4c0.1,0.1,0.5,0.1,1.1,0c0.7-0.1,1-0.1,1,0c0.4,0.3,0.9,0.5,1.5,0.5c0.6,0,1.2,0,1.9-0.1
			c0.6,0,1.3-0.1,1.9-0.2c0.7-0.1,1.2-0.1,1.8,0c3.4,0,6.8,0.2,10.1,0.6c3.3,0.4,6.6,0.9,9.9,1.3C136.7,8.6,136.7,8.7,136.6,8.7z
			 M103.4,6.8c0.2,0.1,0.3,0.1,0.4-0.1c0,0.2-0.1,0.2-0.3,0.2c-0.2,0-0.4,0-0.5,0C103,6.7,103.2,6.7,103.4,6.8z M121.4,17.7
			c-0.8-0.1-1.3,0.1-1.5,0.7c0.5,0.1,1,0.1,1.3,0c0.4,0,0.9-0.1,1.5-0.3C122.6,18,122.1,17.8,121.4,17.7z M123.3,18.1
			c0.7,0,1.3,0,1.6,0c0.4,0,0.7-0.1,1-0.2c0.3-0.1,0.4-0.3,0.3-0.5c-0.3,0.2-0.8,0.3-1.5,0.2C124.1,17.6,123.6,17.7,123.3,18.1z
			 M127,17.4c-0.2-0.1-0.4,0-0.4,0.4c0.2-0.1,0.5-0.1,0.8,0c0.3,0.1,0.5,0,0.6-0.4C127.6,17.5,127.2,17.5,127,17.4z M130.9,17.8
			c-0.3-0.1-0.6-0.1-0.9,0c0.1,0,0.3-0.1,0.7-0.2c0.4-0.1,0.6-0.2,0.8-0.2C131.4,17.7,131.2,17.8,130.9,17.8z M149.7,17.7
			c0.2,0.2,0.4,0.2,0.6,0.1c-0.2-0.1-0.4-0.3-0.8-0.4c-0.4-0.1-0.5,0-0.5,0.3C149.3,17.6,149.5,17.6,149.7,17.7z"/>
	</g>
	<g>
		<path class="st0" d="M133,282.4c-0.6,0.1-1.4,0-2.4-0.2c-1.1-0.2-1.9-0.1-2.5,0.2c-0.2,0-0.3,0.1-0.3,0.1c0,0.1-0.1,0.1-0.3,0.1
			c-0.3,0-0.5,0-0.5,0c-0.1-0.1-0.2-0.1-0.4-0.3l-2.4,0.4c-0.7,0.3-1.5,0.4-2.3,0.5c-0.8,0-1.7,0.1-2.7,0.1c-0.6,0-1.2,0.1-2,0.1
			c-0.7,0.1-1.5,0.1-2.3,0.1c-0.2,0-0.5-0.1-0.8-0.1c-0.3,0-0.7,0-1-0.1c-0.5-0.1-1-0.1-1.5,0c-0.5,0.1-1,0.1-1.4,0.1
			c-0.3-0.1-0.7-0.2-1.1-0.2c-0.4,0-0.9-0.1-1.3-0.1c-0.6,0-1.1,0.1-1.6,0.1c-0.5,0.1-1,0.1-1.4,0.1c-0.6,0-1.1,0-1.6,0
			c-0.5,0-1,0-1.6,0c-2-0.1-4-0.2-6-0.3c-0.8-0.2-1.6-0.2-2.3-0.2c-0.7,0-1.5-0.1-2.3-0.2c-0.2-0.1-0.4-0.2-0.5-0.2
			c-0.1,0-0.3,0-0.5-0.1c-0.8,0-1.6,0-2.5,0c-0.9,0.1-1.8,0.1-2.8,0.1c-0.5,0.1-1,0.1-1.4,0.1c-0.5,0-1,0-1.6,0
			c-0.5,0-0.9,0-1.4,0.1c-0.4,0.1-0.7,0.1-0.9,0c-0.3,0-0.6-0.1-0.9-0.1c-0.3-0.1-0.5-0.1-0.7-0.1c-1.2-0.1-2.5,0-4,0.4
			c-1.5,0.4-2.8,0.5-3.9,0.5c-0.6-0.1-1.2,0-1.8,0.1c-0.6,0.1-1.4,0.2-2.2,0.2c-0.6,0-1.1,0-1.6,0c-0.5,0-1,0-1.6,0.1
			c-0.2,0-0.4,0.1-0.8,0.3c-0.3,0.2-0.7,0.2-1.1,0.1c-0.2,0-0.5-0.1-1-0.4c-0.5-0.3-0.7-0.7-0.5-1c0-0.4,0.6-0.9,1.8-1.5
			c1.1-0.6,2.2-1.2,3.2-1.7c1-0.5,2-0.9,3-1.1c1-0.3,2.1-0.5,3.1-0.8c1.7-0.5,3.4-0.9,5.1-1.2c1.7-0.3,3.5-0.6,5.3-0.9
			c3.3-0.5,6.7-0.9,10.1-1.2c3.4-0.3,7.1-0.5,10.9-0.7c1.3-0.1,2.7-0.2,4-0.3c1.3-0.1,2.8-0.1,4.4-0.2c1.4-0.1,2.7-0.1,4.1-0.2
			c1.4-0.1,2.8-0.2,4.1-0.2c0.4-0.1,0.7,0,1,0.1c0.3,0.1,0.6,0.2,1,0.2c3.5-0.2,7-0.3,10.5-0.3c1.7,0.1,3.3,0.2,4.9,0.2
			c1.6,0.1,3.2,0.1,4.8,0.1c2.2,0.1,4.4,0.3,6.7,0.5c2.3,0.2,4.6,0.5,6.9,0.7c1.1,0.1,2.2,0.1,3.3,0.3c1.1,0.1,2.1,0.1,2.9-0.2
			c0.2-0.2,0.5-0.4,1.1-0.6c0.6-0.2,0.9-0.2,0.9,0.2c-0.1,0.6-0.3,1.2-0.6,1.9c-0.3,0.7-0.6,1.2-1.1,1.6c-0.4,0.4-0.8,0.9-1.2,1.3
			c-0.4,0.5-0.8,0.8-1.4,0.9c-0.3,0-0.7,0.1-1.3,0.1c-0.6,0-1.2,0.1-1.7,0.1c-0.5,0-1,0-1.4,0.1c-0.5,0.1-1,0.1-1.4,0.2
			c-1.2,0-2.3,0.1-3.3,0.2c-1,0.1-2,0.1-3,0.2c-0.8,0-1.4,0.2-2,0.3c-0.6,0.2-1.1,0.3-1.6,0.4c-0.8,0-1.5-0.1-2.2-0.2
			c-0.7-0.1-1.4-0.1-2.1-0.1c-0.4,0-0.8,0-1.1,0.2c-0.3,0.1-0.7,0.2-1.2,0.3c-0.4,0-0.7,0-1,0c-0.3,0-0.6,0-0.9,0.1
			c-0.2,0-0.3,0.1-0.5,0.2c-0.1,0.1-0.3,0.1-0.7,0c0,0.1,0.1,0.2,0.3,0.3C133.2,282.1,133.2,282.2,133,282.4z M113.2,283.7
			c-0.6,0.2-1.1,0.3-1.6,0.3c-0.5,0-1-0.1-1.5-0.1C111,283.7,112,283.6,113.2,283.7z"/>
	</g>
</g>
</svg>
